<?xml version="1.0" standalone="no"?><!-- Generator: Gravit.io --><svg xmlns="http://www.w3.org/2000/svg" xmlns:xlink="http://www.w3.org/1999/xlink" style="isolation:isolate" viewBox="0 0 50 50" width="50" height="50"><defs><clipPath id="_clipPath_jEYShxqFVrfqsZfSa70vdS6inQ196Orl"><rect width="50" height="50"/></clipPath></defs><g clip-path="url(#_clipPath_jEYShxqFVrfqsZfSa70vdS6inQ196Orl)"><path d=" M 25 50 C 11.202 50 0 38.798 0 25 C 0 11.202 11.202 0 25 0 C 38.798 0 50 11.202 50 25 C 50 38.798 38.798 50 25 50 Z " fill="rgb(1,133,189)"/><path d=" M 24.512 42.062 C 24.242 41.792 24.242 41.355 24.512 41.085 C 24.781 40.816 25.219 40.816 25.488 41.085 C 25.758 41.355 25.758 41.792 25.488 42.062 C 25.219 42.331 24.781 42.331 24.512 42.062 Z " fill="rgb(255,255,255)"/><path d=" M 6.053 41.573 C 6.023 39.032 6.991 36.491 8.928 34.554 C 10.865 32.617 13.406 31.649 15.948 31.679 M 43.947 41.573 C 43.977 39.032 43.009 36.491 41.072 34.554 C 39.135 32.617 36.594 31.649 34.052 31.679 M 16 31.678 L 34.105 31.678" fill-rule="evenodd" fill="none" vector-effect="non-scaling-stroke" stroke-width="0.5" stroke="rgb(255,255,255)" stroke-linejoin="miter" stroke-linecap="square" stroke-miterlimit="3"/></g></svg>