<?xml version="1.0" standalone="no"?><!-- Generator: Gravit.io --><svg xmlns="http://www.w3.org/2000/svg" xmlns:xlink="http://www.w3.org/1999/xlink" style="isolation:isolate" viewBox="0 0 50 50" width="50" height="50"><defs><clipPath id="_clipPath_9Ddet5b7nItu6VAWIvTqqyay1cqjJbjW"><rect width="50" height="50"/></clipPath></defs><g clip-path="url(#_clipPath_9Ddet5b7nItu6VAWIvTqqyay1cqjJbjW)"><path d=" M 0 25 C 0 11.202 11.202 0 25 0 C 38.798 0 50 11.202 50 25 C 50 38.798 38.798 50 25 50 C 11.202 50 0 38.798 0 25 Z " fill="rgb(1,133,189)"/><path d=" M 7.938 24.512 C 8.208 24.242 8.645 24.242 8.915 24.512 C 9.184 24.781 9.184 25.219 8.915 25.488 C 8.645 25.758 8.208 25.758 7.938 25.488 C 7.669 25.219 7.669 24.781 7.938 24.512 Z " fill="rgb(255,255,255)"/><path d=" M 8.427 6.053 C 10.968 6.023 13.509 6.991 15.446 8.928 C 17.383 10.865 18.351 13.406 18.321 15.948 M 8.427 43.947 C 10.968 43.977 13.509 43.009 15.446 41.072 C 17.383 39.135 18.351 36.594 18.321 34.052 M 18.322 16 L 18.322 34.105" fill-rule="evenodd" fill="none" vector-effect="non-scaling-stroke" stroke-width="0.5" stroke="rgb(255,255,255)" stroke-linejoin="miter" stroke-linecap="square" stroke-miterlimit="3"/></g></svg>