<?xml version="1.0" standalone="no"?><!-- Generator: Gravit.io --><svg xmlns="http://www.w3.org/2000/svg" xmlns:xlink="http://www.w3.org/1999/xlink" style="isolation:isolate" viewBox="0 0 50 50" width="50" height="50"><defs><clipPath id="_clipPath_uLDlRg4WtfO80i8vYFGJIABW5lBhDJ2l"><rect width="50" height="50"/></clipPath></defs><g clip-path="url(#_clipPath_uLDlRg4WtfO80i8vYFGJIABW5lBhDJ2l)"><path d=" M 25 0 C 38.798 0 50 11.202 50 25 C 50 38.798 38.798 50 25 50 C 11.202 50 0 38.798 0 25 C 0 11.202 11.202 0 25 0 Z " fill="rgb(1,133,189)"/><path d=" M 19.871 50.375 C 17.041 47.546 17.041 42.951 19.871 40.122 C 22.7 37.293 27.294 37.293 30.124 40.122 C 32.953 42.951 32.953 47.546 30.124 50.375 C 27.294 53.205 22.7 53.205 19.871 50.375 Z " fill="none" vector-effect="non-scaling-stroke" stroke-width="0.5" stroke="rgb(255,255,255)" stroke-linejoin="miter" stroke-linecap="square" stroke-miterlimit="3"/><path d=" M 24.509 45.737 C 24.24 45.467 24.24 45.03 24.509 44.76 C 24.778 44.491 25.216 44.491 25.485 44.76 C 25.755 45.03 25.755 45.467 25.485 45.737 C 25.216 46.006 24.778 46.006 24.509 45.737 Z " fill="rgb(255,255,255)"/><line x1="0.26" y1="45.249" x2="49.74" y2="45.249" vector-effect="non-scaling-stroke" stroke-width="0.5" stroke="rgb(255,255,255)" stroke-linejoin="miter" stroke-linecap="square" stroke-miterlimit="3"/><path d=" M 25.488 7.938 C 25.758 8.208 25.758 8.645 25.488 8.915 C 25.219 9.184 24.781 9.184 24.512 8.915 C 24.242 8.645 24.242 8.208 24.512 7.938 C 24.781 7.669 25.219 7.669 25.488 7.938 Z " fill="rgb(255,255,255)"/><path d=" M 6.053 8.427 C 6.023 10.968 6.991 13.509 8.928 15.446 C 10.865 17.383 13.406 18.351 15.948 18.321 M 43.947 8.427 C 43.977 10.968 43.009 13.509 41.072 15.446 C 39.135 17.383 36.594 18.351 34.052 18.321 M 16 18.322 L 34.105 18.322" fill-rule="evenodd" fill="none" vector-effect="non-scaling-stroke" stroke-width="0.5" stroke="rgb(255,255,255)" stroke-linejoin="miter" stroke-linecap="square" stroke-miterlimit="3"/></g></svg>