<?xml version="1.0" standalone="no"?><!-- Generator: Gravit.io --><svg xmlns="http://www.w3.org/2000/svg" xmlns:xlink="http://www.w3.org/1999/xlink" style="isolation:isolate" viewBox="0 0 50 50" width="50" height="50"><defs><clipPath id="_clipPath_IcQL6fNy8mN9QnQ7yPP6n3TJewEZo3Rm"><rect width="50" height="50"/></clipPath></defs><g clip-path="url(#_clipPath_IcQL6fNy8mN9QnQ7yPP6n3TJewEZo3Rm)"><path d=" M 25 0 C 38.798 0 50 11.202 50 25 C 50 38.798 38.798 50 25 50 C 11.202 50 0 38.798 0 25 C 0 11.202 11.202 0 25 0 Z " fill="rgb(1,133,189)"/><path d=" M 25.488 7.938 C 25.758 8.208 25.758 8.645 25.488 8.915 C 25.219 9.184 24.781 9.184 24.512 8.915 C 24.242 8.645 24.242 8.208 24.512 7.938 C 24.781 7.669 25.219 7.669 25.488 7.938 Z " fill="rgb(255,255,255)"/><path d=" M 43.947 8.427 C 43.977 10.968 43.009 13.509 41.072 15.446 C 39.135 17.383 36.594 18.351 34.052 18.321 M 6.053 8.427 C 6.023 10.968 6.991 13.509 8.928 15.446 C 10.865 17.383 13.406 18.351 15.948 18.321 M 34 18.322 L 15.895 18.322" fill-rule="evenodd" fill="none" vector-effect="non-scaling-stroke" stroke-width="0.5" stroke="rgb(255,255,255)" stroke-linejoin="miter" stroke-linecap="square" stroke-miterlimit="3"/></g></svg>