<?xml version="1.0" standalone="no"?><!-- Generator: Gravit.io --><svg xmlns="http://www.w3.org/2000/svg" xmlns:xlink="http://www.w3.org/1999/xlink" style="isolation:isolate" viewBox="0 0 50 50" width="50" height="50"><defs><clipPath id="_clipPath_5vcodKV4VSaRvFwmQ1m0I8jzRCee5n6u"><rect width="50" height="50"/></clipPath></defs><g clip-path="url(#_clipPath_5vcodKV4VSaRvFwmQ1m0I8jzRCee5n6u)"><path d=" M 50 25 C 50 11.202 38.798 0 25 0 C 11.202 0 0 11.202 0 25 C 0 38.798 11.202 50 25 50 C 38.798 50 50 38.798 50 25 Z " fill="rgb(200,87,64)"/><path d=" M 42.843 7.211 C 38.275 7.157 33.706 8.898 30.224 12.38 C 23.259 19.345 23.259 30.655 30.224 37.62 C 33.706 41.102 38.275 42.843 42.843 42.789" fill="none" vector-effect="non-scaling-stroke" stroke-width="0.5" stroke="rgb(255,255,255)" stroke-linejoin="miter" stroke-linecap="square" stroke-miterlimit="3"/><path d=" M 42.062 24.512 C 41.792 24.242 41.355 24.242 41.085 24.512 C 40.816 24.781 40.816 25.219 41.085 25.488 C 41.355 25.758 41.792 25.758 42.062 25.488 C 42.331 25.219 42.331 24.781 42.062 24.512 Z " fill="rgb(255,255,255)"/></g></svg>