<?xml version="1.0" encoding="UTF-8" standalone="no"?>
<!-- Generator: Adobe Illustrator 19.0.0, SVG Export Plug-In . SVG Version: 6.00 Build 0)  -->

<svg
   xmlns:dc="http://purl.org/dc/elements/1.1/"
   xmlns:cc="http://creativecommons.org/ns#"
   xmlns:rdf="http://www.w3.org/1999/02/22-rdf-syntax-ns#"
   xmlns:svg="http://www.w3.org/2000/svg"
   xmlns="http://www.w3.org/2000/svg"
   xmlns:sodipodi="http://sodipodi.sourceforge.net/DTD/sodipodi-0.dtd"
   xmlns:inkscape="http://www.inkscape.org/namespaces/inkscape"
   version="1.1"
   id="Layer_1"
   x="0px"
   y="0px"
   viewBox="0 0 299.92 299.92"
   style="enable-background:new 0 0 299.92 299.92;"
   xml:space="preserve"
   sodipodi:docname="area.svg"
   inkscape:version="0.92.2 (5c3e80d, 2017-08-06)"><metadata
     id="metadata43"><rdf:RDF><cc:Work
         rdf:about=""><dc:format>image/svg+xml</dc:format><dc:type
           rdf:resource="http://purl.org/dc/dcmitype/StillImage" /></cc:Work></rdf:RDF></metadata><defs
     id="defs41" /><sodipodi:namedview
     pagecolor="#ffffff"
     bordercolor="#666666"
     borderopacity="1"
     objecttolerance="10"
     gridtolerance="10"
     guidetolerance="10"
     inkscape:pageopacity="0"
     inkscape:pageshadow="2"
     inkscape:window-width="640"
     inkscape:window-height="480"
     id="namedview39"
     showgrid="false"
     inkscape:zoom="0.78687647"
     inkscape:cx="149.96001"
     inkscape:cy="149.96001"
     inkscape:window-x="0"
     inkscape:window-y="0"
     inkscape:window-maximized="0"
     inkscape:current-layer="Layer_1" /><g
     id="g6"
     style="fill:#ffffff"><g
       id="g4"
       style="fill:#ffffff"><path
         d="M293.4,65.2c3.606,0,6.52-2.914,6.52-6.52V6.52c0-3.606-2.914-6.52-6.52-6.52h-52.16c-3.606,0-6.52,2.914-6.52,6.52v19.56    H65.2V6.52C65.2,2.914,62.286,0,58.68,0H6.52C2.914,0,0,2.914,0,6.52v52.16c0,3.606,2.914,6.52,6.52,6.52h19.56v169.52H6.52    c-3.606,0-6.52,2.914-6.52,6.52v52.16c0,3.606,2.914,6.52,6.52,6.52h52.16c3.606,0,6.52-2.914,6.52-6.52v-19.56h169.52v19.56    c0,3.606,2.914,6.52,6.52,6.52h52.16c3.606,0,6.52-2.914,6.52-6.52v-52.16c0-3.606-2.914-6.52-6.52-6.52h-19.56V65.2H293.4z     M247.76,13.04h39.12v39.12h-13.04H260.8h-13.04V39.12V26.08V13.04z M13.04,52.16V13.04h39.12v13.04v13.04v13.04H39.12H26.08    H13.04z M52.16,286.88H13.04v-39.12h13.04h13.04h13.04v13.04v13.04V286.88z M286.88,247.76v39.12h-39.12v-13.04V260.8v-13.04    h13.04h13.04H286.88z M260.8,234.72h-19.56c-3.606,0-6.52,2.914-6.52,6.52v19.56H65.2v-19.56c0-3.606-2.914-6.52-6.52-6.52H39.12    V65.2h19.56c3.606,0,6.52-2.914,6.52-6.52V39.12h169.52v19.56c0,3.606,2.914,6.52,6.52,6.52h19.56V234.72z"
         id="path2"
         style="fill:#ffffff" /></g></g><g
     id="g8" /><g
     id="g10" /><g
     id="g12" /><g
     id="g14" /><g
     id="g16" /><g
     id="g18" /><g
     id="g20" /><g
     id="g22" /><g
     id="g24" /><g
     id="g26" /><g
     id="g28" /><g
     id="g30" /><g
     id="g32" /><g
     id="g34" /><g
     id="g36" /></svg>