<?xml version="1.0" standalone="no"?><!-- Generator: Gravit.io --><svg xmlns="http://www.w3.org/2000/svg" xmlns:xlink="http://www.w3.org/1999/xlink" style="isolation:isolate" viewBox="0 0 50 50" width="50" height="50"><defs><clipPath id="_clipPath_wYr9ByvJRrCcdzMaWan7VSYQ0qwxO0av"><rect width="50" height="50"/></clipPath></defs><g clip-path="url(#_clipPath_wYr9ByvJRrCcdzMaWan7VSYQ0qwxO0av)"><path d=" M 49.969 25.263 C 49.969 39.061 38.767 50.263 24.969 50.263 C 11.171 50.263 -0.031 39.061 -0.031 25.263 C -0.031 11.465 11.171 0.263 24.969 0.263 C 38.767 0.263 49.969 11.465 49.969 25.263 Z " fill="rgb(85,113,50)"/><path d=" M 36.079 24.799 C 34.782 26.127 32.969 26.94 30.969 26.94 C 26.967 26.94 23.719 23.691 23.719 19.69 C 23.719 17.689 24.531 15.876 25.859 14.58" fill="none" vector-effect="non-scaling-stroke" stroke-width="0.5" stroke="rgb(255,255,255)" stroke-linejoin="miter" stroke-linecap="square" stroke-miterlimit="3"/><path d=" M 37.46 13.889 C 37.46 14.27 37.15 14.58 36.769 14.58 C 36.388 14.58 36.079 14.27 36.079 13.889 C 36.079 13.508 36.388 13.199 36.769 13.199 C 37.15 13.199 37.46 13.508 37.46 13.889 Z " fill="rgb(255,255,255)"/><line x1="43.542" y1="32.263" x2="18.395" y2="7.116" vector-effect="non-scaling-stroke" stroke-width="0.5" stroke="rgb(255,255,255)" stroke-linejoin="miter" stroke-linecap="square" stroke-miterlimit="3"/><line x1="43.542" y1="32.263" x2="50" y2="25.806" vector-effect="non-scaling-stroke" stroke-width="0.5" stroke="rgb(255,255,255)" stroke-linejoin="miter" stroke-linecap="square" stroke-miterlimit="3"/><line x1="18.395" y1="7.116" x2="25.511" y2="0" vector-effect="non-scaling-stroke" stroke-width="0.5" stroke="rgb(255,255,255)" stroke-linejoin="miter" stroke-linecap="square" stroke-miterlimit="3"/></g></svg>