<?xml version="1.0" standalone="no"?><!-- Generator: Gravit.io --><svg xmlns="http://www.w3.org/2000/svg" xmlns:xlink="http://www.w3.org/1999/xlink" style="isolation:isolate" viewBox="0 0 50 50" width="50" height="50"><defs><clipPath id="_clipPath_vP1wDzntZKtdxGdP6hzLc66K2nC0qe71"><rect width="50" height="50"/></clipPath></defs><g clip-path="url(#_clipPath_vP1wDzntZKtdxGdP6hzLc66K2nC0qe71)"><path d=" M 0 25 C 0 11.202 11.202 0 25 0 C 38.798 0 50 11.202 50 25 C 50 38.798 38.798 50 25 50 C 11.202 50 0 38.798 0 25 Z " fill="rgb(85,113,50)"/><path d=" M 13.89 25.464 C 15.187 24.136 16.999 23.324 19 23.324 C 23.001 23.324 26.25 26.572 26.25 30.574 C 26.25 32.574 25.438 34.387 24.11 35.684" fill="none" vector-effect="non-scaling-stroke" stroke-width="0.5" stroke="rgb(255,255,255)" stroke-linejoin="miter" stroke-linecap="square" stroke-miterlimit="3"/><path d=" M 12.509 36.374 C 12.509 35.993 12.819 35.684 13.2 35.684 C 13.581 35.684 13.89 35.993 13.89 36.374 C 13.89 36.755 13.581 37.065 13.2 37.065 C 12.819 37.065 12.509 36.755 12.509 36.374 Z " fill="rgb(255,255,255)"/><line x1="6.426" y1="18" x2="31.574" y2="43.147" vector-effect="non-scaling-stroke" stroke-width="0.5" stroke="rgb(255,255,255)" stroke-linejoin="miter" stroke-linecap="square" stroke-miterlimit="3"/><line x1="6.426" y1="18" x2="-0.031" y2="24.458" vector-effect="non-scaling-stroke" stroke-width="0.5" stroke="rgb(255,255,255)" stroke-linejoin="miter" stroke-linecap="square" stroke-miterlimit="3"/><line x1="31.574" y1="43.147" x2="24.458" y2="50.263" vector-effect="non-scaling-stroke" stroke-width="0.5" stroke="rgb(255,255,255)" stroke-linejoin="miter" stroke-linecap="square" stroke-miterlimit="3"/></g></svg>