<?xml version="1.0" standalone="no"?><!-- Generator: Gravit.io --><svg xmlns="http://www.w3.org/2000/svg" xmlns:xlink="http://www.w3.org/1999/xlink" style="isolation:isolate" viewBox="0 0 25 25" width="25" height="25"><defs><clipPath id="_clipPath_MRFTUK1AIv0bET36zQShqyvA0ciKg4nx"><rect width="25" height="25"/></clipPath></defs><g clip-path="url(#_clipPath_MRFTUK1AIv0bET36zQShqyvA0ciKg4nx)"><polygon points="22.16,6.5,18.5,2.84,23.5,1.5" fill="rgb(0,0,0)"/><path d=" M 21.5 3.5 C 20.719 4.671 20.64 5.848 19.5 6.5 C 18.223 7.23 16.604 5.396 15.5 6.5 C 14.396 7.604 16.604 9.396 15.5 10.5 C 14.396 11.604 12.604 9.396 11.5 10.5 C 10.396 11.604 12.604 13.396 11.5 14.5 C 10.396 15.604 8.604 13.396 7.5 14.5 C 6.396 15.604 8.604 17.396 7.5 18.5 C 6.396 19.604 4.701 17.585 3.5 18.5 C 2.255 19.448 3.401 21.314 2.5 22.5 Q 2.198 22.897 1.5 23.5" fill="none" vector-effect="non-scaling-stroke" stroke-width="1" stroke="rgb(0,0,0)" stroke-linejoin="miter" stroke-linecap="square" stroke-miterlimit="3"/></g></svg>