<?xml version="1.0" standalone="no"?><!-- Generator: Gravit.io --><svg xmlns="http://www.w3.org/2000/svg" xmlns:xlink="http://www.w3.org/1999/xlink" style="isolation:isolate" viewBox="0 0 50 50" width="50" height="50"><defs><clipPath id="_clipPath_cEHp5zWlaad9XUFFmuzobtYeetqkgu2w"><rect width="50" height="50"/></clipPath></defs><g clip-path="url(#_clipPath_cEHp5zWlaad9XUFFmuzobtYeetqkgu2w)"><path d=" M 25 50 C 38.798 50 50 38.798 50 25 C 50 11.202 38.798 0 25 0 C 11.202 0 0 11.202 0 25 C 0 38.798 11.202 50 25 50 Z " fill="rgb(200,87,64)"/><path d=" M 42.789 42.843 C 42.843 38.275 41.102 33.706 37.62 30.224 C 30.655 23.259 19.345 23.259 12.38 30.224 C 8.898 33.706 7.157 38.275 7.211 42.843" fill="none" vector-effect="non-scaling-stroke" stroke-width="0.5" stroke="rgb(255,255,255)" stroke-linejoin="miter" stroke-linecap="square" stroke-miterlimit="3"/><path d=" M 25.488 42.062 C 25.758 41.792 25.758 41.355 25.488 41.085 C 25.219 40.816 24.781 40.816 24.512 41.085 C 24.242 41.355 24.242 41.792 24.512 42.062 C 24.781 42.331 25.219 42.331 25.488 42.062 Z " fill="rgb(255,255,255)"/></g></svg>