<?xml version="1.0" standalone="no"?><!-- Generator: Gravit.io --><svg xmlns="http://www.w3.org/2000/svg" xmlns:xlink="http://www.w3.org/1999/xlink" style="isolation:isolate" viewBox="0 0 50 50" width="50" height="50"><defs><clipPath id="_clipPath_1LPhIbOVeVNF1ERUtHHpKz0KPCrTwzw1"><rect width="50" height="50"/></clipPath></defs><g clip-path="url(#_clipPath_1LPhIbOVeVNF1ERUtHHpKz0KPCrTwzw1)"><path d=" M 0 25 C 0 11.202 11.202 0 25 0 C 38.798 0 50 11.202 50 25 C 50 38.798 38.798 50 25 50 C 11.202 50 0 38.798 0 25 Z " fill="rgb(200,87,64)"/><path d=" M 7.157 7.211 C 11.725 7.157 16.294 8.898 19.776 12.38 C 26.741 19.345 26.741 30.655 19.776 37.62 C 16.294 41.102 11.725 42.843 7.157 42.789" fill="none" vector-effect="non-scaling-stroke" stroke-width="0.5" stroke="rgb(255,255,255)" stroke-linejoin="miter" stroke-linecap="square" stroke-miterlimit="3"/><path d=" M 7.938 24.512 C 8.208 24.242 8.645 24.242 8.915 24.512 C 9.184 24.781 9.184 25.219 8.915 25.488 C 8.645 25.758 8.208 25.758 7.938 25.488 C 7.669 25.219 7.669 24.781 7.938 24.512 Z " fill="rgb(255,255,255)"/></g></svg>