<?xml version="1.0" standalone="no"?><!-- Generator: Gravit.io --><svg xmlns="http://www.w3.org/2000/svg" xmlns:xlink="http://www.w3.org/1999/xlink" style="isolation:isolate" viewBox="0 0 213.6 213.6" width="213.6" height="213.6"><g id="Group"><circle vector-effect="non-scaling-stroke" cx="0" cy="0" r="1" transform="matrix(106.811,0,0,106.811,106.8,106.8)" id="path3728" fill="rgb(59,164,226)"/><g id="Group"><g id="g4572"><path d=" M 119.122 173.696 C 103.988 172.879 87.566 167.476 75.619 159.383 L 73.565 157.991 L 73.565 137.298 C 73.565 123.672 73.699 115.958 73.957 114.711 C 75.316 108.147 80.477 102.654 87.118 100.703 C 89.958 99.869 124.139 99.85 127.328 100.681 C 130.435 101.49 132.772 102.879 135.417 105.488 C 137.81 107.849 138.795 109.408 140.151 112.979 C 140.89 114.925 140.906 115.484 141.017 143.513 C 141.079 159.216 141.001 172.187 140.845 172.338 C 140.435 172.734 131.917 173.686 127.519 173.826 C 125.456 173.892 121.677 173.833 119.122 173.696 L 119.122 173.696 Z  M 99.827 91.591 C 94.567 90.155 91.103 88.059 87.428 84.089 C 84.799 81.25 82.951 77.989 81.738 74.049 C 80.765 70.889 80.496 65.467 81.374 61.543 C 82.252 57.62 84.726 53.399 86.627 51.185 C 90.148 47.084 95.154 43.95 100.011 42.805 C 102.984 42.105 108.819 42.105 111.792 42.805 C 116.649 43.95 121.655 47.084 125.177 51.185 C 127.078 53.399 129.712 58.593 130.43 61.543 C 131.216 64.777 131.038 70.889 130.065 74.049 C 127.572 82.148 121.593 88.385 113.763 91.057 C 109.889 92.378 103.593 92.62 99.827 91.591 L 99.827 91.591 Z " id="path3726" fill="rgb(255,255,255)"/><path d=" M 65.03 146.733 C 61.27 145.261 54.383 141.737 51.604 139.863 L 49.638 138.538 L 49.64 119.958 L 49.642 101.378 L 50.469 99.327 C 52.142 95.171 55.604 91.714 59.736 90.07 C 61.686 89.294 62.329 89.247 72.802 89.125 L 83.818 88.996 L 85.844 90.913 C 86.959 91.967 88.395 93.198 89.036 93.647 C 89.677 94.097 90.123 94.592 90.027 94.748 C 89.93 94.904 89.192 95.137 88.386 95.265 C 82.083 96.273 75.03 101.888 71.771 108.492 C 69.22 113.66 69.125 114.518 69.118 132.375 C 69.113 144.646 69.016 148.004 68.665 147.994 C 68.419 147.987 66.783 147.419 65.03 146.733 L 65.03 146.733 Z  M 71.844 81.696 C 66.879 80.494 61.376 76.386 58.76 71.93 C 56.768 68.538 55.846 65.238 55.806 61.359 C 55.74 54.988 57.612 50.421 62.103 45.994 C 66.523 41.638 71.055 39.758 77.166 39.747 C 80.546 39.741 83.441 40.412 86.543 41.922 L 88.789 43.014 L 86.277 45.341 C 76.635 54.268 73.628 68.776 78.902 80.922 L 79.484 82.262 L 76.71 82.232 C 75.184 82.215 72.994 81.974 71.844 81.696 L 71.844 81.696 Z " id="path3726-3" fill="rgb(111,188,234)"/><path d=" M 145 137.171 C 144.994 113.825 145.003 113.929 142.458 108.77 C 139.227 102.224 132.796 97.225 125.532 95.613 C 123.638 95.193 125.052 95.146 137.681 95.207 C 151.585 95.274 152.026 95.297 153.938 96.077 C 157.903 97.694 161.346 101.137 162.963 105.102 C 163.763 107.064 163.765 107.101 163.863 131.972 L 163.962 156.876 L 162.791 157.079 C 158.902 157.751 155.972 157.971 150.812 157.977 L 145.005 157.984 L 145 137.171 Z  M 131.697 88.28 C 130.371 88.166 129.201 87.987 129.097 87.883 C 128.992 87.778 129.631 86.519 130.516 85.084 C 134.825 78.094 136.236 69.288 134.322 61.331 C 133.454 57.724 131.059 52.57 129.025 49.935 C 126.471 46.625 126.582 46.922 127.726 46.449 C 129.226 45.828 136.552 45.624 138.913 46.137 C 142.746 46.97 145.999 48.839 149.119 51.999 C 153.547 56.485 155.368 60.87 155.368 67.048 C 155.368 73.042 153.391 77.803 149.129 82.076 C 144.333 86.886 138.719 88.883 131.697 88.28 L 131.697 88.28 Z " id="path3726-6" fill="rgb(255,255,255)" fill-opacity="0.27"/></g><path d=" M 95.702 118.4 L 95.702 118.4 Q 94.252 118.4 93.074 117.739 L 93.074 117.739 L 93.074 117.739 Q 91.896 117.078 91.22 115.922 L 91.22 115.922 L 91.22 115.922 Q 90.545 114.765 90.545 113.329 L 90.545 113.329 L 90.545 113.329 Q 90.545 111.892 91.22 110.736 L 91.22 110.736 L 91.22 110.736 Q 91.896 109.58 93.074 108.919 L 93.074 108.919 L 93.074 108.919 Q 94.252 108.258 95.702 108.258 L 95.702 108.258 L 95.702 108.258 Q 96.722 108.258 97.606 108.581 L 97.606 108.581 L 97.606 108.581 Q 98.489 108.904 99.121 109.537 L 99.121 109.537 L 98.949 109.738 L 98.949 109.738 Q 97.685 108.531 95.702 108.531 L 95.702 108.531 L 95.702 108.531 Q 94.338 108.531 93.224 109.163 L 93.224 109.163 L 93.224 109.163 Q 92.111 109.795 91.472 110.894 L 91.472 110.894 L 91.472 110.894 Q 90.833 111.993 90.833 113.329 L 90.833 113.329 L 90.833 113.329 Q 90.833 114.665 91.472 115.764 L 91.472 115.764 L 91.472 115.764 Q 92.111 116.863 93.224 117.495 L 93.224 117.495 L 93.224 117.495 Q 94.338 118.127 95.702 118.127 L 95.702 118.127 L 95.702 118.127 Q 97.671 118.127 98.949 116.906 L 98.949 116.906 L 99.121 117.107 L 99.121 117.107 Q 98.489 117.739 97.599 118.07 L 97.599 118.07 L 97.599 118.07 Q 96.708 118.4 95.702 118.4 L 95.702 118.4 L 95.702 118.4 Z  M 111.49 108.301 L 111.734 108.301 L 111.734 118.357 L 111.447 118.357 L 111.447 108.919 L 106.864 116.935 L 106.692 116.935 L 102.109 108.948 L 102.109 118.357 L 101.822 118.357 L 101.822 108.301 L 102.066 108.301 L 106.778 116.547 L 111.49 108.301 L 111.49 108.301 Z  M 119.649 118.4 L 119.649 118.4 Q 118.199 118.4 117.021 117.739 L 117.021 117.739 L 117.021 117.739 Q 115.843 117.078 115.167 115.922 L 115.167 115.922 L 115.167 115.922 Q 114.492 114.765 114.492 113.329 L 114.492 113.329 L 114.492 113.329 Q 114.492 111.892 115.167 110.736 L 115.167 110.736 L 115.167 110.736 Q 115.843 109.58 117.021 108.919 L 117.021 108.919 L 117.021 108.919 Q 118.199 108.258 119.649 108.258 L 119.649 108.258 L 119.649 108.258 Q 120.669 108.258 121.553 108.581 L 121.553 108.581 L 121.553 108.581 Q 122.436 108.904 123.068 109.537 L 123.068 109.537 L 122.896 109.738 L 122.896 109.738 Q 121.632 108.531 119.649 108.531 L 119.649 108.531 L 119.649 108.531 Q 118.285 108.531 117.171 109.163 L 117.171 109.163 L 117.171 109.163 Q 116.058 109.795 115.419 110.894 L 115.419 110.894 L 115.419 110.894 Q 114.78 111.993 114.78 113.329 L 114.78 113.329 L 114.78 113.329 Q 114.78 114.665 115.419 115.764 L 115.419 115.764 L 115.419 115.764 Q 116.058 116.863 117.171 117.495 L 117.171 117.495 L 117.171 117.495 Q 118.285 118.127 119.649 118.127 L 119.649 118.127 L 119.649 118.127 Q 121.618 118.127 122.896 116.906 L 122.896 116.906 L 123.068 117.107 L 123.068 117.107 Q 122.436 117.739 121.546 118.07 L 121.546 118.07 L 121.546 118.07 Q 120.655 118.4 119.649 118.4 L 119.649 118.4 L 119.649 118.4 Z " fill-rule="evenodd" id="tspan4574" fill="rgb(116,200,249)"/></g></g></svg>