<?xml version="1.0" standalone="no"?><!-- Generator: Gravit.io --><svg xmlns="http://www.w3.org/2000/svg" xmlns:xlink="http://www.w3.org/1999/xlink" style="isolation:isolate" viewBox="0 0 50 50" width="50" height="50"><defs><clipPath id="_clipPath_7FtUdAHD7uRPrwYNgbfu3E95Myjmyr6j"><rect width="50" height="50"/></clipPath></defs><g clip-path="url(#_clipPath_7FtUdAHD7uRPrwYNgbfu3E95Myjmyr6j)"><path d=" M 25 50 C 38.798 50 50 38.798 50 25 C 50 11.202 38.798 0 25 0 C 11.202 0 0 11.202 0 25 C 0 38.798 11.202 50 25 50 Z " fill="rgb(247,186,89)"/><path d=" M 19.871 -0.375 C 17.041 2.454 17.041 7.049 19.871 9.878 C 22.7 12.707 27.294 12.707 30.124 9.878 C 32.953 7.049 32.953 2.454 30.124 -0.375 C 27.294 -3.205 22.7 -3.205 19.871 -0.375 Z " fill="none" vector-effect="non-scaling-stroke" stroke-width="0.5" stroke="rgb(255,255,255)" stroke-linejoin="miter" stroke-linecap="square" stroke-miterlimit="3"/><path d=" M 24.509 4.263 C 24.24 4.533 24.24 4.97 24.509 5.24 C 24.778 5.509 25.216 5.509 25.485 5.24 C 25.755 4.97 25.755 4.533 25.485 4.263 C 25.216 3.994 24.778 3.994 24.509 4.263 Z " fill="rgb(255,255,255)"/><line x1="0.26" y1="4.751" x2="49.74" y2="4.751" vector-effect="non-scaling-stroke" stroke-width="0.5" stroke="rgb(255,255,255)" stroke-linejoin="miter" stroke-linecap="square" stroke-miterlimit="3"/><path d=" M 42.789 42.843 C 42.843 38.275 41.102 33.706 37.62 30.224 C 30.655 23.259 19.345 23.259 12.38 30.224 C 8.898 33.706 7.157 38.275 7.211 42.843" fill="none" vector-effect="non-scaling-stroke" stroke-width="0.5" stroke="rgb(255,255,255)" stroke-linejoin="miter" stroke-linecap="square" stroke-miterlimit="3"/><path d=" M 25.488 42.062 C 25.758 41.792 25.758 41.355 25.488 41.085 C 25.219 40.816 24.781 40.816 24.512 41.085 C 24.242 41.355 24.242 41.792 24.512 42.062 C 24.781 42.331 25.219 42.331 25.488 42.062 Z " fill="rgb(255,255,255)"/></g></svg>