<?xml version="1.0" standalone="no"?><!-- Generator: Gravit.io --><svg xmlns="http://www.w3.org/2000/svg" xmlns:xlink="http://www.w3.org/1999/xlink" style="isolation:isolate" viewBox="0 0 50 50" width="50" height="50"><defs><clipPath id="_clipPath_N7LBYo51ZdME4nLQxahUHoo7CNiLIYDP"><rect width="50" height="50"/></clipPath></defs><g clip-path="url(#_clipPath_N7LBYo51ZdME4nLQxahUHoo7CNiLIYDP)"><path d=" M 50 25 C 50 38.798 38.798 50 25 50 C 11.202 50 0 38.798 0 25 C 0 11.202 11.202 0 25 0 C 38.798 0 50 11.202 50 25 Z " fill="rgb(247,186,89)"/><path d=" M -0.375 19.871 C 2.454 17.041 7.049 17.041 9.878 19.871 C 12.707 22.7 12.707 27.294 9.878 30.124 C 7.049 32.953 2.454 32.953 -0.375 30.124 C -3.205 27.294 -3.205 22.7 -0.375 19.871 Z " fill="none" vector-effect="non-scaling-stroke" stroke-width="0.5" stroke="rgb(255,255,255)" stroke-linejoin="miter" stroke-linecap="square" stroke-miterlimit="3"/><path d=" M 4.263 24.509 C 4.533 24.24 4.97 24.24 5.24 24.509 C 5.509 24.778 5.509 25.216 5.24 25.485 C 4.97 25.755 4.533 25.755 4.263 25.485 C 3.994 25.216 3.994 24.778 4.263 24.509 Z " fill="rgb(255,255,255)"/><line x1="4.751" y1="0.26" x2="4.751" y2="49.74" vector-effect="non-scaling-stroke" stroke-width="0.5" stroke="rgb(255,255,255)" stroke-linejoin="miter" stroke-linecap="square" stroke-miterlimit="3"/><path d=" M 42.843 42.789 C 38.275 42.843 33.706 41.102 30.224 37.62 C 23.259 30.655 23.259 19.345 30.224 12.38 C 33.706 8.898 38.275 7.157 42.843 7.211" fill="none" vector-effect="non-scaling-stroke" stroke-width="0.5" stroke="rgb(255,255,255)" stroke-linejoin="miter" stroke-linecap="square" stroke-miterlimit="3"/><path d=" M 42.062 25.488 C 41.792 25.758 41.355 25.758 41.085 25.488 C 40.816 25.219 40.816 24.781 41.085 24.512 C 41.355 24.242 41.792 24.242 42.062 24.512 C 42.331 24.781 42.331 25.219 42.062 25.488 Z " fill="rgb(255,255,255)"/></g></svg>