<?xml version="1.0" standalone="no"?><!-- Generator: Gravit.io --><svg xmlns="http://www.w3.org/2000/svg" xmlns:xlink="http://www.w3.org/1999/xlink" style="isolation:isolate" viewBox="0 0 35 35" width="35" height="35"><defs><clipPath id="_clipPath_lG7g5EUvf37PGRdJanPq3OIbGMrR37Zz"><rect width="35" height="35"/></clipPath></defs><g clip-path="url(#_clipPath_lG7g5EUvf37PGRdJanPq3OIbGMrR37Zz)"><path d=" M 2.5 17.5 C 2.5 9.221 9.221 2.5 17.5 2.5 C 25.779 2.5 32.5 9.221 32.5 17.5 C 32.5 25.779 25.779 32.5 17.5 32.5 C 9.221 32.5 2.5 25.779 2.5 17.5 Z " fill="rgb(255,255,255)"/><g id="53283"><g id="Group"><g id="Group"><path d=" M 28.104 6.892 C 26.727 5.515 25.123 4.435 23.336 3.678 C 21.486 2.897 19.523 2.5 17.497 2.5 C 15.474 2.503 13.511 2.897 11.661 3.682 C 9.874 4.438 8.27 5.519 6.893 6.896 C 5.516 8.273 4.435 9.876 3.679 11.663 C 2.897 13.512 2.5 15.476 2.5 17.502 C 2.5 19.525 2.897 21.491 3.679 23.34 C 4.435 25.127 5.516 26.731 6.893 28.108 C 8.27 29.485 9.874 30.565 11.661 31.322 C 13.511 32.103 15.474 32.5 17.5 32.5 C 19.523 32.5 21.49 32.103 23.339 31.322 C 25.126 30.565 26.73 29.485 28.107 28.108 C 29.484 26.731 30.565 25.127 31.321 23.34 C 32.103 21.491 32.5 19.528 32.5 17.502 C 32.5 15.479 32.103 13.512 31.321 11.663 C 30.562 9.873 29.481 8.273 28.104 6.892 Z  M 9.196 5.887 C 9.332 5.783 9.464 5.673 9.603 5.575 C 10.331 5.065 11.138 4.652 11.957 4.309 C 13.703 3.578 15.6 3.193 17.497 3.193 C 18.761 3.193 20.056 3.363 21.275 3.697 C 20.793 3.893 20.204 4.265 19.214 5.109 C 18.392 5.021 17.56 5.018 16.725 5.096 C 15.634 5.2 14.538 5.443 13.466 5.821 C 12.499 6.161 11.733 6.549 11.216 6.845 C 10.425 6.562 9.404 6.228 8.9 6.064 C 8.979 6.089 9.143 5.928 9.196 5.887 Z  M 22.86 9.637 L 20.295 16.638 L 14.141 17.82 L 9.055 12.567 C 9.398 10.185 11.03 8.074 11.03 8.074 C 11.04 8.068 12.105 7.299 13.813 6.703 C 14.809 6.354 15.824 6.13 16.835 6.035 C 17.661 5.96 18.483 5.972 19.296 6.07 L 22.86 9.637 Z  M 3.738 17.001 C 3.581 18.018 3.546 19.074 3.628 20.136 C 3.505 19.89 3.408 19.682 3.335 19.515 C 3.241 18.857 3.193 18.182 3.193 17.495 C 3.193 15.384 3.65 13.377 4.473 11.572 C 4.381 12.517 4.425 13.497 4.492 14.24 C 4.139 15.126 3.887 16.049 3.738 17.001 Z  M 4.983 22.455 C 4.838 21.922 4.668 21.147 4.583 20.218 C 4.488 19.168 4.517 18.125 4.674 17.127 C 4.794 16.361 4.986 15.617 5.251 14.902 C 6.288 14.026 7.662 13.512 8.421 13.276 L 13.413 18.431 L 12.89 24.081 L 8.012 25.71 C 6.77 24.796 5.755 23.586 4.983 22.455 Z  M 19.807 30.635 C 18.72 31.347 15.972 31.517 14.856 31.558 C 13.627 31.328 12.433 30.934 11.308 30.392 C 10.325 29.919 9.392 29.333 8.541 28.646 C 8.557 28.618 8.409 27.115 8.415 26.567 L 13.343 24.922 L 19.031 27.383 L 19.816 30.625 C 19.81 30.632 19.807 30.635 19.807 30.635 Z  M 29.257 25.647 C 28.41 26.869 27.395 28.007 26.175 28.87 C 25.032 29.677 23.5 29.954 22.139 30.178 C 22.035 30.194 20.733 30.408 20.724 30.364 L 19.939 27.118 L 23.944 22.95 L 29.248 22.461 C 29.33 23.306 29.437 24.538 29.5 25.291 C 29.418 25.41 29.339 25.53 29.257 25.647 Z  M 29.339 21.406 C 29.32 21.437 29.301 21.472 29.283 21.51 L 24.001 21.995 L 21.159 17.023 L 23.73 10.006 L 27.36 10.236 C 28.132 10.881 28.816 11.6 29.396 12.375 C 30.121 13.349 30.685 14.417 31.069 15.548 C 30.666 19.052 29.736 20.797 29.339 21.406 Z  M 31.233 13.522 C 30.921 12.92 30.556 12.34 30.143 11.789 C 29.491 10.916 28.715 10.113 27.836 9.397 C 27.675 8.6 27.234 7.346 26.049 6.029 C 26.071 6.045 26.093 6.064 26.116 6.079 C 26.188 6.133 26.257 6.19 26.33 6.243 C 27.146 6.886 27.89 7.614 28.548 8.414 C 29.771 9.905 30.694 11.635 31.236 13.49 C 31.233 13.503 31.233 13.512 31.233 13.522 Z " fill="rgb(0,0,0)"/></g></g></g></g></svg>