<?xml version="1.0" standalone="no"?><!-- Generator: Gravit.io --><svg xmlns="http://www.w3.org/2000/svg" xmlns:xlink="http://www.w3.org/1999/xlink" style="isolation:isolate" viewBox="0 0 300 250" width="300" height="250"><defs><clipPath id="_clipPath_k5cFNFByJdE5qwM1UFIa5PTLI7bY3LAH"><rect width="300" height="250"/></clipPath></defs><g clip-path="url(#_clipPath_k5cFNFByJdE5qwM1UFIa5PTLI7bY3LAH)"><path d=" M 22.246 35.66 L 251.799 149.793 L 233.45 244.459 L 6.258 123.994 L 22.246 35.66 Z " fill="rgb(255,255,255)" fill-opacity="0.3"/><path d=" M 293.983 118.573 L 251.799 149.793 L 233.45 244.459 L 293.983 198.226 L 293.983 118.573 Z " fill="rgb(255,255,255)" fill-opacity="0.3"/><path d=" M 293.983 118.573 L 251.799 149.793 L 23.648 34.403 L 65.304 5 L 293.983 118.573 Z " fill="rgb(255,255,255)" fill-opacity="0.3"/><path d=" M 22.246 35.66 L 65.304 6.128 L 65.304 79.734 L 6.258 123.994 L 22.246 35.66 Z " fill="rgb(255,255,255)" fill-opacity="0.3"/><line x1="22.246" y1="34.403" x2="65.304" y2="5.068" vector-effect="non-scaling-stroke" stroke-width="3.01" stroke="rgb(0,0,0)" stroke-linejoin="miter" stroke-linecap="square" stroke-miterlimit="3"/><line x1="252.84" y1="149.793" x2="294.783" y2="118.573" vector-effect="non-scaling-stroke" stroke-width="3.01" stroke="rgb(0,0,0)" stroke-linejoin="miter" stroke-linecap="square" stroke-miterlimit="3"/><line x1="66.235" y1="5" x2="293.207" y2="117.702" vector-effect="non-scaling-stroke" stroke-width="3.01" stroke="rgb(0,0,0)" stroke-linejoin="miter" stroke-linecap="square" stroke-miterlimit="3"/><line x1="23.648" y1="35.66" x2="251.799" y2="149.854" vector-effect="non-scaling-stroke" stroke-width="3.01" stroke="rgb(0,0,0)" stroke-linejoin="miter" stroke-linecap="square" stroke-miterlimit="3"/><line x1="65.304" y1="79.734" x2="65.304" y2="6.128" vector-effect="non-scaling-stroke" stroke-width="3.01" stroke="rgb(0,0,0)" stroke-linejoin="miter" stroke-linecap="square" stroke-miterlimit="3"/><line x1="294.783" y1="198.92" x2="294.783" y2="119.687" vector-effect="non-scaling-stroke" stroke-width="3.01" stroke="rgb(0,0,0)" stroke-linejoin="miter" stroke-linecap="square" stroke-miterlimit="3"/><line x1="22.246" y1="35.66" x2="5.217" y2="124.593" vector-effect="non-scaling-stroke" stroke-width="3.01" stroke="rgb(0,0,0)" stroke-linejoin="miter" stroke-linecap="square" stroke-miterlimit="3"/><line x1="64.667" y1="80.585" x2="6.258" y2="123.994" vector-effect="non-scaling-stroke" stroke-width="3.01" stroke="rgb(0,0,0)" stroke-linejoin="miter" stroke-linecap="square" stroke-miterlimit="3"/><line x1="252.84" y1="149.854" x2="233.991" y2="245" vector-effect="non-scaling-stroke" stroke-width="3.01" stroke="rgb(0,0,0)" stroke-linejoin="miter" stroke-linecap="square" stroke-miterlimit="3"/><line x1="293.983" y1="198.226" x2="234.508" y2="244.483" vector-effect="non-scaling-stroke" stroke-width="3.01" stroke="rgb(0,0,0)" stroke-linejoin="miter" stroke-linecap="square" stroke-miterlimit="3"/><line x1="5.722" y1="124.908" x2="233.45" y2="244.459" vector-effect="non-scaling-stroke" stroke-width="3.01" stroke="rgb(0,0,0)" stroke-linejoin="miter" stroke-linecap="square" stroke-miterlimit="3"/></g></svg>