<?xml version="1.0" standalone="no"?><!-- Generator: Gravit.io --><svg xmlns="http://www.w3.org/2000/svg" xmlns:xlink="http://www.w3.org/1999/xlink" style="isolation:isolate" viewBox="0 0 31 31" width="31" height="31"><defs><clipPath id="_clipPath_9s60BKynafwQUDWDsFnY74697xFI4zr6"><rect width="31" height="31"/></clipPath></defs><g clip-path="url(#_clipPath_9s60BKynafwQUDWDsFnY74697xFI4zr6)"><path d=" M 6.48 15.5 C 6.48 10.522 10.522 6.48 15.5 6.48 C 20.478 6.48 24.52 10.522 24.52 15.5 C 24.52 20.478 20.478 24.52 15.5 24.52 C 10.522 24.52 6.48 20.478 6.48 15.5 Z " fill="none" vector-effect="non-scaling-stroke" stroke-width="7.959" stroke="rgb(231,76,60)" stroke-linejoin="miter" stroke-linecap="square" stroke-miterlimit="3"/><path d=" M 2.5 15.5 C 2.5 8.325 8.325 2.5 15.5 2.5 C 22.675 2.5 28.5 8.325 28.5 15.5 C 28.5 22.675 22.675 28.5 15.5 28.5 C 8.325 28.5 2.5 22.675 2.5 15.5 Z " fill="none" vector-effect="non-scaling-stroke" stroke-width="0.5" stroke="rgb(0,0,0)" stroke-linejoin="miter" stroke-linecap="square" stroke-miterlimit="3"/><path d=" M 10.459 15.5 C 10.459 12.718 12.718 10.459 15.5 10.459 C 18.282 10.459 20.541 12.718 20.541 15.5 C 20.541 18.282 18.282 20.541 15.5 20.541 C 12.718 20.541 10.459 18.282 10.459 15.5 Z " fill="none" vector-effect="non-scaling-stroke" stroke-width="0.5" stroke="rgb(0,0,0)" stroke-linejoin="miter" stroke-linecap="square" stroke-miterlimit="3"/><path d=" M 6.48 15.5 C 6.48 10.522 10.522 6.48 15.5 6.48 C 20.478 6.48 24.52 10.522 24.52 15.5 C 24.52 20.478 20.478 24.52 15.5 24.52 C 10.522 24.52 6.48 20.478 6.48 15.5 Z " fill="none" vector-effect="non-scaling-stroke" stroke-width="0.5" stroke="rgb(0,0,0)" stroke-linejoin="miter" stroke-linecap="square" stroke-miterlimit="3"/></g></svg>