<?xml version="1.0" standalone="no"?><!-- Generator: Gravit.io --><svg xmlns="http://www.w3.org/2000/svg" xmlns:xlink="http://www.w3.org/1999/xlink" style="isolation:isolate" viewBox="0 0 67 30" width="67" height="30"><defs><clipPath id="_clipPath_lAjAcSmh6i9YIhQN8cKhvhVgmVhqfNPs"><rect width="67" height="30"/></clipPath></defs><g clip-path="url(#_clipPath_lAjAcSmh6i9YIhQN8cKhvhVgmVhqfNPs)"><rect x="2.5" y="2" width="8.68" height="26" transform="matrix(1,0,0,1,0,0)" fill="rgb(46,204,113)"/><rect x="55.82" y="2" width="8.68" height="26" transform="matrix(1,0,0,1,0,0)" fill="rgb(46,204,113)"/><rect x="29.132" y="-15.952" width="8.736" height="44.64" transform="matrix(0,1,-1,0,39.868,-27.132)" fill="rgb(46,204,113)"/><line x1="2.5" y1="2" x2="64.5" y2="2" vector-effect="non-scaling-stroke" stroke-width="0.5" stroke="rgb(0,0,0)" stroke-linejoin="miter" stroke-linecap="square" stroke-miterlimit="3"/><line x1="64.5" y1="2" x2="64.5" y2="28" vector-effect="non-scaling-stroke" stroke-width="0.5" stroke="rgb(0,0,0)" stroke-linejoin="miter" stroke-linecap="square" stroke-miterlimit="3"/><line x1="64.5" y1="28" x2="55.82" y2="28" vector-effect="non-scaling-stroke" stroke-width="0.5" stroke="rgb(0,0,0)" stroke-linejoin="miter" stroke-linecap="square" stroke-miterlimit="3"/><line x1="55.82" y1="28" x2="55.82" y2="10.736" vector-effect="non-scaling-stroke" stroke-width="0.5" stroke="rgb(0,0,0)" stroke-linejoin="miter" stroke-linecap="square" stroke-miterlimit="3"/><line x1="55.82" y1="10.736" x2="11.18" y2="10.736" vector-effect="non-scaling-stroke" stroke-width="0.5" stroke="rgb(0,0,0)" stroke-linejoin="miter" stroke-linecap="square" stroke-miterlimit="3"/><line x1="2.5" y1="2" x2="2.5" y2="28" vector-effect="non-scaling-stroke" stroke-width="0.5" stroke="rgb(0,0,0)" stroke-linejoin="miter" stroke-linecap="square" stroke-miterlimit="3"/><line x1="2.5" y1="28" x2="11.18" y2="28" vector-effect="non-scaling-stroke" stroke-width="0.5" stroke="rgb(0,0,0)" stroke-linejoin="miter" stroke-linecap="square" stroke-miterlimit="3"/><line x1="11.18" y1="28" x2="11.18" y2="10.736" vector-effect="non-scaling-stroke" stroke-width="0.5" stroke="rgb(0,0,0)" stroke-linejoin="miter" stroke-linecap="square" stroke-miterlimit="3"/></g></svg>