<?xml version="1.0" standalone="no"?><!-- Generator: Gravit.io --><svg xmlns="http://www.w3.org/2000/svg" xmlns:xlink="http://www.w3.org/1999/xlink" style="isolation:isolate" viewBox="0 0 170 95" width="170" height="95"><defs><clipPath id="_clipPath_aCRPmqz7kC1IWSCCCmWI8SeknMK0U9oR"><rect width="170" height="95"/></clipPath></defs><g clip-path="url(#_clipPath_aCRPmqz7kC1IWSCCCmWI8SeknMK0U9oR)"><rect x="156.471" y="88.382" width="10.588" height="4.118" transform="matrix(1,0,0,1,0,0)" fill="rgb(0,0,0)"/><rect x="2.941" y="88.382" width="10.588" height="4.118" transform="matrix(1,0,0,1,0,0)" fill="rgb(0,0,0)"/><line x1="10.882" y1="17.794" x2="159.118" y2="17.794" vector-effect="non-scaling-stroke" stroke-width="1.765" stroke="rgb(46,204,113)" stroke-linejoin="miter" stroke-linecap="square" stroke-miterlimit="3"/><line x1="10.882" y1="24.853" x2="159.118" y2="24.853" vector-effect="non-scaling-stroke" stroke-width="1.765" stroke="rgb(46,204,113)" stroke-linejoin="miter" stroke-linecap="square" stroke-miterlimit="3"/><line x1="10.882" y1="31.912" x2="159.118" y2="31.912" vector-effect="non-scaling-stroke" stroke-width="1.765" stroke="rgb(46,204,113)" stroke-linejoin="miter" stroke-linecap="square" stroke-miterlimit="3"/><line x1="10.882" y1="38.971" x2="159.118" y2="38.971" vector-effect="non-scaling-stroke" stroke-width="1.765" stroke="rgb(46,204,113)" stroke-linejoin="miter" stroke-linecap="square" stroke-miterlimit="3"/><line x1="10.882" y1="45.441" x2="159.118" y2="45.441" vector-effect="non-scaling-stroke" stroke-width="1.765" stroke="rgb(46,204,113)" stroke-linejoin="miter" stroke-linecap="square" stroke-miterlimit="3"/><line x1="10.882" y1="53.088" x2="159.118" y2="53.088" vector-effect="non-scaling-stroke" stroke-width="1.765" stroke="rgb(46,204,113)" stroke-linejoin="miter" stroke-linecap="square" stroke-miterlimit="3"/><line x1="10.882" y1="60.147" x2="159.118" y2="60.147" vector-effect="non-scaling-stroke" stroke-width="1.765" stroke="rgb(46,204,113)" stroke-linejoin="miter" stroke-linecap="square" stroke-miterlimit="3"/><line x1="17.941" y1="10.735" x2="17.941" y2="67.206" vector-effect="non-scaling-stroke" stroke-width="1.765" stroke="rgb(46,204,113)" stroke-linejoin="miter" stroke-linecap="square" stroke-miterlimit="3"/><line x1="25" y1="10.735" x2="25" y2="67.206" vector-effect="non-scaling-stroke" stroke-width="1.765" stroke="rgb(46,204,113)" stroke-linejoin="miter" stroke-linecap="square" stroke-miterlimit="3"/><line x1="32.059" y1="10.735" x2="32.059" y2="67.206" vector-effect="non-scaling-stroke" stroke-width="1.765" stroke="rgb(46,204,113)" stroke-linejoin="miter" stroke-linecap="square" stroke-miterlimit="3"/><line x1="39.118" y1="10.735" x2="39.118" y2="67.206" vector-effect="non-scaling-stroke" stroke-width="1.765" stroke="rgb(46,204,113)" stroke-linejoin="miter" stroke-linecap="square" stroke-miterlimit="3"/><line x1="46.176" y1="10.735" x2="46.176" y2="67.206" vector-effect="non-scaling-stroke" stroke-width="1.765" stroke="rgb(46,204,113)" stroke-linejoin="miter" stroke-linecap="square" stroke-miterlimit="3"/><line x1="53.235" y1="10.735" x2="53.235" y2="67.206" vector-effect="non-scaling-stroke" stroke-width="1.765" stroke="rgb(46,204,113)" stroke-linejoin="miter" stroke-linecap="square" stroke-miterlimit="3"/><line x1="60.294" y1="10.735" x2="60.294" y2="67.206" vector-effect="non-scaling-stroke" stroke-width="1.765" stroke="rgb(46,204,113)" stroke-linejoin="miter" stroke-linecap="square" stroke-miterlimit="3"/><line x1="67.353" y1="10.735" x2="67.353" y2="67.206" vector-effect="non-scaling-stroke" stroke-width="1.765" stroke="rgb(46,204,113)" stroke-linejoin="miter" stroke-linecap="square" stroke-miterlimit="3"/><line x1="74.412" y1="10.735" x2="74.412" y2="67.206" vector-effect="non-scaling-stroke" stroke-width="1.765" stroke="rgb(46,204,113)" stroke-linejoin="miter" stroke-linecap="square" stroke-miterlimit="3"/><line x1="81.471" y1="10.735" x2="81.471" y2="67.206" vector-effect="non-scaling-stroke" stroke-width="1.765" stroke="rgb(46,204,113)" stroke-linejoin="miter" stroke-linecap="square" stroke-miterlimit="3"/><line x1="88.529" y1="10.735" x2="88.529" y2="67.206" vector-effect="non-scaling-stroke" stroke-width="1.765" stroke="rgb(46,204,113)" stroke-linejoin="miter" stroke-linecap="square" stroke-miterlimit="3"/><line x1="95.588" y1="10.735" x2="95.588" y2="67.206" vector-effect="non-scaling-stroke" stroke-width="1.765" stroke="rgb(46,204,113)" stroke-linejoin="miter" stroke-linecap="square" stroke-miterlimit="3"/><line x1="102.647" y1="10.735" x2="102.647" y2="67.206" vector-effect="non-scaling-stroke" stroke-width="1.765" stroke="rgb(46,204,113)" stroke-linejoin="miter" stroke-linecap="square" stroke-miterlimit="3"/><line x1="109.706" y1="10.735" x2="109.706" y2="67.206" vector-effect="non-scaling-stroke" stroke-width="1.765" stroke="rgb(46,204,113)" stroke-linejoin="miter" stroke-linecap="square" stroke-miterlimit="3"/><line x1="116.765" y1="10.735" x2="116.765" y2="67.206" vector-effect="non-scaling-stroke" stroke-width="1.765" stroke="rgb(46,204,113)" stroke-linejoin="miter" stroke-linecap="square" stroke-miterlimit="3"/><line x1="123.824" y1="10.735" x2="123.824" y2="67.206" vector-effect="non-scaling-stroke" stroke-width="1.765" stroke="rgb(46,204,113)" stroke-linejoin="miter" stroke-linecap="square" stroke-miterlimit="3"/><line x1="130.882" y1="10.735" x2="130.882" y2="67.206" vector-effect="non-scaling-stroke" stroke-width="1.765" stroke="rgb(46,204,113)" stroke-linejoin="miter" stroke-linecap="square" stroke-miterlimit="3"/><line x1="137.941" y1="10.735" x2="137.941" y2="67.206" vector-effect="non-scaling-stroke" stroke-width="1.765" stroke="rgb(46,204,113)" stroke-linejoin="miter" stroke-linecap="square" stroke-miterlimit="3"/><line x1="145" y1="10.735" x2="145" y2="67.206" vector-effect="non-scaling-stroke" stroke-width="1.765" stroke="rgb(46,204,113)" stroke-linejoin="miter" stroke-linecap="square" stroke-miterlimit="3"/><line x1="152.059" y1="10.735" x2="152.059" y2="67.206" vector-effect="non-scaling-stroke" stroke-width="1.765" stroke="rgb(46,204,113)" stroke-linejoin="miter" stroke-linecap="square" stroke-miterlimit="3"/><rect x="5.588" y="2.5" width="5.294" height="85.882" transform="matrix(1,0,0,1,0,0)" fill="rgb(0,0,0)"/><rect x="159.118" y="2.5" width="5.294" height="85.882" transform="matrix(1,0,0,1,0,0)" fill="rgb(0,0,0)"/><rect x="10.882" y="5.441" width="148.235" height="5.294" transform="matrix(1,0,0,1,0,0)" fill="rgb(46,204,113)"/><rect x="10.882" y="67.206" width="148.235" height="5.294" transform="matrix(1,0,0,1,0,0)" fill="rgb(46,204,113)"/></g></svg>