<?xml version="1.0" standalone="no"?><!-- Generator: Gravit.io --><svg xmlns="http://www.w3.org/2000/svg" xmlns:xlink="http://www.w3.org/1999/xlink" style="isolation:isolate" viewBox="0 0 240 55" width="240" height="55"><defs><clipPath id="_clipPath_lD3qyhb8tiQPMxiGvjaN4StzlohGIOnI"><rect width="240" height="55"/></clipPath></defs><g clip-path="url(#_clipPath_lD3qyhb8tiQPMxiGvjaN4StzlohGIOnI)"><path d=" M 19.492 43.628 C 19.492 40.111 25.578 37.256 33.073 37.256 C 40.569 37.256 46.655 40.111 46.655 43.628 C 46.655 47.145 40.569 50 33.073 50 C 25.578 50 19.492 47.145 19.492 43.628 Z " fill="rgb(52,152,219)" vector-effect="non-scaling-stroke" stroke-width="0.5" stroke="rgb(0,0,0)" stroke-linejoin="miter" stroke-linecap="square" stroke-miterlimit="3"/><path d=" M 26.283 38.105 C 26.283 33.889 28.945 30.465 32.225 30.465 C 35.504 30.465 38.166 33.889 38.166 38.105 C 38.166 42.321 35.504 45.745 32.225 45.745 C 28.945 45.745 26.283 42.321 26.283 38.105 Z " fill="rgb(52,152,219)"/><path d=" M 33.073 45.734 C 38.636 45.873 40.909 43.928 44.957 42.338 C 48.685 40.874 51.966 39.729 55.143 37.256 C 57.148 35.696 58.983 34.39 60.236 32.152 C 61.453 29.981 62.056 26.63 61.934 25.361 C 61.812 24.093 61.916 22.711 60.236 20.268 C 58.557 17.825 56.312 17.683 53.446 16.364 Q 50.579 15.044 43.26 13.477" fill="rgb(52,152,219)" vector-effect="non-scaling-stroke" stroke-width="0.5" stroke="rgb(0,0,0)" stroke-linejoin="miter" stroke-linecap="square" stroke-miterlimit="3"/><path d=" M 32.776 45.745 C 27.213 45.884 24.929 43.972 20.892 42.349 C 17.26 40.89 14.142 39.616 11.003 37.256 C 8.916 35.687 6.928 34.456 5.613 32.163 C 4.373 30.003 3.793 26.641 3.915 25.372 C 4.037 24.104 3.933 22.723 5.613 20.279 C 7.292 17.836 9.537 17.694 12.403 16.375 Q 15.27 15.055 22.59 13.488" fill="rgb(52,152,219)" vector-effect="non-scaling-stroke" stroke-width="0.5" stroke="rgb(0,0,0)" stroke-linejoin="miter" stroke-linecap="square" stroke-miterlimit="3"/><path d=" M 20.341 20.279 C 20.341 11.846 26.046 5 33.073 5 C 40.101 5 45.806 11.846 45.806 20.279 C 45.806 28.712 40.101 35.558 33.073 35.558 C 26.046 35.558 20.341 28.712 20.341 20.279 Z " fill="rgb(52,152,219)" vector-effect="non-scaling-stroke" stroke-width="0.5" stroke="rgb(0,0,0)" stroke-linejoin="miter" stroke-linecap="square" stroke-miterlimit="3"/><path d=" M 77.542 43.628 C 77.542 40.111 83.628 37.256 91.124 37.256 C 98.62 37.256 104.705 40.111 104.705 43.628 C 104.705 47.145 98.62 50 91.124 50 C 83.628 50 77.542 47.145 77.542 43.628 Z " fill="rgb(52,152,219)" vector-effect="non-scaling-stroke" stroke-width="0.5" stroke="rgb(0,0,0)" stroke-linejoin="miter" stroke-linecap="square" stroke-miterlimit="3"/><path d=" M 84.333 38.105 C 84.333 33.889 86.996 30.465 90.275 30.465 C 93.554 30.465 96.217 33.889 96.217 38.105 C 96.217 42.321 93.554 45.745 90.275 45.745 C 86.996 45.745 84.333 42.321 84.333 38.105 Z " fill="rgb(52,152,219)"/><path d=" M 91.124 45.734 C 96.687 45.873 98.96 43.928 103.008 42.338 C 106.735 40.874 110.016 39.729 113.194 37.256 C 115.199 35.696 117.033 34.39 118.287 32.152 C 119.503 29.981 120.106 26.63 119.985 25.361 C 119.863 24.093 119.966 22.711 118.287 20.268 C 116.608 17.825 114.363 17.683 111.496 16.364 Q 108.629 15.044 101.31 13.477" fill="rgb(52,152,219)" vector-effect="non-scaling-stroke" stroke-width="0.5" stroke="rgb(0,0,0)" stroke-linejoin="miter" stroke-linecap="square" stroke-miterlimit="3"/><path d=" M 90.826 45.745 C 85.263 45.884 82.979 43.972 78.942 42.349 C 75.311 40.89 72.193 39.616 69.054 37.256 C 66.967 35.687 64.979 34.456 63.663 32.163 C 62.423 30.003 61.844 26.641 61.965 25.372 C 62.087 24.104 61.984 22.723 63.663 20.279 C 65.342 17.836 67.587 17.694 70.454 16.375 Q 73.321 15.055 80.64 13.488" fill="rgb(52,152,219)" vector-effect="non-scaling-stroke" stroke-width="0.5" stroke="rgb(0,0,0)" stroke-linejoin="miter" stroke-linecap="square" stroke-miterlimit="3"/><path d=" M 78.391 20.279 C 78.391 11.846 84.096 5 91.124 5 C 98.151 5 103.856 11.846 103.856 20.279 C 103.856 28.712 98.151 35.558 91.124 35.558 C 84.096 35.558 78.391 28.712 78.391 20.279 Z " fill="rgb(52,152,219)" vector-effect="non-scaling-stroke" stroke-width="0.5" stroke="rgb(0,0,0)" stroke-linejoin="miter" stroke-linecap="square" stroke-miterlimit="3"/><path d=" M 135.593 43.628 C 135.593 40.111 141.678 37.256 149.174 37.256 C 156.67 37.256 162.756 40.111 162.756 43.628 C 162.756 47.145 156.67 50 149.174 50 C 141.678 50 135.593 47.145 135.593 43.628 Z " fill="rgb(52,152,219)" vector-effect="non-scaling-stroke" stroke-width="0.5" stroke="rgb(0,0,0)" stroke-linejoin="miter" stroke-linecap="square" stroke-miterlimit="3"/><path d=" M 142.383 38.105 C 142.383 33.889 145.046 30.465 148.325 30.465 C 151.605 30.465 154.267 33.889 154.267 38.105 C 154.267 42.321 151.605 45.745 148.325 45.745 C 145.046 45.745 142.383 42.321 142.383 38.105 Z " fill="rgb(52,152,219)"/><path d=" M 149.174 45.734 C 154.737 45.873 157.01 43.928 161.058 42.338 C 164.786 40.874 168.067 39.729 171.244 37.256 C 173.249 35.696 175.084 34.39 176.337 32.152 C 177.553 29.981 178.157 26.63 178.035 25.361 C 177.913 24.093 178.017 22.711 176.337 20.268 C 174.658 17.825 172.413 17.683 169.547 16.364 Q 166.68 15.044 159.36 13.477" fill="rgb(52,152,219)" vector-effect="non-scaling-stroke" stroke-width="0.5" stroke="rgb(0,0,0)" stroke-linejoin="miter" stroke-linecap="square" stroke-miterlimit="3"/><path d=" M 148.877 45.745 C 143.314 45.884 141.029 43.972 136.993 42.349 C 133.361 40.89 130.243 39.616 127.104 37.256 C 125.017 35.687 123.029 34.456 121.714 32.163 C 120.474 30.003 119.894 26.641 120.016 25.372 C 120.138 24.104 120.034 22.723 121.714 20.279 C 123.393 17.836 125.638 17.694 128.504 16.375 Q 131.371 15.055 138.691 13.488" fill="rgb(52,152,219)" vector-effect="non-scaling-stroke" stroke-width="0.5" stroke="rgb(0,0,0)" stroke-linejoin="miter" stroke-linecap="square" stroke-miterlimit="3"/><path d=" M 136.442 20.279 C 136.442 11.846 142.147 5 149.174 5 C 156.202 5 161.907 11.846 161.907 20.279 C 161.907 28.712 156.202 35.558 149.174 35.558 C 142.147 35.558 136.442 28.712 136.442 20.279 Z " fill="rgb(52,152,219)" vector-effect="non-scaling-stroke" stroke-width="0.5" stroke="rgb(0,0,0)" stroke-linejoin="miter" stroke-linecap="square" stroke-miterlimit="3"/><path d=" M 193.643 43.628 C 193.643 40.111 199.729 37.256 207.225 37.256 C 214.721 37.256 220.806 40.111 220.806 43.628 C 220.806 47.145 214.721 50 207.225 50 C 199.729 50 193.643 47.145 193.643 43.628 Z " fill="rgb(52,152,219)" vector-effect="non-scaling-stroke" stroke-width="0.5" stroke="rgb(0,0,0)" stroke-linejoin="miter" stroke-linecap="square" stroke-miterlimit="3"/><path d=" M 200.434 38.105 C 200.434 33.889 203.096 30.465 206.376 30.465 C 209.655 30.465 212.318 33.889 212.318 38.105 C 212.318 42.321 209.655 45.745 206.376 45.745 C 203.096 45.745 200.434 42.321 200.434 38.105 Z " fill="rgb(52,152,219)"/><path d=" M 207.225 45.734 C 212.788 45.873 215.06 43.928 219.109 42.338 C 222.836 40.874 226.117 39.729 229.295 37.256 C 231.299 35.696 233.134 34.39 234.388 32.152 C 235.604 29.981 236.207 26.63 236.085 25.361 C 235.964 24.093 236.067 22.711 234.388 20.268 C 232.708 17.825 230.464 17.683 227.597 16.364 Q 224.73 15.044 217.411 13.477" fill="rgb(52,152,219)" vector-effect="non-scaling-stroke" stroke-width="0.5" stroke="rgb(0,0,0)" stroke-linejoin="miter" stroke-linecap="square" stroke-miterlimit="3"/><path d=" M 206.927 45.745 C 201.364 45.884 199.08 43.972 195.043 42.349 C 191.412 40.89 188.294 39.616 185.155 37.256 C 183.067 35.687 181.08 34.456 179.764 32.163 C 178.524 30.003 177.945 26.641 178.066 25.372 C 178.188 24.104 178.085 22.723 179.764 20.279 C 181.443 17.836 183.688 17.694 186.555 16.375 Q 189.422 15.055 196.741 13.488" fill="rgb(52,152,219)" vector-effect="non-scaling-stroke" stroke-width="0.5" stroke="rgb(0,0,0)" stroke-linejoin="miter" stroke-linecap="square" stroke-miterlimit="3"/><path d=" M 194.492 20.279 C 194.492 11.846 200.197 5 207.225 5 C 214.252 5 219.957 11.846 219.957 20.279 C 219.957 28.712 214.252 35.558 207.225 35.558 C 200.197 35.558 194.492 28.712 194.492 20.279 Z " fill="rgb(52,152,219)" vector-effect="non-scaling-stroke" stroke-width="0.5" stroke="rgb(0,0,0)" stroke-linejoin="miter" stroke-linecap="square" stroke-miterlimit="3"/></g></svg>