<?xml version="1.0" encoding="UTF-8" standalone="no"?>
<!-- Generator: Gravit.io -->

<svg
   xmlns:dc="http://purl.org/dc/elements/1.1/"
   xmlns:cc="http://creativecommons.org/ns#"
   xmlns:rdf="http://www.w3.org/1999/02/22-rdf-syntax-ns#"
   xmlns:svg="http://www.w3.org/2000/svg"
   xmlns="http://www.w3.org/2000/svg"
   xmlns:sodipodi="http://sodipodi.sourceforge.net/DTD/sodipodi-0.dtd"
   xmlns:inkscape="http://www.inkscape.org/namespaces/inkscape"
   style="isolation:isolate"
   viewBox="0 0 50 50"
   width="50"
   height="50"
   version="1.1"
   id="svg11"
   sodipodi:docname="courier.svg"
   inkscape:version="0.92.3 (d244b95, 2018-08-02)">
  <metadata
     id="metadata15">
    <rdf:RDF>
      <cc:Work
         rdf:about="">
        <dc:format>image/svg+xml</dc:format>
        <dc:type
           rdf:resource="http://purl.org/dc/dcmitype/StillImage" />
      </cc:Work>
    </rdf:RDF>
  </metadata>
  <sodipodi:namedview
     pagecolor="#ffffff"
     bordercolor="#666666"
     borderopacity="1"
     objecttolerance="10"
     gridtolerance="10"
     guidetolerance="10"
     inkscape:pageopacity="0"
     inkscape:pageshadow="2"
     inkscape:window-width="640"
     inkscape:window-height="480"
     id="namedview13"
     showgrid="false"
     inkscape:zoom="4.72"
     inkscape:cx="25"
     inkscape:cy="25"
     inkscape:window-x="67"
     inkscape:window-y="34"
     inkscape:window-maximized="0"
     inkscape:current-layer="svg11" />
  <defs
     id="defs5">
    <clipPath
       id="_clipPath_F8mViLHaEvlGbH9kM7xaX3UwVw7xPgOT">
      <rect
         width="50"
         height="50"
         id="rect2" />
    </clipPath>
  </defs>
  <g
     clip-path="url(#_clipPath_F8mViLHaEvlGbH9kM7xaX3UwVw7xPgOT)"
     id="g9"
     style="fill:#333333">
    <path
       d=" M 11.633 18.775 L 11.633 18.775 L 16.783 30.975 L 18.183 30.975 L 18.183 33.125 L 12.033 33.125 L 12.033 30.975 L 14.258 30.975 L 13.333 28.725 L 7.883 28.725 L 6.933 30.975 L 9.033 30.975 L 9.033 33.125 L 2.958 33.125 L 2.958 30.975 L 4.383 30.975 L 8.658 20.925 L 5.383 20.925 L 5.383 18.775 L 11.633 18.775 L 11.633 18.775 Z  M 10.608 22.3 L 10.608 22.3 L 8.758 26.55 L 12.383 26.55 L 10.608 22.3 L 10.608 22.3 Z  M 18.158 17.2 L 18.158 17.2 L 22.533 17.2 L 22.533 22.8 L 22.533 22.8 Q 22.983 22.5 23.383 22.275 L 23.383 22.275 L 23.383 22.275 Q 23.783 22.05 24.183 21.9 L 24.183 21.9 L 24.183 21.9 Q 24.658 21.7 25.146 21.625 L 25.146 21.625 L 25.146 21.625 Q 25.633 21.55 26.208 21.55 L 26.208 21.55 L 26.208 21.55 Q 28.733 21.55 30.471 23.262 L 30.471 23.262 L 30.471 23.262 Q 32.208 24.975 32.208 27.475 L 32.208 27.475 L 32.208 27.475 Q 32.208 29.925 30.508 31.65 L 30.508 31.65 L 30.508 31.65 Q 28.808 33.375 26.383 33.375 L 26.383 33.375 L 26.383 33.375 Q 25.733 33.375 25.208 33.287 L 25.208 33.287 L 25.208 33.287 Q 24.683 33.2 24.158 33.025 L 24.158 33.025 L 24.158 33.025 Q 23.783 32.875 23.383 32.65 L 23.383 32.65 L 23.383 32.65 Q 22.983 32.425 22.533 32.1 L 22.533 32.1 L 22.533 33.125 L 18.158 33.125 L 18.158 30.95 L 20.183 30.95 L 20.183 19.375 L 18.158 19.375 L 18.158 17.2 L 18.158 17.2 Z  M 26.158 23.675 L 26.158 23.675 L 26.158 23.675 Q 24.633 23.7 23.583 24.8 L 23.583 24.8 L 23.583 24.8 Q 22.533 25.9 22.533 27.475 L 22.533 27.475 L 22.533 27.475 Q 22.533 29.05 23.583 30.137 L 23.583 30.137 L 23.583 30.137 Q 24.633 31.225 26.158 31.225 L 26.158 31.225 L 26.158 31.225 Q 27.658 31.225 28.708 30.134 L 28.708 30.134 L 28.708 30.134 Q 29.758 29.043 29.758 27.463 L 29.758 27.463 L 29.758 27.463 Q 29.758 25.882 28.708 24.779 L 28.708 24.779 L 28.708 24.779 Q 27.658 23.675 26.158 23.675 L 26.158 23.675 L 26.158 23.675 Z  M 44.283 21.375 L 44.283 21.375 L 46.633 21.775 L 46.183 23.997 L 46.608 26.341 L 44.283 26.641 L 44.283 26.641 Q 44.108 25.117 43.333 24.409 L 43.333 24.409 L 43.333 24.409 Q 42.558 23.7 40.983 23.7 L 40.983 23.7 L 40.983 23.7 Q 39.208 23.7 38.058 24.762 L 38.058 24.762 L 38.058 24.762 Q 36.908 25.825 36.908 27.5 L 36.908 27.5 L 36.908 27.5 Q 36.908 29.1 38.033 30.175 L 38.033 30.175 L 38.033 30.175 Q 39.158 31.25 40.858 31.25 L 40.858 31.25 L 40.858 31.25 Q 42.208 31.25 43.396 30.6 L 43.396 30.6 L 43.396 30.6 Q 44.583 29.95 45.533 29.05 L 45.533 29.05 L 46.858 30.85 L 46.858 30.85 Q 45.558 31.95 44.033 32.662 L 44.033 32.662 L 44.033 32.662 Q 42.508 33.375 40.758 33.375 L 40.758 33.375 L 40.758 33.375 Q 38.033 33.375 36.246 31.709 L 36.246 31.709 L 36.246 31.709 Q 34.458 30.043 34.458 27.463 L 34.458 27.463 L 34.458 27.463 Q 34.458 24.907 36.271 23.216 L 36.271 23.216 L 36.271 23.216 Q 38.083 21.525 40.833 21.525 L 40.833 21.525 L 40.833 21.525 Q 41.233 21.525 41.596 21.562 L 41.596 21.562 L 41.596 21.562 Q 41.958 21.6 42.308 21.675 L 42.308 21.675 L 42.308 21.675 Q 42.733 21.75 43.183 21.925 L 43.183 21.925 L 43.183 21.925 Q 43.633 22.1 44.158 22.35 L 44.158 22.35 L 44.283 21.375 L 44.283 21.375 Z "
       fill-rule="evenodd"
       fill="rgb(255,255,255)"
       id="path7"
       style="fill:#333333" />
  </g>
</svg>
