<?xml version="1.0" encoding="UTF-8" standalone="no"?>
<!-- Generator: Gravit.io -->

<svg
   xmlns:dc="http://purl.org/dc/elements/1.1/"
   xmlns:cc="http://creativecommons.org/ns#"
   xmlns:rdf="http://www.w3.org/1999/02/22-rdf-syntax-ns#"
   xmlns:svg="http://www.w3.org/2000/svg"
   xmlns="http://www.w3.org/2000/svg"
   xmlns:sodipodi="http://sodipodi.sourceforge.net/DTD/sodipodi-0.dtd"
   xmlns:inkscape="http://www.inkscape.org/namespaces/inkscape"
   style="isolation:isolate"
   viewBox="0 0 50 50"
   width="50"
   height="50"
   version="1.1"
   id="svg26"
   sodipodi:docname="lato.svg"
   inkscape:version="0.92.3 (d244b95, 2018-08-02)">
  <metadata
     id="metadata30">
    <rdf:RDF>
      <cc:Work
         rdf:about="">
        <dc:format>image/svg+xml</dc:format>
        <dc:type
           rdf:resource="http://purl.org/dc/dcmitype/StillImage" />
      </cc:Work>
    </rdf:RDF>
  </metadata>
  <sodipodi:namedview
     pagecolor="#ffffff"
     bordercolor="#666666"
     borderopacity="1"
     objecttolerance="10"
     gridtolerance="10"
     guidetolerance="10"
     inkscape:pageopacity="0"
     inkscape:pageshadow="2"
     inkscape:window-width="1028"
     inkscape:window-height="480"
     id="namedview28"
     showgrid="false"
     inkscape:zoom="1.668772"
     inkscape:cx="26.30558"
     inkscape:cy="35.607834"
     inkscape:window-x="425"
     inkscape:window-y="291"
     inkscape:window-maximized="0"
     inkscape:current-layer="svg26" />
  <defs
     id="defs20">
    <clipPath
       id="_clipPath_vz5Lc6V2ndS2MuTKOohCdNahI1czs41n">
      <rect
         width="50"
         height="50"
         id="rect17" />
    </clipPath>
  </defs>
  <g
     clip-path="url(#_clipPath_vz5Lc6V2ndS2MuTKOohCdNahI1czs41n)"
     id="g24"
     style="fill:#333333">
    <path
       d=" M 13.008 15.763 L 20.171 33.675 L 18.296 33.675 L 18.296 33.675 Q 17.971 33.675 17.771 33.512 L 17.771 33.512 L 17.771 33.512 Q 17.571 33.35 17.471 33.1 L 17.471 33.1 L 15.796 28.775 L 7.758 28.775 L 6.083 33.1 L 6.083 33.1 Q 5.996 33.325 5.783 33.5 L 5.783 33.5 L 5.783 33.5 Q 5.571 33.675 5.258 33.675 L 5.258 33.675 L 3.383 33.675 L 10.546 15.763 L 13.008 15.763 L 13.008 15.763 Z  M 11.246 19.75 L 8.433 27.025 L 15.121 27.025 L 12.308 19.737 L 12.308 19.737 Q 12.033 19.062 11.771 18.05 L 11.771 18.05 L 11.771 18.05 Q 11.633 18.563 11.502 18.994 L 11.502 18.994 L 11.502 18.994 Q 11.371 19.425 11.246 19.75 L 11.246 19.75 L 11.246 19.75 Z  M 23.596 33.675 L 22.158 33.675 L 22.158 15.263 L 24.396 15.263 L 24.396 22.837 L 24.396 22.837 Q 25.183 21.925 26.202 21.369 L 26.202 21.369 L 26.202 21.369 Q 27.221 20.812 28.533 20.812 L 28.533 20.812 L 28.533 20.812 Q 29.633 20.812 30.521 21.225 L 30.521 21.225 L 30.521 21.225 Q 31.408 21.637 32.033 22.456 L 32.033 22.456 L 32.033 22.456 Q 32.658 23.275 32.996 24.481 L 32.996 24.481 L 32.996 24.481 Q 33.333 25.687 33.333 27.262 L 33.333 27.262 L 33.333 27.262 Q 33.333 28.662 32.958 29.869 L 32.958 29.869 L 32.958 29.869 Q 32.583 31.075 31.877 31.956 L 31.877 31.956 L 31.877 31.956 Q 31.171 32.837 30.152 33.344 L 30.152 33.344 L 30.152 33.344 Q 29.133 33.85 27.858 33.85 L 27.858 33.85 L 27.858 33.85 Q 26.633 33.85 25.777 33.375 L 25.777 33.375 L 25.777 33.375 Q 24.921 32.9 24.283 32.05 L 24.283 32.05 L 24.171 33.2 L 24.171 33.2 Q 24.071 33.675 23.596 33.675 L 23.596 33.675 L 23.596 33.675 Z  M 27.808 22.587 L 27.808 22.587 L 27.808 22.587 Q 26.721 22.587 25.902 23.088 L 25.902 23.088 L 25.902 23.088 Q 25.083 23.587 24.396 24.5 L 24.396 24.5 L 24.396 30.625 L 24.396 30.625 Q 24.996 31.45 25.727 31.787 L 25.727 31.787 L 25.727 31.787 Q 26.458 32.125 27.358 32.125 L 27.358 32.125 L 27.358 32.125 Q 29.133 32.125 30.083 30.862 L 30.083 30.862 L 30.083 30.862 Q 31.033 29.6 31.033 27.262 L 31.033 27.262 L 31.033 27.262 Q 31.033 26.025 30.815 25.137 L 30.815 25.137 L 30.815 25.137 Q 30.596 24.25 30.183 23.681 L 30.183 23.681 L 30.183 23.681 Q 29.771 23.112 29.171 22.85 L 29.171 22.85 L 29.171 22.85 Q 28.571 22.587 27.808 22.587 Z  M 45.283 22.463 L 44.696 23.262 L 44.696 23.262 Q 44.596 23.4 44.496 23.475 L 44.496 23.475 L 44.496 23.475 Q 44.396 23.55 44.208 23.55 L 44.208 23.55 L 44.208 23.55 Q 44.021 23.55 43.802 23.394 L 43.802 23.394 L 43.802 23.394 Q 43.583 23.237 43.246 23.05 L 43.246 23.05 L 43.246 23.05 Q 42.908 22.862 42.427 22.706 L 42.427 22.706 L 42.427 22.706 Q 41.946 22.55 41.246 22.55 L 41.246 22.55 L 41.246 22.55 Q 40.321 22.55 39.608 22.881 L 39.608 22.881 L 39.608 22.881 Q 38.896 23.212 38.415 23.837 L 38.415 23.837 L 38.415 23.837 Q 37.933 24.462 37.69 25.35 L 37.69 25.35 L 37.69 25.35 Q 37.446 26.237 37.446 27.337 L 37.446 27.337 L 37.446 27.337 Q 37.446 28.487 37.708 29.381 L 37.708 29.381 L 37.708 29.381 Q 37.971 30.275 38.446 30.881 L 38.446 30.881 L 38.446 30.881 Q 38.921 31.487 39.602 31.806 L 39.602 31.806 L 39.602 31.806 Q 40.283 32.125 41.133 32.125 L 41.133 32.125 L 41.133 32.125 Q 41.946 32.125 42.471 31.931 L 42.471 31.931 L 42.471 31.931 Q 42.996 31.737 43.346 31.5 L 43.346 31.5 L 43.346 31.5 Q 43.696 31.262 43.921 31.069 L 43.921 31.069 L 43.921 31.069 Q 44.146 30.875 44.371 30.875 L 44.371 30.875 L 44.371 30.875 Q 44.658 30.875 44.796 31.087 L 44.796 31.087 L 45.421 31.9 L 45.421 31.9 Q 44.596 32.912 43.358 33.381 L 43.358 33.381 L 43.358 33.381 Q 42.121 33.85 40.746 33.85 L 40.746 33.85 L 40.746 33.85 Q 39.558 33.85 38.54 33.412 L 38.54 33.412 L 38.54 33.412 Q 37.521 32.975 36.771 32.144 L 36.771 32.144 L 36.771 32.144 Q 36.021 31.312 35.59 30.1 L 35.59 30.1 L 35.59 30.1 Q 35.158 28.887 35.158 27.337 L 35.158 27.337 L 35.158 27.337 Q 35.158 25.925 35.552 24.725 L 35.552 24.725 L 35.552 24.725 Q 35.946 23.525 36.702 22.656 L 36.702 22.656 L 36.702 22.656 Q 37.458 21.787 38.571 21.3 L 38.571 21.3 L 38.571 21.3 Q 39.683 20.812 41.121 20.812 L 41.121 20.812 L 41.121 20.812 Q 42.446 20.812 43.471 21.244 L 43.471 21.244 L 43.471 21.244 Q 44.496 21.675 45.283 22.463 L 45.283 22.463 L 45.283 22.463 Z "
       fill-rule="evenodd"
       fill="rgb(255,255,255)"
       id="path22"
       style="fill:#333333" />
  </g>
</svg>
