<?xml version="1.0" standalone="no"?><!-- Generator: Gravit.io --><svg xmlns="http://www.w3.org/2000/svg" xmlns:xlink="http://www.w3.org/1999/xlink" style="isolation:isolate" viewBox="0 0 290 220" width="290" height="220"><defs><clipPath id="_clipPath_YKpydirz4Q28onWAe4zRtIJ8MObjr808"><rect width="290" height="220"/></clipPath></defs><g clip-path="url(#_clipPath_YKpydirz4Q28onWAe4zRtIJ8MObjr808)"><g id="b13"><g id="Group"><path d=" M 70.967 76.82 L 69.272 75.546 L 69.779 74.875 L 71.474 76.15 L 71.146 76.898 L 70.967 76.82 Z  M 71.474 76.15 L 72.888 77.214 L 71.146 76.898 L 71.474 76.15 Z  M 69.81 76.968 L 69.981 76.15 L 69.985 76.15 L 70.005 76.15 L 70.009 76.154 L 70.016 76.154 L 70.051 76.158 L 70.071 76.158 L 70.09 76.158 L 70.129 76.154 L 70.172 76.154 L 70.196 76.15 L 70.223 76.15 L 70.274 76.138 L 70.32 76.134 L 70.367 76.126 L 70.414 76.122 L 70.461 76.115 L 70.507 76.111 L 70.535 76.107 L 70.601 76.095 L 70.648 76.091 L 70.691 76.087 L 70.733 76.083 L 70.78 76.076 L 70.839 76.068 L 70.881 76.064 L 70.944 76.06 L 70.987 76.06 L 71.026 76.056 L 71.084 76.056 L 71.143 76.056 L 71.201 76.06 L 71.24 76.064 L 71.295 76.072 L 71.146 76.898 L 71.139 76.898 L 71.108 76.894 L 71.096 76.89 L 71.084 76.89 L 71.065 76.89 L 71.026 76.894 L 70.983 76.894 L 70.959 76.898 L 70.917 76.902 L 70.889 76.902 L 70.843 76.91 L 70.8 76.914 L 70.749 76.925 L 70.702 76.929 L 70.675 76.933 L 70.609 76.945 L 70.562 76.949 L 70.515 76.956 L 70.468 76.96 L 70.422 76.968 L 70.375 76.972 L 70.332 76.976 L 70.274 76.984 L 70.211 76.988 L 70.168 76.988 L 70.129 76.991 L 70.071 76.991 L 70.012 76.991 L 69.97 76.988 L 69.907 76.988 L 69.849 76.976 L 69.806 76.968 L 69.81 76.968 L 69.81 76.968 Z  M 59.116 68.188 L 59.864 67.814 L 59.822 67.748 L 60.2 68.243 L 60.566 68.718 L 60.917 69.174 L 61.26 69.614 L 61.591 70.035 L 61.914 70.44 L 62.226 70.826 L 62.534 71.2 L 62.83 71.555 L 63.13 71.894 L 63.419 72.221 L 63.703 72.529 L 63.988 72.825 L 64.264 73.102 L 64.541 73.367 L 64.821 73.624 L 65.098 73.858 L 65.379 74.084 L 65.663 74.299 L 65.948 74.501 L 66.236 74.692 L 66.528 74.871 L 66.828 75.043 L 67.132 75.203 L 67.452 75.347 L 67.779 75.491 L 68.111 75.62 L 68.457 75.741 L 68.82 75.854 L 69.194 75.959 L 69.58 76.06 L 69.981 76.15 L 69.81 76.968 L 69.385 76.871 L 68.976 76.769 L 68.578 76.656 L 68.192 76.536 L 67.822 76.407 L 67.46 76.263 L 67.109 76.111 L 66.766 75.951 L 66.431 75.776 L 66.108 75.596 L 65.784 75.401 L 65.472 75.195 L 65.164 74.977 L 64.864 74.747 L 64.56 74.505 L 64.268 74.248 L 63.972 73.983 L 63.68 73.702 L 63.387 73.41 L 63.095 73.106 L 62.795 72.783 L 62.499 72.447 L 62.199 72.101 L 61.887 71.738 L 61.579 71.356 L 61.26 70.963 L 60.936 70.557 L 60.597 70.129 L 60.254 69.688 L 59.903 69.225 L 59.537 68.749 L 59.159 68.254 L 59.116 68.188 L 59.116 68.188 Z  M 59.159 68.254 L 59.132 68.215 L 59.116 68.188 L 59.159 68.254 L 59.159 68.254 Z  M 61.622 57.993 L 62.378 58.352 L 62.359 58.391 L 62.062 58.874 L 61.782 59.338 L 61.513 59.774 L 61.26 60.199 L 61.026 60.596 L 60.8 60.982 L 60.593 61.349 L 60.398 61.699 L 60.219 62.038 L 60.055 62.358 L 59.903 62.666 L 59.767 62.962 L 59.646 63.243 L 59.541 63.515 L 59.447 63.776 L 59.366 64.03 L 59.299 64.271 L 59.249 64.509 L 59.21 64.747 L 59.182 64.969 L 59.167 65.191 L 59.167 65.409 L 59.178 65.635 L 59.202 65.857 L 59.241 66.08 L 59.288 66.31 L 59.35 66.539 L 59.428 66.781 L 59.514 67.027 L 59.619 67.28 L 59.736 67.541 L 59.864 67.814 L 59.116 68.188 L 58.972 67.892 L 58.847 67.607 L 58.734 67.323 L 58.633 67.046 L 58.547 66.773 L 58.477 66.504 L 58.415 66.235 L 58.376 65.967 L 58.345 65.698 L 58.333 65.433 L 58.333 65.168 L 58.348 64.891 L 58.383 64.622 L 58.43 64.353 L 58.489 64.077 L 58.563 63.796 L 58.652 63.511 L 58.754 63.219 L 58.875 62.923 L 59.003 62.619 L 59.147 62.307 L 59.307 61.984 L 59.479 61.649 L 59.666 61.302 L 59.86 60.943 L 60.075 60.569 L 60.301 60.176 L 60.542 59.77 L 60.796 59.345 L 61.065 58.901 L 61.345 58.437 L 61.641 57.954 L 61.622 57.993 L 61.622 57.993 Z  M 62.378 58.352 L 62.362 58.383 L 62.359 58.391 L 62.378 58.352 L 62.378 58.352 Z  M 72.386 52.311 L 72.152 53.114 L 72.21 53.126 L 71.684 53.063 L 71.178 53.02 L 70.683 53.001 L 70.211 53.001 L 69.755 53.024 L 69.311 53.067 L 68.886 53.13 L 68.473 53.204 L 68.076 53.301 L 67.694 53.41 L 67.327 53.535 L 66.977 53.675 L 66.638 53.831 L 66.31 53.999 L 65.995 54.174 L 65.694 54.365 L 65.406 54.564 L 65.129 54.774 L 64.864 54.992 L 64.611 55.222 L 64.369 55.46 L 64.136 55.706 L 63.913 55.955 L 63.703 56.208 L 63.504 56.469 L 63.313 56.734 L 63.134 56.999 L 62.966 57.268 L 62.803 57.541 L 62.651 57.81 L 62.511 58.083 L 62.378 58.352 L 61.622 57.993 L 61.762 57.701 L 61.918 57.412 L 62.078 57.12 L 62.249 56.832 L 62.433 56.54 L 62.627 56.251 L 62.834 55.971 L 63.048 55.686 L 63.282 55.409 L 63.52 55.137 L 63.769 54.875 L 64.034 54.614 L 64.319 54.361 L 64.607 54.119 L 64.915 53.886 L 65.235 53.663 L 65.566 53.457 L 65.913 53.258 L 66.271 53.075 L 66.649 52.904 L 67.039 52.748 L 67.444 52.607 L 67.865 52.49 L 68.302 52.385 L 68.746 52.303 L 69.21 52.233 L 69.693 52.19 L 70.188 52.167 L 70.698 52.167 L 71.224 52.186 L 71.77 52.229 L 72.327 52.299 L 72.386 52.311 L 72.386 52.311 Z  M 72.327 52.299 L 72.362 52.303 L 72.386 52.311 L 72.327 52.299 Z  M 81.201 59.33 L 80.515 58.847 L 80.55 59.373 L 80.25 59.053 L 79.954 58.741 L 79.658 58.437 L 79.365 58.141 L 79.077 57.849 L 78.789 57.568 L 78.5 57.299 L 78.216 57.034 L 77.935 56.777 L 77.655 56.528 L 77.378 56.282 L 77.101 56.052 L 76.828 55.826 L 76.56 55.608 L 76.291 55.398 L 76.03 55.199 L 75.765 55.004 L 75.507 54.821 L 75.25 54.646 L 74.997 54.474 L 74.744 54.314 L 74.494 54.166 L 74.245 54.022 L 73.999 53.886 L 73.761 53.761 L 73.524 53.644 L 73.286 53.535 L 73.052 53.434 L 72.826 53.34 L 72.596 53.258 L 72.374 53.18 L 72.152 53.114 L 72.386 52.311 L 72.631 52.385 L 72.877 52.471 L 73.122 52.561 L 73.38 52.662 L 73.629 52.771 L 73.882 52.888 L 74.143 53.013 L 74.404 53.153 L 74.658 53.297 L 74.915 53.441 L 75.18 53.605 L 75.449 53.773 L 75.718 53.952 L 75.983 54.135 L 76.256 54.326 L 76.528 54.529 L 76.805 54.735 L 77.082 54.953 L 77.358 55.179 L 77.639 55.405 L 77.924 55.651 L 78.208 55.896 L 78.496 56.154 L 78.785 56.419 L 79.077 56.691 L 79.365 56.968 L 79.662 57.257 L 79.958 57.549 L 80.258 57.853 L 80.554 58.165 L 80.858 58.476 L 81.166 58.804 L 81.201 59.33 L 81.201 59.33 Z  M 81.166 58.804 L 81.396 59.053 L 81.201 59.33 L 81.166 58.804 Z  M 69.182 74.969 L 80.515 58.847 L 81.201 59.33 L 69.868 75.452 L 69.272 75.546 L 69.182 74.969 L 69.182 74.969 Z  M 69.272 75.546 L 68.949 75.304 L 69.182 74.969 L 69.272 75.546 L 69.272 75.546 Z " fill="rgb(0,0,0)"/><path d=" M 69.525 75.211 L 71.221 76.485 C 70.897 76.426 70.215 76.629 69.896 76.559 C 65.402 75.608 63.586 73.367 59.49 68.001 C 57.974 64.93 58.769 63.445 62 58.172 C 63.419 55.199 66.396 51.879 72.269 52.713 C 74.744 53.422 77.623 55.612 80.858 59.088 L 69.525 75.211 L 69.525 75.211 Z " fill-rule="evenodd" fill="rgb(0,0,0)"/></g><g id="Group"><path d=" M 83.691 61.497 L 83.06 62.042 L 83.06 62.042 L 82.834 61.789 L 82.604 61.539 L 82.366 61.29 L 82.125 61.045 L 81.883 60.807 L 81.63 60.573 L 81.376 60.339 L 81.119 60.113 L 80.858 59.895 L 80.593 59.677 L 80.324 59.466 L 80.051 59.256 L 79.775 59.053 L 79.498 58.858 L 79.213 58.663 L 78.929 58.476 L 78.641 58.293 L 78.352 58.118 L 78.064 57.946 L 77.764 57.783 L 77.468 57.623 L 77.171 57.467 L 76.871 57.319 L 76.571 57.175 L 76.263 57.034 L 75.963 56.906 L 75.655 56.781 L 75.351 56.66 L 75.044 56.547 L 74.732 56.442 L 74.424 56.337 L 74.116 56.243 L 74.358 55.441 L 74.681 55.542 L 75.005 55.647 L 75.324 55.76 L 75.648 55.881 L 75.967 56.002 L 76.283 56.134 L 76.606 56.271 L 76.922 56.419 L 77.238 56.563 L 77.553 56.719 L 77.865 56.882 L 78.169 57.05 L 78.477 57.222 L 78.781 57.401 L 79.085 57.584 L 79.381 57.775 L 79.681 57.97 L 79.973 58.172 L 80.266 58.375 L 80.55 58.585 L 80.839 58.804 L 81.115 59.022 L 81.396 59.248 L 81.665 59.482 L 81.938 59.716 L 82.199 59.957 L 82.46 60.199 L 82.717 60.452 L 82.966 60.706 L 83.212 60.963 L 83.457 61.228 L 83.691 61.497 L 83.691 61.497 L 83.691 61.497 Z  M 87.261 68.215 L 86.606 68.737 L 86.61 68.745 L 86.552 68.656 L 86.509 68.582 L 86.446 68.476 L 86.372 68.336 L 86.291 68.184 L 86.193 68.005 L 86.084 67.794 L 85.967 67.572 L 85.839 67.331 L 85.702 67.069 L 85.562 66.801 L 85.414 66.516 L 85.258 66.224 L 85.102 65.924 L 84.946 65.62 L 84.786 65.316 L 84.627 65.012 L 84.467 64.708 L 84.311 64.408 L 84.159 64.115 L 84.011 63.835 L 83.871 63.562 L 83.734 63.305 L 83.606 63.063 L 83.489 62.837 L 83.379 62.638 L 83.286 62.455 L 83.2 62.303 L 83.13 62.175 L 83.076 62.081 L 83.044 62.023 L 83.06 62.042 L 83.691 61.497 L 83.754 61.586 L 83.8 61.66 L 83.863 61.769 L 83.933 61.898 L 84.019 62.058 L 84.12 62.241 L 84.229 62.448 L 84.346 62.674 L 84.475 62.915 L 84.611 63.172 L 84.751 63.445 L 84.899 63.726 L 85.051 64.018 L 85.207 64.318 L 85.367 64.622 L 85.527 64.926 L 85.687 65.238 L 85.842 65.534 L 85.998 65.834 L 86.154 66.126 L 86.302 66.411 L 86.443 66.68 L 86.579 66.941 L 86.708 67.182 L 86.825 67.405 L 86.934 67.607 L 87.031 67.787 L 87.113 67.946 L 87.179 68.071 L 87.234 68.161 L 87.269 68.227 L 87.257 68.207 L 87.261 68.215 L 87.261 68.215 Z  M 87.257 68.207 L 87.261 68.215 L 87.21 68.153 L 87.257 68.207 Z  M 89.946 69.361 L 89.268 69.852 L 89.268 69.852 L 89.299 69.891 L 89.311 69.899 L 89.307 69.899 L 89.26 69.871 L 89.202 69.844 L 89.147 69.817 L 89.065 69.786 L 88.987 69.751 L 88.902 69.716 L 88.793 69.677 L 88.695 69.634 L 88.59 69.599 L 88.477 69.556 L 88.368 69.517 L 88.247 69.474 L 88.13 69.431 L 88.013 69.388 L 87.904 69.345 L 87.783 69.306 L 87.666 69.264 L 87.553 69.221 L 87.444 69.178 L 87.351 69.143 L 87.245 69.104 L 87.152 69.065 L 87.058 69.026 L 86.973 68.987 L 86.91 68.956 L 86.836 68.921 L 86.762 68.874 L 86.696 68.827 L 86.606 68.737 L 87.261 68.215 L 87.218 68.172 L 87.222 68.172 L 87.234 68.18 L 87.277 68.2 L 87.339 68.231 L 87.401 68.262 L 87.471 68.293 L 87.557 68.324 L 87.647 68.363 L 87.748 68.398 L 87.849 68.441 L 87.955 68.476 L 88.064 68.519 L 88.177 68.558 L 88.302 68.601 L 88.418 68.644 L 88.535 68.687 L 88.648 68.73 L 88.765 68.769 L 88.878 68.811 L 88.991 68.854 L 89.104 68.897 L 89.198 68.936 L 89.299 68.971 L 89.401 69.014 L 89.482 69.053 L 89.568 69.088 L 89.642 69.131 L 89.704 69.158 L 89.794 69.213 L 89.868 69.275 L 89.946 69.361 L 89.946 69.361 L 89.946 69.361 Z  M 89.268 69.852 L 89.268 69.852 L 89.268 69.852 L 89.268 69.852 Z  M 93.633 72.755 L 92.807 72.896 L 92.807 72.896 L 92.771 72.712 L 92.733 72.56 L 92.686 72.42 L 92.631 72.295 L 92.581 72.19 L 92.514 72.089 L 92.456 72.007 L 92.386 71.933 L 92.308 71.859 L 92.23 71.793 L 92.144 71.73 L 92.051 71.672 L 91.949 71.613 L 91.844 71.559 L 91.731 71.508 L 91.61 71.458 L 91.485 71.403 L 91.353 71.352 L 91.213 71.294 L 91.072 71.232 L 90.924 71.169 L 90.776 71.095 L 90.628 71.021 L 90.476 70.939 L 90.316 70.842 L 90.16 70.741 L 90.008 70.624 L 89.853 70.495 L 89.704 70.355 L 89.556 70.207 L 89.408 70.039 L 89.268 69.852 L 89.946 69.361 L 90.055 69.509 L 90.172 69.638 L 90.289 69.762 L 90.406 69.871 L 90.523 69.969 L 90.644 70.055 L 90.768 70.14 L 90.889 70.214 L 91.018 70.281 L 91.143 70.347 L 91.275 70.405 L 91.408 70.468 L 91.54 70.522 L 91.665 70.573 L 91.805 70.631 L 91.938 70.686 L 92.074 70.744 L 92.21 70.811 L 92.347 70.881 L 92.479 70.955 L 92.612 71.037 L 92.744 71.13 L 92.869 71.235 L 92.986 71.348 L 93.103 71.477 L 93.208 71.621 L 93.305 71.777 L 93.395 71.945 L 93.465 72.124 L 93.535 72.319 L 93.59 72.533 L 93.633 72.755 L 93.633 72.755 L 93.633 72.755 Z  M 78.418 82.502 L 78.457 81.668 L 78.457 81.668 L 79.124 81.684 L 79.794 81.676 L 80.464 81.645 L 81.143 81.586 L 81.821 81.508 L 82.491 81.407 L 83.161 81.282 L 83.828 81.134 L 84.482 80.97 L 85.125 80.783 L 85.761 80.577 L 86.376 80.355 L 86.98 80.105 L 87.565 79.844 L 88.13 79.567 L 88.668 79.271 L 89.186 78.956 L 89.677 78.632 L 90.137 78.289 L 90.574 77.935 L 90.971 77.568 L 91.337 77.186 L 91.669 76.797 L 91.961 76.399 L 92.218 75.99 L 92.429 75.569 L 92.604 75.144 L 92.736 74.712 L 92.822 74.271 L 92.865 73.819 L 92.861 73.363 L 92.807 72.896 L 93.633 72.755 L 93.695 73.309 L 93.699 73.858 L 93.648 74.388 L 93.547 74.914 L 93.391 75.425 L 93.192 75.92 L 92.943 76.403 L 92.655 76.867 L 92.323 77.319 L 91.961 77.748 L 91.556 78.168 L 91.119 78.566 L 90.651 78.952 L 90.16 79.318 L 89.63 79.665 L 89.089 79.996 L 88.512 80.308 L 87.923 80.6 L 87.308 80.877 L 86.68 81.134 L 86.033 81.372 L 85.375 81.586 L 84.701 81.781 L 84.015 81.953 L 83.325 82.101 L 82.631 82.233 L 81.93 82.334 L 81.228 82.42 L 80.519 82.479 L 79.818 82.51 L 79.116 82.518 L 78.418 82.502 L 78.418 82.502 L 78.418 82.502 Z  M 78.418 82.502 L 78.418 82.502 L 78.418 82.502 L 78.418 82.502 Z  M 75.702 80.043 L 74.962 80.433 L 74.966 80.437 L 74.915 80.324 L 74.915 80.043 L 75.293 79.747 L 75.484 79.774 L 75.581 79.809 L 75.663 79.852 L 75.745 79.899 L 75.835 79.957 L 75.928 80.02 L 76.033 80.094 L 76.143 80.168 L 76.259 80.249 L 76.38 80.339 L 76.505 80.429 L 76.641 80.522 L 76.77 80.62 L 76.914 80.717 L 77.051 80.818 L 77.183 80.908 L 77.327 81.009 L 77.46 81.103 L 77.596 81.189 L 77.725 81.278 L 77.853 81.356 L 77.97 81.43 L 78.079 81.493 L 78.189 81.551 L 78.278 81.598 L 78.36 81.633 L 78.426 81.66 L 78.454 81.668 L 78.457 81.668 L 78.418 82.502 L 78.282 82.486 L 78.153 82.447 L 78.04 82.405 L 77.92 82.354 L 77.799 82.292 L 77.674 82.225 L 77.542 82.147 L 77.409 82.066 L 77.273 81.98 L 77.136 81.89 L 76.992 81.797 L 76.852 81.695 L 76.708 81.602 L 76.56 81.497 L 76.423 81.395 L 76.287 81.298 L 76.15 81.2 L 76.022 81.107 L 75.897 81.017 L 75.776 80.935 L 75.659 80.854 L 75.558 80.779 L 75.461 80.713 L 75.375 80.659 L 75.309 80.616 L 75.25 80.585 L 75.223 80.565 L 75.235 80.569 L 75.363 80.581 L 75.71 80.308 L 75.718 80.074 L 75.698 80.039 L 75.702 80.043 L 75.702 80.043 Z  M 75.698 80.039 L 75.702 80.043 L 75.757 80.148 L 75.698 80.039 L 75.698 80.039 Z  M 75.862 77.373 L 76.166 76.594 L 76.17 76.594 L 76.334 76.688 L 76.458 76.828 L 76.532 76.953 L 76.583 77.097 L 76.61 77.241 L 76.618 77.373 L 76.618 77.514 L 76.61 77.654 L 76.591 77.798 L 76.571 77.942 L 76.54 78.09 L 76.509 78.242 L 76.47 78.398 L 76.427 78.55 L 76.384 78.706 L 76.334 78.858 L 76.287 79.014 L 76.232 79.166 L 76.182 79.31 L 76.131 79.451 L 76.084 79.587 L 76.03 79.723 L 75.979 79.844 L 75.932 79.957 L 75.889 80.059 L 75.846 80.152 L 75.811 80.238 L 75.772 80.316 L 75.737 80.378 L 75.714 80.421 L 75.663 80.503 L 74.962 80.433 L 75.702 80.043 L 75.016 79.965 L 74.989 80.008 L 75.005 79.981 L 75.024 79.942 L 75.047 79.887 L 75.083 79.817 L 75.118 79.731 L 75.16 79.63 L 75.207 79.525 L 75.25 79.412 L 75.297 79.291 L 75.344 79.162 L 75.394 79.03 L 75.445 78.885 L 75.492 78.749 L 75.539 78.609 L 75.581 78.465 L 75.624 78.324 L 75.659 78.188 L 75.69 78.055 L 75.722 77.919 L 75.745 77.794 L 75.765 77.681 L 75.776 77.576 L 75.784 77.483 L 75.784 77.405 L 75.776 77.342 L 75.772 77.307 L 75.768 77.303 L 75.772 77.303 L 75.811 77.342 L 75.858 77.373 L 75.862 77.373 L 75.862 77.373 Z  M 76.166 76.594 L 76.17 76.594 L 76.283 76.641 L 76.166 76.594 L 76.166 76.594 Z  M 73.469 77.066 L 73.602 76.239 L 73.606 76.239 L 73.637 76.243 L 73.66 76.251 L 73.703 76.251 L 73.765 76.263 L 73.824 76.267 L 73.886 76.274 L 73.972 76.282 L 74.05 76.294 L 74.136 76.302 L 74.233 76.313 L 74.327 76.325 L 74.412 76.337 L 74.514 76.345 L 74.63 76.36 L 74.736 76.376 L 74.829 76.384 L 74.934 76.395 L 75.036 76.407 L 75.137 76.419 L 75.242 76.43 L 75.348 76.446 L 75.445 76.461 L 75.527 76.473 L 75.616 76.485 L 75.702 76.497 L 75.78 76.508 L 75.858 76.52 L 75.917 76.532 L 75.979 76.543 L 76.057 76.559 L 76.104 76.575 L 76.166 76.594 L 75.862 77.373 L 75.87 77.377 L 75.839 77.37 L 75.823 77.362 L 75.776 77.358 L 75.71 77.346 L 75.648 77.334 L 75.577 77.323 L 75.5 77.311 L 75.418 77.299 L 75.32 77.288 L 75.231 77.272 L 75.141 77.264 L 75.044 77.253 L 74.942 77.241 L 74.841 77.229 L 74.736 77.218 L 74.627 77.202 L 74.521 77.186 L 74.436 77.179 L 74.334 77.171 L 74.225 77.159 L 74.132 77.147 L 74.042 77.136 L 73.956 77.128 L 73.871 77.116 L 73.8 77.108 L 73.722 77.101 L 73.656 77.089 L 73.609 77.085 L 73.551 77.077 L 73.496 77.069 L 73.465 77.066 L 73.469 77.066 L 73.469 77.066 Z  M 73.602 76.239 L 73.606 76.239 L 73.68 76.251 L 73.602 76.239 Z  M 65.858 73.285 L 66.357 72.615 L 66.357 72.615 L 66.587 72.787 L 66.809 72.954 L 67.031 73.118 L 67.249 73.281 L 67.464 73.433 L 67.67 73.589 L 67.881 73.741 L 68.083 73.886 L 68.29 74.034 L 68.493 74.17 L 68.695 74.306 L 68.898 74.439 L 69.101 74.567 L 69.299 74.688 L 69.506 74.809 L 69.712 74.926 L 69.919 75.039 L 70.129 75.148 L 70.34 75.249 L 70.562 75.351 L 70.776 75.448 L 70.998 75.538 L 71.236 75.631 L 71.466 75.717 L 71.704 75.795 L 71.953 75.869 L 72.21 75.939 L 72.471 76.009 L 72.744 76.072 L 73.021 76.134 L 73.305 76.189 L 73.602 76.239 L 73.469 77.066 L 73.157 77.015 L 72.85 76.953 L 72.557 76.89 L 72.269 76.82 L 71.992 76.75 L 71.719 76.672 L 71.454 76.59 L 71.193 76.504 L 70.94 76.411 L 70.694 76.317 L 70.449 76.22 L 70.211 76.115 L 69.981 76.006 L 69.755 75.896 L 69.529 75.779 L 69.307 75.659 L 69.085 75.534 L 68.871 75.405 L 68.656 75.277 L 68.446 75.14 L 68.235 75.008 L 68.025 74.864 L 67.814 74.719 L 67.6 74.571 L 67.39 74.419 L 67.179 74.267 L 66.965 74.112 L 66.751 73.952 L 66.532 73.788 L 66.31 73.624 L 66.088 73.457 L 65.858 73.285 L 65.858 73.285 L 65.858 73.285 Z  M 63.578 71.228 L 64.272 70.76 L 64.272 70.76 L 64.303 70.803 L 64.334 70.846 L 64.377 70.896 L 64.428 70.959 L 64.475 71.009 L 64.525 71.064 L 64.58 71.122 L 64.642 71.181 L 64.712 71.251 L 64.775 71.313 L 64.845 71.376 L 64.919 71.446 L 64.989 71.508 L 65.063 71.575 L 65.137 71.637 L 65.215 71.703 L 65.297 71.773 L 65.371 71.836 L 65.453 71.902 L 65.527 71.968 L 65.601 72.027 L 65.683 72.093 L 65.757 72.151 L 65.835 72.214 L 65.901 72.268 L 65.979 72.323 L 66.049 72.381 L 66.111 72.428 L 66.182 72.479 L 66.248 72.529 L 66.302 72.576 L 66.357 72.615 L 65.858 73.285 L 65.796 73.239 L 65.733 73.192 L 65.675 73.149 L 65.613 73.098 L 65.535 73.044 L 65.465 72.985 L 65.394 72.931 L 65.313 72.868 L 65.235 72.806 L 65.161 72.748 L 65.079 72.681 L 64.997 72.615 L 64.915 72.549 L 64.833 72.483 L 64.751 72.412 L 64.669 72.342 L 64.592 72.276 L 64.51 72.206 L 64.428 72.132 L 64.35 72.062 L 64.276 71.992 L 64.198 71.921 L 64.12 71.843 L 64.058 71.781 L 63.988 71.715 L 63.917 71.641 L 63.851 71.571 L 63.789 71.497 L 63.738 71.434 L 63.68 71.368 L 63.625 71.294 L 63.578 71.228 L 63.578 71.228 L 63.578 71.228 Z  M 63.578 71.228 L 63.578 71.228 L 63.578 71.228 L 63.578 71.228 Z  M 61.439 64.061 L 62.265 64.193 L 62.265 64.193 L 62.23 64.466 L 62.203 64.739 L 62.183 65.004 L 62.179 65.265 L 62.183 65.522 L 62.199 65.776 L 62.222 66.025 L 62.253 66.271 L 62.292 66.508 L 62.339 66.746 L 62.39 66.98 L 62.448 67.202 L 62.514 67.42 L 62.592 67.642 L 62.666 67.861 L 62.748 68.067 L 62.834 68.274 L 62.92 68.469 L 63.013 68.663 L 63.107 68.858 L 63.204 69.045 L 63.302 69.221 L 63.403 69.396 L 63.504 69.575 L 63.602 69.739 L 63.703 69.899 L 63.8 70.051 L 63.902 70.203 L 63.995 70.351 L 64.093 70.491 L 64.182 70.628 L 64.272 70.76 L 63.578 71.228 L 63.489 71.095 L 63.399 70.959 L 63.302 70.818 L 63.2 70.663 L 63.099 70.511 L 62.994 70.343 L 62.892 70.175 L 62.779 69.996 L 62.678 69.817 L 62.569 69.634 L 62.464 69.435 L 62.359 69.232 L 62.257 69.03 L 62.156 68.819 L 62.062 68.601 L 61.969 68.379 L 61.879 68.149 L 61.797 67.915 L 61.719 67.677 L 61.645 67.428 L 61.579 67.175 L 61.521 66.917 L 61.466 66.656 L 61.427 66.387 L 61.388 66.119 L 61.365 65.838 L 61.349 65.554 L 61.345 65.265 L 61.349 64.973 L 61.369 64.669 L 61.396 64.373 L 61.439 64.061 L 61.439 64.061 L 61.439 64.061 Z  M 65.87 57.931 L 66.431 58.554 L 66.435 58.55 L 66.271 58.699 L 66.108 58.847 L 65.94 58.987 L 65.78 59.131 L 65.609 59.275 L 65.441 59.419 L 65.277 59.564 L 65.118 59.708 L 64.946 59.856 L 64.783 60.004 L 64.627 60.148 L 64.467 60.3 L 64.311 60.456 L 64.155 60.612 L 64.003 60.772 L 63.855 60.928 L 63.719 61.095 L 63.578 61.263 L 63.446 61.434 L 63.317 61.614 L 63.192 61.793 L 63.076 61.98 L 62.959 62.171 L 62.857 62.366 L 62.756 62.568 L 62.662 62.783 L 62.577 62.997 L 62.499 63.215 L 62.425 63.453 L 62.362 63.687 L 62.308 63.936 L 62.265 64.193 L 61.439 64.061 L 61.489 63.773 L 61.552 63.492 L 61.622 63.219 L 61.704 62.958 L 61.79 62.701 L 61.891 62.455 L 62 62.218 L 62.109 61.984 L 62.234 61.758 L 62.359 61.543 L 62.491 61.333 L 62.631 61.13 L 62.776 60.935 L 62.924 60.741 L 63.072 60.557 L 63.231 60.374 L 63.395 60.195 L 63.555 60.027 L 63.719 59.864 L 63.882 59.7 L 64.05 59.54 L 64.221 59.38 L 64.393 59.232 L 64.556 59.084 L 64.724 58.932 L 64.896 58.788 L 65.063 58.644 L 65.227 58.5 L 65.394 58.356 L 65.554 58.215 L 65.71 58.075 L 65.866 57.935 L 65.87 57.931 L 65.87 57.931 Z  M 65.866 57.935 L 65.87 57.931 L 65.889 57.915 L 65.866 57.935 L 65.866 57.935 Z  M 68.142 56.119 L 68.625 56.797 L 68.625 56.797 L 68.559 56.847 L 68.477 56.91 L 68.403 56.96 L 68.337 57.007 L 68.263 57.062 L 68.189 57.116 L 68.118 57.171 L 68.048 57.225 L 67.974 57.28 L 67.904 57.335 L 67.83 57.389 L 67.764 57.44 L 67.698 57.49 L 67.627 57.549 L 67.553 57.607 L 67.483 57.662 L 67.417 57.713 L 67.355 57.767 L 67.288 57.822 L 67.218 57.88 L 67.144 57.939 L 67.082 57.989 L 67.023 58.04 L 66.949 58.106 L 66.879 58.161 L 66.821 58.211 L 66.751 58.274 L 66.684 58.328 L 66.626 58.375 L 66.563 58.434 L 66.493 58.5 L 66.431 58.554 L 65.87 57.931 L 65.94 57.868 L 66.002 57.818 L 66.065 57.759 L 66.139 57.689 L 66.205 57.635 L 66.267 57.58 L 66.341 57.514 L 66.412 57.459 L 66.47 57.409 L 66.544 57.342 L 66.622 57.284 L 66.68 57.233 L 66.751 57.175 L 66.817 57.12 L 66.895 57.058 L 66.969 56.999 L 67.039 56.945 L 67.105 56.894 L 67.175 56.836 L 67.249 56.777 L 67.323 56.719 L 67.397 56.664 L 67.468 56.61 L 67.542 56.555 L 67.612 56.501 L 67.69 56.446 L 67.764 56.391 L 67.838 56.337 L 67.92 56.275 L 67.994 56.224 L 68.06 56.177 L 68.142 56.119 L 68.142 56.119 L 68.142 56.119 Z  M 74.358 55.441 L 74.116 56.243 L 74.12 56.243 L 73.968 56.2 L 73.804 56.158 L 73.645 56.115 L 73.485 56.08 L 73.313 56.045 L 73.146 56.013 L 72.978 55.986 L 72.799 55.959 L 72.627 55.939 L 72.448 55.92 L 72.273 55.904 L 72.097 55.896 L 71.91 55.889 L 71.731 55.885 L 71.552 55.889 L 71.369 55.896 L 71.189 55.912 L 71.01 55.928 L 70.827 55.951 L 70.648 55.978 L 70.476 56.013 L 70.293 56.056 L 70.114 56.099 L 69.942 56.15 L 69.771 56.204 L 69.603 56.271 L 69.432 56.341 L 69.264 56.419 L 69.104 56.501 L 68.941 56.594 L 68.781 56.691 L 68.625 56.797 L 68.142 56.119 L 68.329 55.99 L 68.512 55.877 L 68.699 55.768 L 68.898 55.663 L 69.097 55.577 L 69.291 55.491 L 69.49 55.417 L 69.693 55.347 L 69.896 55.289 L 70.098 55.238 L 70.297 55.195 L 70.507 55.152 L 70.71 55.125 L 70.917 55.094 L 71.119 55.078 L 71.322 55.063 L 71.528 55.055 L 71.731 55.051 L 71.934 55.055 L 72.129 55.063 L 72.327 55.07 L 72.526 55.086 L 72.721 55.105 L 72.916 55.133 L 73.103 55.16 L 73.294 55.187 L 73.477 55.226 L 73.656 55.261 L 73.839 55.304 L 74.015 55.347 L 74.186 55.39 L 74.354 55.441 L 74.358 55.441 L 74.358 55.441 Z  M 74.354 55.441 L 74.358 55.441 L 75.09 55.659 L 74.354 55.441 Z " fill="rgb(0,0,0)"/><path d=" M 74.237 55.842 C 77.612 56.843 80.936 58.956 83.376 61.769 C 83.531 61.949 86.782 68.293 86.934 68.476 C 87.109 68.698 89.439 69.373 89.607 69.606 C 90.94 71.458 92.849 70.589 93.22 72.825 C 94.128 78.313 85.659 82.405 78.438 82.085 C 77.768 82.054 75.055 79.731 75.332 80.238 C 75.367 80.304 76.68 77.249 76.014 76.984 C 75.761 76.886 73.812 76.699 73.535 76.652 C 70.238 76.122 68.57 74.79 66.108 72.95 C 65.519 72.51 64.319 71.575 63.925 70.994 C 63.002 69.626 61.361 67.26 61.852 64.127 C 62.316 61.169 64.471 59.782 66.15 58.243 C 66.844 57.619 67.581 57.031 68.383 56.458 C 70.184 55.176 72.534 55.339 74.237 55.842 L 74.237 55.842 Z " fill-rule="evenodd" fill="rgb(252,208,164)"/></g><g id="Group"><path d=" M 63.625 91.052 C 59.806 91.122 54.147 86.364 48.161 79.758 C 40.024 70.783 32.133 68.96 26.423 61.703 C 23.945 58.55 21.201 54.599 12.83 48.098 L 20.48 44.178 C 23.399 46.567 45.507 63.585 47.99 64.521 C 59.062 69.875 65.309 74.357 69.58 79.186 L 63.625 91.052 L 63.625 91.052 Z " fill-rule="evenodd" fill="none" vector-effect="non-scaling-stroke" stroke-width="0.838" stroke="rgb(0,0,0)" stroke-linejoin="miter" stroke-linecap="butt" stroke-miterlimit="22.9256"/><path d=" M 63.625 91.052 C 59.806 91.122 54.147 86.364 48.161 79.758 C 40.024 70.783 32.133 68.96 26.423 61.703 C 23.945 58.55 21.201 54.599 12.83 48.098 L 20.48 44.178 C 23.399 46.567 45.507 63.585 47.99 64.521 C 59.062 69.875 65.309 74.357 69.58 79.186 L 63.625 91.052 L 63.625 91.052 Z " fill-rule="evenodd" fill="rgb(252,208,164)"/></g><g id="Group"><path d=" M 92.923 59.326 C 89.104 59.4 80.344 55.803 74.358 49.197 C 66.221 40.222 60.878 39.178 55.172 31.925 C 52.69 28.769 49.163 27.37 40.792 20.869 L 43.146 13.812 C 44.147 14.63 49.818 18.445 54.868 20.495 C 60.044 22.596 64.108 25.207 67.125 27.576 C 74.276 33.188 73.508 33.434 81.961 38.192 C 85.11 39.965 87.779 41.672 90.044 43.363 C 92.417 45.133 101.996 51.902 103.582 53.695 L 92.374 61.274 L 92.923 59.326 L 92.923 59.326 Z " fill-rule="evenodd" fill="none" vector-effect="non-scaling-stroke" stroke-width="0.838" stroke="rgb(0,0,0)" stroke-linejoin="miter" stroke-linecap="butt" stroke-miterlimit="22.9256"/><path d=" M 92.923 59.326 C 89.104 59.4 80.344 55.803 74.358 49.197 C 66.221 40.222 60.878 39.178 55.172 31.925 C 52.69 28.769 49.163 27.37 40.792 20.869 L 43.146 13.812 C 44.147 14.63 49.818 18.445 54.868 20.495 C 60.044 22.596 64.108 25.207 67.125 27.576 C 74.276 33.188 73.508 33.434 81.961 38.192 C 85.11 39.965 87.779 41.672 90.044 43.363 C 92.417 45.133 101.996 51.902 103.582 53.695 L 92.374 61.274 L 92.923 59.326 L 92.923 59.326 Z " fill-rule="evenodd" fill="rgb(252,208,164)"/></g><g id="Group"><path d=" M 12.83 48.098 C 8.656 45.304 6.186 39.716 4.888 32.214 C 4.409 27.494 5.169 23.399 7.83 20.25 C 13.746 15.199 15.909 16.076 16.852 18.878 C 16.692 24.026 16.088 30.008 18.126 31.037 C 19.171 31.922 21.985 27.9 23.914 26.329 C 26.244 24.938 28.087 27.113 26.642 29.661 C 23.672 34.914 23.941 44.182 20.48 44.178 L 12.83 48.098 L 12.83 48.098 Z " fill-rule="evenodd" fill="none" vector-effect="non-scaling-stroke" stroke-width="0.838" stroke="rgb(0,0,0)" stroke-linejoin="miter" stroke-linecap="butt" stroke-miterlimit="22.9256"/><path d=" M 12.83 48.098 C 8.656 45.304 6.186 39.716 4.888 32.214 C 4.409 27.494 5.169 23.399 7.83 20.25 C 13.746 15.199 15.909 16.076 16.852 18.878 C 16.692 24.026 16.088 30.008 18.126 31.037 C 19.171 31.922 21.985 27.9 23.914 26.329 C 26.244 24.938 28.087 27.113 26.642 29.661 C 23.672 34.914 23.941 44.182 20.48 44.178 L 12.83 48.098 L 12.83 48.098 Z " fill-rule="evenodd" fill="rgb(26,26,26)"/></g><g id="Group"><path d=" M 44.818 14.205 C 42.666 10.137 37.807 7.358 31.092 5.464 C 26.836 4.579 23.029 4.887 19.907 7.015 C 14.744 11.929 15.34 13.983 17.803 15.106 C 22.511 15.448 28.021 15.464 28.766 17.417 C 29.471 18.457 25.543 20.639 23.929 22.249 C 22.441 24.244 24.315 26.279 26.708 25.051 C 31.283 22.705 36.03 22.845 40.519 20.807 L 44.818 14.205 Z " fill-rule="evenodd" fill="none" vector-effect="non-scaling-stroke" stroke-width="0.838" stroke="rgb(0,0,0)" stroke-linejoin="miter" stroke-linecap="butt" stroke-miterlimit="22.9256"/><path d=" M 44.818 14.205 C 42.666 10.137 37.807 7.358 31.092 5.464 C 26.836 4.579 23.029 4.887 19.907 7.015 C 14.744 11.929 15.34 13.983 17.803 15.106 C 22.511 15.448 28.021 15.464 28.766 17.417 C 29.471 18.457 25.543 20.639 23.929 22.249 C 22.441 24.244 24.315 26.279 26.708 25.051 C 31.283 22.705 36.03 22.845 40.519 20.807 L 44.818 14.205 Z " fill-rule="evenodd" fill="rgb(26,26,26)"/></g><g id="Group"><path d=" M 203.621 179.653 L 212.518 166.048 C 224.466 175.413 223.909 181.235 232.506 185.689 C 238.796 187.069 238.62 187.416 243.34 189.774 C 245.904 197.182 243.141 199.415 236.29 197.93 C 215.842 184.941 212.358 187.357 203.621 179.653 L 203.621 179.653 Z " fill-rule="evenodd" fill="none" vector-effect="non-scaling-stroke" stroke-width="0.838" stroke="rgb(0,0,0)" stroke-linejoin="miter" stroke-linecap="butt" stroke-miterlimit="22.9256"/><path d=" M 203.621 179.653 L 212.518 166.048 C 224.466 175.413 223.909 181.235 232.506 185.689 C 238.796 187.069 238.62 187.416 243.34 189.774 C 245.904 197.182 243.141 199.415 236.29 197.93 C 215.842 184.941 212.358 187.357 203.621 179.653 L 203.621 179.653 Z " fill-rule="evenodd" fill="rgb(157,16,0)"/></g><g id="Group"><path d=" M 203.586 179.828 C 209.669 176.972 213.204 172.739 212.487 166.223 C 211.832 165.709 211.173 165.011 210.441 164.474 L 210.441 164.474 C 205.008 160.514 205.363 160.701 201.197 155.654 C 192.545 145.171 179.692 134.361 189.045 146.185 L 179.447 157.272 C 180.807 158.453 186.407 163.059 192.132 168.32 C 196.076 171.94 199.688 176.387 203.586 179.828 Z " fill-rule="evenodd" fill="none" vector-effect="non-scaling-stroke" stroke-width="0.838" stroke="rgb(0,0,0)" stroke-linejoin="miter" stroke-linecap="butt" stroke-miterlimit="22.9256"/><path d=" M 203.586 179.828 C 209.669 176.972 213.204 172.739 212.487 166.223 C 211.832 165.709 211.173 165.011 210.441 164.474 L 210.441 164.474 C 205.008 160.514 205.363 160.701 201.197 155.654 C 192.545 145.171 179.692 134.361 189.045 146.185 L 179.447 157.272 C 180.807 158.453 186.407 163.059 192.132 168.32 C 196.076 171.94 199.688 176.387 203.586 179.828 Z " fill-rule="evenodd" fill="rgb(252,208,164)"/></g><g id="Group"><path d=" M 234.762 186.769 C 241.621 190.233 243.85 193.238 240.456 195.678 C 239.092 196.656 235.647 195.584 233.585 198.339 C 235.546 199.91 235.741 203.047 239.47 203.047 C 244.556 207.077 248.636 213.078 253.932 214.676 C 259.673 216.402 260.772 210.908 259.466 205.795 C 258.913 203.612 256.758 201.099 250.483 197.735 C 245.818 194.505 244.17 182.911 237.666 185.089 C 236.793 185.382 235.83 185.923 234.762 186.769 L 234.762 186.769 Z " fill-rule="evenodd" fill="none" vector-effect="non-scaling-stroke" stroke-width="0.838" stroke="rgb(0,0,0)" stroke-linejoin="miter" stroke-linecap="butt" stroke-miterlimit="22.9256"/><path d=" M 234.762 186.769 C 241.621 190.233 243.85 193.238 240.456 195.678 C 239.092 196.656 235.647 195.584 233.585 198.339 C 235.546 199.91 235.741 203.047 239.47 203.047 C 244.556 207.077 248.636 213.078 253.932 214.676 C 259.673 216.402 260.772 210.908 259.466 205.795 C 258.913 203.612 256.758 201.099 250.483 197.735 C 245.818 194.505 244.17 182.911 237.666 185.089 C 236.793 185.382 235.83 185.923 234.762 186.769 L 234.762 186.769 Z " fill-rule="evenodd" fill="rgb(0,0,0)"/></g><g id="Group"><path d=" M 250.939 141.948 C 256.672 147.065 260.284 148.043 261.313 143.99 C 261.73 142.365 259.474 139.548 261.282 136.625 C 263.461 137.876 266.454 136.913 267.814 140.382 C 273.425 143.644 280.503 145.249 283.924 149.598 C 287.627 154.306 282.915 157.338 277.677 157.993 C 275.444 158.273 272.315 157.186 266.894 152.576 C 262.182 149.411 250.787 152.116 250.44 145.265 C 250.394 144.345 250.546 143.25 250.939 141.948 L 250.939 141.948 Z " fill-rule="evenodd" fill="none" vector-effect="non-scaling-stroke" stroke-width="0.838" stroke="rgb(0,0,0)" stroke-linejoin="miter" stroke-linecap="butt" stroke-miterlimit="22.9256"/><path d=" M 250.939 141.948 C 256.672 147.065 260.284 148.043 261.313 143.99 C 261.73 142.365 259.474 139.548 261.282 136.625 C 263.461 137.876 266.454 136.913 267.814 140.382 C 273.425 143.644 280.503 145.249 283.924 149.598 C 287.627 154.306 282.915 157.338 277.677 157.993 C 275.444 158.273 272.315 157.186 266.894 152.576 C 262.182 149.411 250.787 152.116 250.44 145.265 C 250.394 144.345 250.546 143.25 250.939 141.948 L 250.939 141.948 Z " fill-rule="evenodd" fill="rgb(0,0,0)"/></g><g id="Group"><path d=" M 222.599 134.4 L 232.023 119.61 C 240.589 123.083 241.878 128.55 261.937 137.888 C 266.878 142.86 266.586 145.803 258.967 147.634 C 254.435 144.93 254.236 145.265 249.684 140.709 C 241.824 136.173 235.362 138.312 222.599 134.4 L 222.599 134.4 Z " fill-rule="evenodd" fill="none" vector-effect="non-scaling-stroke" stroke-width="0.838" stroke="rgb(0,0,0)" stroke-linejoin="miter" stroke-linecap="butt" stroke-miterlimit="22.9256"/><path d=" M 222.599 134.4 L 232.023 119.61 C 240.589 123.083 241.878 128.55 261.937 137.888 C 266.878 142.86 266.586 145.803 258.967 147.634 C 254.435 144.93 254.236 145.265 249.684 140.709 C 241.824 136.173 235.362 138.312 222.599 134.4 L 222.599 134.4 Z " fill-rule="evenodd" fill="rgb(157,16,0)"/></g><g id="Group"><path d=" M 222.599 134.4 C 232.997 131.512 234.396 126.091 232.023 119.61 C 230.472 118.983 228.679 118.418 226.497 117.907 C 222.116 116.89 221.633 118.141 217.424 116.372 C 198.987 108.628 194.774 109.68 197.151 111.337 L 192.985 125.393 C 177.985 123.889 192.218 128.651 205.709 130.288 C 212.206 131.079 211.216 130.175 217.479 132.615 C 219.295 133.324 220.998 133.909 222.599 134.4 L 222.599 134.4 Z " fill-rule="evenodd" fill="none" vector-effect="non-scaling-stroke" stroke-width="0.838" stroke="rgb(0,0,0)" stroke-linejoin="miter" stroke-linecap="butt" stroke-miterlimit="22.9256"/><path d=" M 222.599 134.4 C 232.997 131.512 234.396 126.091 232.023 119.61 C 230.472 118.983 228.679 118.418 226.497 117.907 C 222.116 116.89 221.633 118.141 217.424 116.372 C 198.987 108.628 194.774 109.68 197.151 111.337 L 192.985 125.393 C 177.985 123.889 192.218 128.651 205.709 130.288 C 212.206 131.079 211.216 130.175 217.479 132.615 C 219.295 133.324 220.998 133.909 222.599 134.4 L 222.599 134.4 Z " fill-rule="evenodd" fill="rgb(252,208,164)"/></g><g id="Group"><path d=" M 155.024 93.207 C 162.311 91.072 171.781 94.236 182.678 100.074 C 195.542 106.329 201.314 105.487 204.462 105.569 C 205.367 105.592 207.159 112.319 208.172 112.33 C 208.359 114.291 205.265 111.095 205.581 112.151 C 207.639 118.959 202.701 122.997 199.42 127.977 C 199.147 128.39 198.886 128.811 198.64 129.24 C 198.235 129.949 201.243 128.827 200.951 129.595 C 200.105 129.372 195.967 131.044 195.242 130.884 C 191.364 130.023 188.874 129.879 183.656 128.519 C 175.628 126.422 173.009 126.091 175.678 127.747 C 191.528 137.572 183.89 135.994 193.27 144.988 C 195.608 150.736 190.682 151.874 186.033 162.307 C 185.565 163.363 187.841 163.488 187.385 164.746 C 186.31 163.476 182.654 163.336 181.684 162.467 C 173.134 154.801 166.244 155.214 158.332 150.331 C 146.649 143.117 143.566 138.632 138.422 133.125 L 155.024 93.207 L 155.024 93.207 Z " fill-rule="evenodd" fill="none" vector-effect="non-scaling-stroke" stroke-width="0.838" stroke="rgb(0,0,0)" stroke-linejoin="miter" stroke-linecap="butt" stroke-miterlimit="22.9256"/><path d=" M 155.024 93.207 C 162.311 91.072 171.781 94.236 182.678 100.074 C 195.542 106.329 201.314 105.487 204.462 105.569 C 205.367 105.592 207.159 112.319 208.172 112.33 C 208.359 114.291 205.265 111.095 205.581 112.151 C 207.639 118.959 202.701 122.997 199.42 127.977 C 199.147 128.39 198.886 128.811 198.64 129.24 C 198.235 129.949 201.243 128.827 200.951 129.595 C 200.105 129.372 195.967 131.044 195.242 130.884 C 191.364 130.023 188.874 129.879 183.656 128.519 C 175.628 126.422 173.009 126.091 175.678 127.747 C 191.528 137.572 183.89 135.994 193.27 144.988 C 195.608 150.736 190.682 151.874 186.033 162.307 C 185.565 163.363 187.841 163.488 187.385 164.746 C 186.31 163.476 182.654 163.336 181.684 162.467 C 173.134 154.801 166.244 155.214 158.332 150.331 C 146.649 143.117 143.566 138.632 138.422 133.125 L 155.024 93.207 L 155.024 93.207 Z " fill-rule="evenodd" fill="rgb(0,0,0)"/></g><g id="Group"><path d=" M 75.971 78.628 C 78.091 79.221 77.347 78.617 79.1 78.971 C 89.79 81.142 87.616 75.924 88.913 70.928 C 88.98 70.659 88.66 69.412 88.87 69.213 C 89.634 68.5 89.74 67.915 90.527 67.888 C 91.595 67.849 88.859 66.36 88.286 65.487 C 83.609 58.437 83.317 57.389 81.556 55.137 C 89.619 56.672 89.28 51.493 94.665 46.731 C 97.035 47.915 103.742 51.446 109.806 57.307 C 110.156 57.646 110.593 57.872 110.967 58.157 C 126.914 70.288 122.46 84.034 152.085 91.068 C 153.352 91.372 155.838 91.177 157.88 91.224 C 158.839 91.247 161.711 92.728 162.331 92.72 C 161.622 93.843 158.96 93.426 158.352 94.419 C 156.735 97.046 155.445 99.224 154.412 101.044 C 151.957 105.386 149.338 121.843 146.357 126.22 C 143.757 130.027 145.328 136.173 147.074 142.042 C 146.006 141.987 143.134 139.774 141.836 138.745 C 139.241 136.699 136.598 133.577 135.566 132.817 C 127.806 127.112 123.278 123.461 120.106 122.147 C 117.132 120.92 90.429 113.913 84.042 111.099 C 79.307 109.018 77.226 107.541 72.608 103.503 C 69.958 101.192 69.576 99.353 65.18 96.243 C 62.951 94.669 61.856 93.558 61.182 92.892 C 58.598 90.327 59.588 89.836 59.455 90.168 C 61.486 85.265 65.885 88.375 65.753 75.429 C 69.19 76.208 76.15 83.118 75.971 78.628 L 75.971 78.628 Z " fill-rule="evenodd" fill="none" vector-effect="non-scaling-stroke" stroke-width="0.838" stroke="rgb(0,0,0)" stroke-linejoin="miter" stroke-linecap="butt" stroke-miterlimit="22.9256"/><path d=" M 75.971 78.628 C 78.091 79.221 77.347 78.617 79.1 78.971 C 89.79 81.142 87.616 75.924 88.913 70.928 C 88.98 70.659 88.66 69.412 88.87 69.213 C 89.634 68.5 89.74 67.915 90.527 67.888 C 91.595 67.849 88.859 66.36 88.286 65.487 C 83.609 58.437 83.317 57.389 81.556 55.137 C 89.619 56.672 89.28 51.493 94.665 46.731 C 97.035 47.915 103.742 51.446 109.806 57.307 C 110.156 57.646 110.593 57.872 110.967 58.157 C 126.914 70.288 122.46 84.034 152.085 91.068 C 153.352 91.372 155.838 91.177 157.88 91.224 C 158.839 91.247 161.711 92.728 162.331 92.72 C 161.622 93.843 158.96 93.426 158.352 94.419 C 156.735 97.046 155.445 99.224 154.412 101.044 C 151.957 105.386 149.338 121.843 146.357 126.22 C 143.757 130.027 145.328 136.173 147.074 142.042 C 146.006 141.987 143.134 139.774 141.836 138.745 C 139.241 136.699 136.598 133.577 135.566 132.817 C 127.806 127.112 123.278 123.461 120.106 122.147 C 117.132 120.92 90.429 113.913 84.042 111.099 C 79.307 109.018 77.226 107.541 72.608 103.503 C 69.958 101.192 69.576 99.353 65.18 96.243 C 62.951 94.669 61.856 93.558 61.182 92.892 C 58.598 90.327 59.588 89.836 59.455 90.168 C 61.486 85.265 65.885 88.375 65.753 75.429 C 69.19 76.208 76.15 83.118 75.971 78.628 L 75.971 78.628 Z " fill-rule="evenodd" fill="rgb(157,16,0)"/></g></g></g></svg>