<?xml version="1.0" standalone="no"?><!-- Generator: Gravit.io --><svg xmlns="http://www.w3.org/2000/svg" xmlns:xlink="http://www.w3.org/1999/xlink" style="isolation:isolate" viewBox="0 0 290 220" width="290" height="220"><defs><clipPath id="_clipPath_U6GVBxpqU0DbIFVCWLJ6iEXinNSszMfH"><rect width="290" height="220"/></clipPath></defs><g clip-path="url(#_clipPath_U6GVBxpqU0DbIFVCWLJ6iEXinNSszMfH)"><g id="b13"><g id="Group"><path d=" M 219.033 76.82 L 220.728 75.546 L 220.221 74.875 L 218.526 76.15 L 218.854 76.898 L 219.033 76.82 Z  M 218.526 76.15 L 217.112 77.214 L 218.854 76.898 L 218.526 76.15 Z  M 220.19 76.968 L 220.019 76.15 L 220.015 76.15 L 219.995 76.15 L 219.991 76.154 L 219.984 76.154 L 219.949 76.158 L 219.929 76.158 L 219.91 76.158 L 219.871 76.154 L 219.828 76.154 L 219.804 76.15 L 219.777 76.15 L 219.726 76.138 L 219.68 76.134 L 219.633 76.126 L 219.586 76.122 L 219.539 76.115 L 219.493 76.111 L 219.465 76.107 L 219.399 76.095 L 219.352 76.091 L 219.309 76.087 L 219.267 76.083 L 219.22 76.076 L 219.161 76.068 L 219.119 76.064 L 219.056 76.06 L 219.013 76.06 L 218.974 76.056 L 218.916 76.056 L 218.857 76.056 L 218.799 76.06 L 218.76 76.064 L 218.705 76.072 L 218.854 76.898 L 218.861 76.898 L 218.892 76.894 L 218.904 76.89 L 218.916 76.89 L 218.935 76.89 L 218.974 76.894 L 219.017 76.894 L 219.041 76.898 L 219.083 76.902 L 219.111 76.902 L 219.157 76.91 L 219.2 76.914 L 219.251 76.925 L 219.298 76.929 L 219.325 76.933 L 219.391 76.945 L 219.438 76.949 L 219.485 76.956 L 219.532 76.96 L 219.578 76.968 L 219.625 76.972 L 219.668 76.976 L 219.726 76.984 L 219.789 76.988 L 219.832 76.988 L 219.871 76.991 L 219.929 76.991 L 219.988 76.991 L 220.03 76.988 L 220.093 76.988 L 220.151 76.976 L 220.194 76.968 L 220.19 76.968 L 220.19 76.968 Z  M 230.884 68.188 L 230.136 67.814 L 230.178 67.748 L 229.8 68.243 L 229.434 68.718 L 229.083 69.174 L 228.74 69.614 L 228.409 70.035 L 228.086 70.44 L 227.774 70.826 L 227.466 71.2 L 227.17 71.555 L 226.87 71.894 L 226.581 72.221 L 226.297 72.529 L 226.012 72.825 L 225.736 73.102 L 225.459 73.367 L 225.179 73.624 L 224.902 73.858 L 224.621 74.084 L 224.337 74.299 L 224.052 74.501 L 223.764 74.692 L 223.472 74.871 L 223.171 75.043 L 222.868 75.203 L 222.548 75.347 L 222.221 75.491 L 221.889 75.62 L 221.543 75.741 L 221.18 75.854 L 220.806 75.959 L 220.42 76.06 L 220.019 76.15 L 220.19 76.968 L 220.615 76.871 L 221.024 76.769 L 221.422 76.656 L 221.808 76.536 L 222.178 76.407 L 222.54 76.263 L 222.891 76.111 L 223.234 75.951 L 223.569 75.776 L 223.892 75.596 L 224.216 75.401 L 224.528 75.195 L 224.836 74.977 L 225.136 74.747 L 225.44 74.505 L 225.732 74.248 L 226.028 73.983 L 226.32 73.702 L 226.613 73.41 L 226.905 73.106 L 227.205 72.783 L 227.501 72.447 L 227.801 72.101 L 228.113 71.738 L 228.421 71.356 L 228.74 70.963 L 229.064 70.557 L 229.403 70.129 L 229.746 69.688 L 230.097 69.225 L 230.463 68.749 L 230.841 68.254 L 230.884 68.188 L 230.884 68.188 Z  M 230.841 68.254 L 230.868 68.215 L 230.884 68.188 L 230.841 68.254 L 230.841 68.254 Z  M 228.378 57.993 L 227.622 58.352 L 227.641 58.391 L 227.938 58.874 L 228.218 59.338 L 228.487 59.774 L 228.74 60.199 L 228.974 60.596 L 229.2 60.982 L 229.407 61.349 L 229.602 61.699 L 229.781 62.038 L 229.945 62.358 L 230.097 62.666 L 230.233 62.962 L 230.354 63.243 L 230.459 63.515 L 230.553 63.776 L 230.634 64.03 L 230.701 64.271 L 230.751 64.509 L 230.79 64.747 L 230.818 64.969 L 230.833 65.191 L 230.833 65.409 L 230.822 65.635 L 230.798 65.857 L 230.759 66.08 L 230.712 66.31 L 230.65 66.539 L 230.572 66.781 L 230.486 67.027 L 230.381 67.28 L 230.264 67.541 L 230.136 67.814 L 230.884 68.188 L 231.028 67.892 L 231.153 67.607 L 231.266 67.323 L 231.367 67.046 L 231.453 66.773 L 231.523 66.504 L 231.585 66.235 L 231.624 65.967 L 231.655 65.698 L 231.667 65.433 L 231.667 65.168 L 231.652 64.891 L 231.617 64.622 L 231.57 64.353 L 231.511 64.077 L 231.437 63.796 L 231.348 63.511 L 231.246 63.219 L 231.125 62.923 L 230.997 62.619 L 230.853 62.307 L 230.693 61.984 L 230.521 61.649 L 230.334 61.302 L 230.14 60.943 L 229.925 60.569 L 229.699 60.176 L 229.458 59.77 L 229.204 59.345 L 228.935 58.901 L 228.655 58.437 L 228.359 57.954 L 228.378 57.993 L 228.378 57.993 Z  M 227.622 58.352 L 227.638 58.383 L 227.641 58.391 L 227.622 58.352 L 227.622 58.352 Z  M 217.614 52.311 L 217.848 53.114 L 217.79 53.126 L 218.316 53.063 L 218.822 53.02 L 219.317 53.001 L 219.789 53.001 L 220.245 53.024 L 220.689 53.067 L 221.114 53.13 L 221.527 53.204 L 221.924 53.301 L 222.306 53.41 L 222.673 53.535 L 223.023 53.675 L 223.362 53.831 L 223.69 53.999 L 224.005 54.174 L 224.306 54.365 L 224.594 54.564 L 224.871 54.774 L 225.136 54.992 L 225.389 55.222 L 225.631 55.46 L 225.864 55.706 L 226.087 55.955 L 226.297 56.208 L 226.496 56.469 L 226.687 56.734 L 226.866 56.999 L 227.034 57.268 L 227.197 57.541 L 227.349 57.81 L 227.489 58.083 L 227.622 58.352 L 228.378 57.993 L 228.238 57.701 L 228.082 57.412 L 227.922 57.12 L 227.751 56.832 L 227.567 56.54 L 227.373 56.251 L 227.166 55.971 L 226.952 55.686 L 226.718 55.409 L 226.48 55.137 L 226.231 54.875 L 225.966 54.614 L 225.681 54.361 L 225.393 54.119 L 225.085 53.886 L 224.765 53.663 L 224.434 53.457 L 224.087 53.258 L 223.729 53.075 L 223.351 52.904 L 222.961 52.748 L 222.556 52.607 L 222.135 52.49 L 221.698 52.385 L 221.254 52.303 L 220.79 52.233 L 220.307 52.19 L 219.812 52.167 L 219.302 52.167 L 218.776 52.186 L 218.23 52.229 L 217.673 52.299 L 217.614 52.311 L 217.614 52.311 Z  M 217.673 52.299 L 217.638 52.303 L 217.614 52.311 L 217.673 52.299 Z  M 208.799 59.33 L 209.485 58.847 L 209.45 59.373 L 209.75 59.053 L 210.046 58.741 L 210.342 58.437 L 210.635 58.141 L 210.923 57.849 L 211.211 57.568 L 211.5 57.299 L 211.784 57.034 L 212.065 56.777 L 212.345 56.528 L 212.622 56.282 L 212.899 56.052 L 213.172 55.826 L 213.44 55.608 L 213.709 55.398 L 213.97 55.199 L 214.235 55.004 L 214.493 54.821 L 214.75 54.646 L 215.003 54.474 L 215.256 54.314 L 215.506 54.166 L 215.755 54.022 L 216.001 53.886 L 216.239 53.761 L 216.476 53.644 L 216.714 53.535 L 216.948 53.434 L 217.174 53.34 L 217.404 53.258 L 217.626 53.18 L 217.848 53.114 L 217.614 52.311 L 217.369 52.385 L 217.123 52.471 L 216.878 52.561 L 216.62 52.662 L 216.371 52.771 L 216.118 52.888 L 215.857 53.013 L 215.596 53.153 L 215.342 53.297 L 215.085 53.441 L 214.82 53.605 L 214.551 53.773 L 214.282 53.952 L 214.017 54.135 L 213.744 54.326 L 213.472 54.529 L 213.195 54.735 L 212.918 54.953 L 212.642 55.179 L 212.361 55.405 L 212.076 55.651 L 211.792 55.896 L 211.504 56.154 L 211.215 56.419 L 210.923 56.691 L 210.635 56.968 L 210.338 57.257 L 210.042 57.549 L 209.742 57.853 L 209.446 58.165 L 209.142 58.476 L 208.834 58.804 L 208.799 59.33 L 208.799 59.33 Z  M 208.834 58.804 L 208.604 59.053 L 208.799 59.33 L 208.834 58.804 Z  M 220.818 74.969 L 209.485 58.847 L 208.799 59.33 L 220.132 75.452 L 220.728 75.546 L 220.818 74.969 L 220.818 74.969 Z  M 220.728 75.546 L 221.051 75.304 L 220.818 74.969 L 220.728 75.546 L 220.728 75.546 Z " fill="rgb(0,0,0)"/><path d=" M 220.475 75.211 L 218.779 76.485 C 219.103 76.426 219.785 76.629 220.104 76.559 C 224.598 75.608 226.414 73.367 230.51 68.001 C 232.026 64.93 231.231 63.445 228 58.172 C 226.581 55.199 223.604 51.879 217.731 52.713 C 215.256 53.422 212.377 55.612 209.142 59.088 L 220.475 75.211 L 220.475 75.211 Z " fill-rule="evenodd" fill="rgb(0,0,0)"/></g><g id="Group"><path d=" M 206.309 61.497 L 206.94 62.042 L 206.94 62.042 L 207.166 61.789 L 207.396 61.539 L 207.634 61.29 L 207.875 61.045 L 208.117 60.807 L 208.37 60.573 L 208.624 60.339 L 208.881 60.113 L 209.142 59.895 L 209.407 59.677 L 209.676 59.466 L 209.949 59.256 L 210.225 59.053 L 210.502 58.858 L 210.787 58.663 L 211.071 58.476 L 211.359 58.293 L 211.648 58.118 L 211.936 57.946 L 212.236 57.783 L 212.532 57.623 L 212.829 57.467 L 213.129 57.319 L 213.429 57.175 L 213.737 57.034 L 214.037 56.906 L 214.345 56.781 L 214.649 56.66 L 214.956 56.547 L 215.268 56.442 L 215.576 56.337 L 215.884 56.243 L 215.642 55.441 L 215.319 55.542 L 214.995 55.647 L 214.676 55.76 L 214.352 55.881 L 214.033 56.002 L 213.717 56.134 L 213.394 56.271 L 213.078 56.419 L 212.762 56.563 L 212.447 56.719 L 212.135 56.882 L 211.831 57.05 L 211.523 57.222 L 211.219 57.401 L 210.915 57.584 L 210.619 57.775 L 210.319 57.97 L 210.027 58.172 L 209.734 58.375 L 209.45 58.585 L 209.161 58.804 L 208.885 59.022 L 208.604 59.248 L 208.335 59.482 L 208.062 59.716 L 207.801 59.957 L 207.54 60.199 L 207.283 60.452 L 207.034 60.706 L 206.788 60.963 L 206.543 61.228 L 206.309 61.497 L 206.309 61.497 L 206.309 61.497 Z  M 202.739 68.215 L 203.394 68.737 L 203.39 68.745 L 203.448 68.656 L 203.491 68.582 L 203.553 68.476 L 203.628 68.336 L 203.709 68.184 L 203.807 68.005 L 203.916 67.794 L 204.033 67.572 L 204.161 67.331 L 204.298 67.069 L 204.438 66.801 L 204.586 66.516 L 204.742 66.224 L 204.898 65.924 L 205.054 65.62 L 205.214 65.316 L 205.373 65.012 L 205.533 64.708 L 205.689 64.408 L 205.841 64.115 L 205.989 63.835 L 206.129 63.562 L 206.266 63.305 L 206.394 63.063 L 206.511 62.837 L 206.621 62.638 L 206.714 62.455 L 206.8 62.303 L 206.87 62.175 L 206.924 62.081 L 206.956 62.023 L 206.94 62.042 L 206.309 61.497 L 206.246 61.586 L 206.2 61.66 L 206.137 61.769 L 206.067 61.898 L 205.981 62.058 L 205.88 62.241 L 205.771 62.448 L 205.654 62.674 L 205.525 62.915 L 205.389 63.172 L 205.249 63.445 L 205.101 63.726 L 204.949 64.018 L 204.793 64.318 L 204.633 64.622 L 204.473 64.926 L 204.313 65.238 L 204.158 65.534 L 204.002 65.834 L 203.846 66.126 L 203.698 66.411 L 203.557 66.68 L 203.421 66.941 L 203.292 67.182 L 203.175 67.405 L 203.066 67.607 L 202.969 67.787 L 202.887 67.946 L 202.821 68.071 L 202.766 68.161 L 202.731 68.227 L 202.743 68.207 L 202.739 68.215 L 202.739 68.215 Z  M 202.743 68.207 L 202.739 68.215 L 202.79 68.153 L 202.743 68.207 Z  M 200.054 69.361 L 200.732 69.852 L 200.732 69.852 L 200.701 69.891 L 200.689 69.899 L 200.693 69.899 L 200.74 69.871 L 200.798 69.844 L 200.853 69.817 L 200.935 69.786 L 201.013 69.751 L 201.098 69.716 L 201.207 69.677 L 201.305 69.634 L 201.41 69.599 L 201.523 69.556 L 201.632 69.517 L 201.753 69.474 L 201.87 69.431 L 201.987 69.388 L 202.096 69.345 L 202.217 69.306 L 202.334 69.264 L 202.447 69.221 L 202.556 69.178 L 202.649 69.143 L 202.755 69.104 L 202.848 69.065 L 202.942 69.026 L 203.027 68.987 L 203.09 68.956 L 203.164 68.921 L 203.238 68.874 L 203.304 68.827 L 203.394 68.737 L 202.739 68.215 L 202.782 68.172 L 202.778 68.172 L 202.766 68.18 L 202.723 68.2 L 202.661 68.231 L 202.599 68.262 L 202.529 68.293 L 202.443 68.324 L 202.353 68.363 L 202.252 68.398 L 202.151 68.441 L 202.045 68.476 L 201.936 68.519 L 201.823 68.558 L 201.698 68.601 L 201.582 68.644 L 201.465 68.687 L 201.352 68.73 L 201.235 68.769 L 201.122 68.811 L 201.009 68.854 L 200.896 68.897 L 200.802 68.936 L 200.701 68.971 L 200.599 69.014 L 200.518 69.053 L 200.432 69.088 L 200.358 69.131 L 200.296 69.158 L 200.206 69.213 L 200.132 69.275 L 200.054 69.361 L 200.054 69.361 L 200.054 69.361 Z  M 200.732 69.852 L 200.732 69.852 L 200.732 69.852 L 200.732 69.852 Z  M 196.367 72.755 L 197.193 72.896 L 197.193 72.896 L 197.229 72.712 L 197.267 72.56 L 197.314 72.42 L 197.369 72.295 L 197.419 72.19 L 197.486 72.089 L 197.544 72.007 L 197.614 71.933 L 197.692 71.859 L 197.77 71.793 L 197.856 71.73 L 197.949 71.672 L 198.051 71.613 L 198.156 71.559 L 198.269 71.508 L 198.39 71.458 L 198.515 71.403 L 198.647 71.352 L 198.787 71.294 L 198.928 71.232 L 199.076 71.169 L 199.224 71.095 L 199.372 71.021 L 199.524 70.939 L 199.684 70.842 L 199.84 70.741 L 199.992 70.624 L 200.147 70.495 L 200.296 70.355 L 200.444 70.207 L 200.592 70.039 L 200.732 69.852 L 200.054 69.361 L 199.945 69.509 L 199.828 69.638 L 199.711 69.762 L 199.594 69.871 L 199.477 69.969 L 199.356 70.055 L 199.232 70.14 L 199.111 70.214 L 198.982 70.281 L 198.857 70.347 L 198.725 70.405 L 198.592 70.468 L 198.46 70.522 L 198.335 70.573 L 198.195 70.631 L 198.062 70.686 L 197.926 70.744 L 197.79 70.811 L 197.653 70.881 L 197.521 70.955 L 197.388 71.037 L 197.256 71.13 L 197.131 71.235 L 197.014 71.348 L 196.897 71.477 L 196.792 71.621 L 196.695 71.777 L 196.605 71.945 L 196.535 72.124 L 196.465 72.319 L 196.41 72.533 L 196.367 72.755 L 196.367 72.755 L 196.367 72.755 Z  M 211.582 82.502 L 211.543 81.668 L 211.543 81.668 L 210.876 81.684 L 210.206 81.676 L 209.536 81.645 L 208.857 81.586 L 208.179 81.508 L 207.509 81.407 L 206.839 81.282 L 206.172 81.134 L 205.518 80.97 L 204.875 80.783 L 204.239 80.577 L 203.624 80.355 L 203.02 80.105 L 202.435 79.844 L 201.87 79.567 L 201.332 79.271 L 200.814 78.956 L 200.323 78.632 L 199.863 78.289 L 199.426 77.935 L 199.029 77.568 L 198.663 77.186 L 198.331 76.797 L 198.039 76.399 L 197.782 75.99 L 197.571 75.569 L 197.396 75.144 L 197.264 74.712 L 197.178 74.271 L 197.135 73.819 L 197.139 73.363 L 197.193 72.896 L 196.367 72.755 L 196.305 73.309 L 196.301 73.858 L 196.352 74.388 L 196.453 74.914 L 196.609 75.425 L 196.808 75.92 L 197.057 76.403 L 197.345 76.867 L 197.677 77.319 L 198.039 77.748 L 198.444 78.168 L 198.881 78.566 L 199.349 78.952 L 199.84 79.318 L 200.37 79.665 L 200.911 79.996 L 201.488 80.308 L 202.076 80.6 L 202.692 80.877 L 203.32 81.134 L 203.967 81.372 L 204.625 81.586 L 205.299 81.781 L 205.985 81.953 L 206.675 82.101 L 207.369 82.233 L 208.07 82.334 L 208.772 82.42 L 209.481 82.479 L 210.182 82.51 L 210.884 82.518 L 211.582 82.502 L 211.582 82.502 L 211.582 82.502 Z  M 211.582 82.502 L 211.582 82.502 L 211.582 82.502 L 211.582 82.502 Z  M 214.298 80.043 L 215.038 80.433 L 215.034 80.437 L 215.085 80.324 L 215.085 80.043 L 214.707 79.747 L 214.516 79.774 L 214.419 79.809 L 214.337 79.852 L 214.255 79.899 L 214.165 79.957 L 214.072 80.02 L 213.967 80.094 L 213.857 80.168 L 213.741 80.249 L 213.62 80.339 L 213.495 80.429 L 213.359 80.522 L 213.23 80.62 L 213.086 80.717 L 212.949 80.818 L 212.817 80.908 L 212.673 81.009 L 212.54 81.103 L 212.404 81.189 L 212.275 81.278 L 212.147 81.356 L 212.03 81.43 L 211.921 81.493 L 211.811 81.551 L 211.722 81.598 L 211.64 81.633 L 211.574 81.66 L 211.546 81.668 L 211.543 81.668 L 211.582 82.502 L 211.718 82.486 L 211.847 82.447 L 211.96 82.405 L 212.08 82.354 L 212.201 82.292 L 212.326 82.225 L 212.458 82.147 L 212.591 82.066 L 212.727 81.98 L 212.864 81.89 L 213.008 81.797 L 213.148 81.695 L 213.292 81.602 L 213.44 81.497 L 213.577 81.395 L 213.713 81.298 L 213.85 81.2 L 213.978 81.107 L 214.103 81.017 L 214.224 80.935 L 214.341 80.854 L 214.442 80.779 L 214.539 80.713 L 214.625 80.659 L 214.691 80.616 L 214.75 80.585 L 214.777 80.565 L 214.765 80.569 L 214.637 80.581 L 214.29 80.308 L 214.282 80.074 L 214.302 80.039 L 214.298 80.043 L 214.298 80.043 Z  M 214.302 80.039 L 214.298 80.043 L 214.243 80.148 L 214.302 80.039 L 214.302 80.039 Z  M 214.138 77.373 L 213.834 76.594 L 213.83 76.594 L 213.666 76.688 L 213.542 76.828 L 213.468 76.953 L 213.417 77.097 L 213.39 77.241 L 213.382 77.373 L 213.382 77.514 L 213.39 77.654 L 213.409 77.798 L 213.429 77.942 L 213.46 78.09 L 213.491 78.242 L 213.53 78.398 L 213.573 78.55 L 213.616 78.706 L 213.666 78.858 L 213.713 79.014 L 213.768 79.166 L 213.818 79.31 L 213.869 79.451 L 213.916 79.587 L 213.97 79.723 L 214.021 79.844 L 214.068 79.957 L 214.111 80.059 L 214.154 80.152 L 214.189 80.238 L 214.228 80.316 L 214.263 80.378 L 214.286 80.421 L 214.337 80.503 L 215.038 80.433 L 214.298 80.043 L 214.984 79.965 L 215.011 80.008 L 214.995 79.981 L 214.976 79.942 L 214.953 79.887 L 214.917 79.817 L 214.882 79.731 L 214.84 79.63 L 214.793 79.525 L 214.75 79.412 L 214.703 79.291 L 214.656 79.162 L 214.606 79.03 L 214.555 78.885 L 214.508 78.749 L 214.461 78.609 L 214.419 78.465 L 214.376 78.324 L 214.341 78.188 L 214.309 78.055 L 214.278 77.919 L 214.255 77.794 L 214.235 77.681 L 214.224 77.576 L 214.216 77.483 L 214.216 77.405 L 214.224 77.342 L 214.228 77.307 L 214.232 77.303 L 214.228 77.303 L 214.189 77.342 L 214.142 77.373 L 214.138 77.373 L 214.138 77.373 Z  M 213.834 76.594 L 213.83 76.594 L 213.717 76.641 L 213.834 76.594 L 213.834 76.594 Z  M 216.531 77.066 L 216.398 76.239 L 216.394 76.239 L 216.363 76.243 L 216.34 76.251 L 216.297 76.251 L 216.235 76.263 L 216.176 76.267 L 216.114 76.274 L 216.028 76.282 L 215.95 76.294 L 215.864 76.302 L 215.767 76.313 L 215.673 76.325 L 215.588 76.337 L 215.486 76.345 L 215.37 76.36 L 215.264 76.376 L 215.171 76.384 L 215.066 76.395 L 214.964 76.407 L 214.863 76.419 L 214.758 76.43 L 214.652 76.446 L 214.555 76.461 L 214.473 76.473 L 214.384 76.485 L 214.298 76.497 L 214.22 76.508 L 214.142 76.52 L 214.083 76.532 L 214.021 76.543 L 213.943 76.559 L 213.896 76.575 L 213.834 76.594 L 214.138 77.373 L 214.13 77.377 L 214.161 77.37 L 214.177 77.362 L 214.224 77.358 L 214.29 77.346 L 214.352 77.334 L 214.423 77.323 L 214.5 77.311 L 214.582 77.299 L 214.68 77.288 L 214.769 77.272 L 214.859 77.264 L 214.956 77.253 L 215.058 77.241 L 215.159 77.229 L 215.264 77.218 L 215.373 77.202 L 215.479 77.186 L 215.564 77.179 L 215.666 77.171 L 215.775 77.159 L 215.868 77.147 L 215.958 77.136 L 216.044 77.128 L 216.129 77.116 L 216.2 77.108 L 216.278 77.101 L 216.344 77.089 L 216.391 77.085 L 216.449 77.077 L 216.504 77.069 L 216.535 77.066 L 216.531 77.066 L 216.531 77.066 Z  M 216.398 76.239 L 216.394 76.239 L 216.32 76.251 L 216.398 76.239 Z  M 224.142 73.285 L 223.643 72.615 L 223.643 72.615 L 223.413 72.787 L 223.191 72.954 L 222.969 73.118 L 222.751 73.281 L 222.536 73.433 L 222.33 73.589 L 222.119 73.741 L 221.917 73.886 L 221.71 74.034 L 221.507 74.17 L 221.305 74.306 L 221.102 74.439 L 220.899 74.567 L 220.701 74.688 L 220.494 74.809 L 220.288 74.926 L 220.081 75.039 L 219.871 75.148 L 219.66 75.249 L 219.438 75.351 L 219.224 75.448 L 219.002 75.538 L 218.764 75.631 L 218.534 75.717 L 218.296 75.795 L 218.047 75.869 L 217.79 75.939 L 217.528 76.009 L 217.256 76.072 L 216.979 76.134 L 216.695 76.189 L 216.398 76.239 L 216.531 77.066 L 216.843 77.015 L 217.15 76.953 L 217.443 76.89 L 217.731 76.82 L 218.008 76.75 L 218.281 76.672 L 218.546 76.59 L 218.807 76.504 L 219.06 76.411 L 219.306 76.317 L 219.551 76.22 L 219.789 76.115 L 220.019 76.006 L 220.245 75.896 L 220.471 75.779 L 220.693 75.659 L 220.915 75.534 L 221.129 75.405 L 221.344 75.277 L 221.554 75.14 L 221.765 75.008 L 221.975 74.864 L 222.186 74.719 L 222.4 74.571 L 222.61 74.419 L 222.821 74.267 L 223.035 74.112 L 223.249 73.952 L 223.468 73.788 L 223.69 73.624 L 223.912 73.457 L 224.142 73.285 L 224.142 73.285 L 224.142 73.285 Z  M 226.422 71.228 L 225.728 70.76 L 225.728 70.76 L 225.697 70.803 L 225.666 70.846 L 225.623 70.896 L 225.572 70.959 L 225.525 71.009 L 225.475 71.064 L 225.42 71.122 L 225.358 71.181 L 225.288 71.251 L 225.225 71.313 L 225.155 71.376 L 225.081 71.446 L 225.011 71.508 L 224.937 71.575 L 224.863 71.637 L 224.785 71.703 L 224.703 71.773 L 224.629 71.836 L 224.547 71.902 L 224.473 71.968 L 224.399 72.027 L 224.317 72.093 L 224.243 72.151 L 224.165 72.214 L 224.099 72.268 L 224.021 72.323 L 223.951 72.381 L 223.889 72.428 L 223.818 72.479 L 223.752 72.529 L 223.698 72.576 L 223.643 72.615 L 224.142 73.285 L 224.204 73.239 L 224.267 73.192 L 224.325 73.149 L 224.387 73.098 L 224.465 73.044 L 224.535 72.985 L 224.606 72.931 L 224.687 72.868 L 224.765 72.806 L 224.839 72.748 L 224.921 72.681 L 225.003 72.615 L 225.085 72.549 L 225.167 72.483 L 225.249 72.412 L 225.33 72.342 L 225.408 72.276 L 225.49 72.206 L 225.572 72.132 L 225.65 72.062 L 225.724 71.992 L 225.802 71.921 L 225.88 71.843 L 225.942 71.781 L 226.012 71.715 L 226.083 71.641 L 226.149 71.571 L 226.211 71.497 L 226.262 71.434 L 226.32 71.368 L 226.375 71.294 L 226.422 71.228 L 226.422 71.228 L 226.422 71.228 Z  M 226.422 71.228 L 226.422 71.228 L 226.422 71.228 L 226.422 71.228 Z  M 228.561 64.061 L 227.735 64.193 L 227.735 64.193 L 227.77 64.466 L 227.797 64.739 L 227.817 65.004 L 227.821 65.265 L 227.817 65.522 L 227.801 65.776 L 227.778 66.025 L 227.747 66.271 L 227.708 66.508 L 227.661 66.746 L 227.61 66.98 L 227.552 67.202 L 227.486 67.42 L 227.408 67.642 L 227.334 67.861 L 227.252 68.067 L 227.166 68.274 L 227.08 68.469 L 226.987 68.663 L 226.893 68.858 L 226.796 69.045 L 226.698 69.221 L 226.597 69.396 L 226.496 69.575 L 226.398 69.739 L 226.297 69.899 L 226.2 70.051 L 226.098 70.203 L 226.005 70.351 L 225.907 70.491 L 225.818 70.628 L 225.728 70.76 L 226.422 71.228 L 226.511 71.095 L 226.601 70.959 L 226.698 70.818 L 226.8 70.663 L 226.901 70.511 L 227.006 70.343 L 227.108 70.175 L 227.221 69.996 L 227.322 69.817 L 227.431 69.634 L 227.536 69.435 L 227.641 69.232 L 227.743 69.03 L 227.844 68.819 L 227.938 68.601 L 228.031 68.379 L 228.121 68.149 L 228.203 67.915 L 228.281 67.677 L 228.355 67.428 L 228.421 67.175 L 228.479 66.917 L 228.534 66.656 L 228.573 66.387 L 228.612 66.119 L 228.635 65.838 L 228.651 65.554 L 228.655 65.265 L 228.651 64.973 L 228.631 64.669 L 228.604 64.373 L 228.561 64.061 L 228.561 64.061 L 228.561 64.061 Z  M 224.13 57.931 L 223.569 58.554 L 223.565 58.55 L 223.729 58.699 L 223.892 58.847 L 224.06 58.987 L 224.22 59.131 L 224.391 59.275 L 224.559 59.419 L 224.723 59.564 L 224.882 59.708 L 225.054 59.856 L 225.217 60.004 L 225.373 60.148 L 225.533 60.3 L 225.689 60.456 L 225.845 60.612 L 225.997 60.772 L 226.145 60.928 L 226.281 61.095 L 226.422 61.263 L 226.554 61.434 L 226.683 61.614 L 226.807 61.793 L 226.924 61.98 L 227.041 62.171 L 227.143 62.366 L 227.244 62.568 L 227.338 62.783 L 227.423 62.997 L 227.501 63.215 L 227.575 63.453 L 227.638 63.687 L 227.692 63.936 L 227.735 64.193 L 228.561 64.061 L 228.511 63.773 L 228.448 63.492 L 228.378 63.219 L 228.296 62.958 L 228.21 62.701 L 228.109 62.455 L 228 62.218 L 227.891 61.984 L 227.766 61.758 L 227.641 61.543 L 227.509 61.333 L 227.369 61.13 L 227.224 60.935 L 227.076 60.741 L 226.928 60.557 L 226.769 60.374 L 226.605 60.195 L 226.445 60.027 L 226.281 59.864 L 226.118 59.7 L 225.95 59.54 L 225.779 59.38 L 225.607 59.232 L 225.444 59.084 L 225.276 58.932 L 225.104 58.788 L 224.937 58.644 L 224.773 58.5 L 224.606 58.356 L 224.446 58.215 L 224.29 58.075 L 224.134 57.935 L 224.13 57.931 L 224.13 57.931 Z  M 224.134 57.935 L 224.13 57.931 L 224.111 57.915 L 224.134 57.935 L 224.134 57.935 Z  M 221.858 56.119 L 221.375 56.797 L 221.375 56.797 L 221.441 56.847 L 221.523 56.91 L 221.597 56.96 L 221.663 57.007 L 221.737 57.062 L 221.811 57.116 L 221.882 57.171 L 221.952 57.225 L 222.026 57.28 L 222.096 57.335 L 222.17 57.389 L 222.236 57.44 L 222.302 57.49 L 222.373 57.549 L 222.447 57.607 L 222.517 57.662 L 222.583 57.713 L 222.645 57.767 L 222.712 57.822 L 222.782 57.88 L 222.856 57.939 L 222.918 57.989 L 222.977 58.04 L 223.051 58.106 L 223.121 58.161 L 223.179 58.211 L 223.249 58.274 L 223.316 58.328 L 223.374 58.375 L 223.437 58.434 L 223.507 58.5 L 223.569 58.554 L 224.13 57.931 L 224.06 57.868 L 223.998 57.818 L 223.935 57.759 L 223.861 57.689 L 223.795 57.635 L 223.733 57.58 L 223.659 57.514 L 223.588 57.459 L 223.53 57.409 L 223.456 57.342 L 223.378 57.284 L 223.32 57.233 L 223.249 57.175 L 223.183 57.12 L 223.105 57.058 L 223.031 56.999 L 222.961 56.945 L 222.895 56.894 L 222.825 56.836 L 222.751 56.777 L 222.677 56.719 L 222.603 56.664 L 222.532 56.61 L 222.458 56.555 L 222.388 56.501 L 222.31 56.446 L 222.236 56.391 L 222.162 56.337 L 222.08 56.275 L 222.006 56.224 L 221.94 56.177 L 221.858 56.119 L 221.858 56.119 L 221.858 56.119 Z  M 215.642 55.441 L 215.884 56.243 L 215.88 56.243 L 216.032 56.2 L 216.196 56.158 L 216.355 56.115 L 216.515 56.08 L 216.687 56.045 L 216.854 56.013 L 217.022 55.986 L 217.201 55.959 L 217.373 55.939 L 217.552 55.92 L 217.727 55.904 L 217.903 55.896 L 218.09 55.889 L 218.269 55.885 L 218.448 55.889 L 218.631 55.896 L 218.811 55.912 L 218.99 55.928 L 219.173 55.951 L 219.352 55.978 L 219.524 56.013 L 219.707 56.056 L 219.886 56.099 L 220.058 56.15 L 220.229 56.204 L 220.397 56.271 L 220.568 56.341 L 220.736 56.419 L 220.896 56.501 L 221.059 56.594 L 221.219 56.691 L 221.375 56.797 L 221.858 56.119 L 221.671 55.99 L 221.488 55.877 L 221.301 55.768 L 221.102 55.663 L 220.903 55.577 L 220.709 55.491 L 220.51 55.417 L 220.307 55.347 L 220.104 55.289 L 219.902 55.238 L 219.703 55.195 L 219.493 55.152 L 219.29 55.125 L 219.083 55.094 L 218.881 55.078 L 218.678 55.063 L 218.472 55.055 L 218.269 55.051 L 218.066 55.055 L 217.871 55.063 L 217.673 55.07 L 217.474 55.086 L 217.279 55.105 L 217.084 55.133 L 216.897 55.16 L 216.706 55.187 L 216.523 55.226 L 216.344 55.261 L 216.161 55.304 L 215.985 55.347 L 215.814 55.39 L 215.646 55.441 L 215.642 55.441 L 215.642 55.441 Z  M 215.646 55.441 L 215.642 55.441 L 214.91 55.659 L 215.646 55.441 Z " fill="rgb(0,0,0)"/><path d=" M 215.763 55.842 C 212.388 56.843 209.064 58.956 206.624 61.769 C 206.469 61.949 203.218 68.293 203.066 68.476 C 202.891 68.698 200.561 69.373 200.393 69.606 C 199.06 71.458 197.151 70.589 196.78 72.825 C 195.872 78.313 204.341 82.405 211.562 82.085 C 212.232 82.054 214.945 79.731 214.668 80.238 C 214.633 80.304 213.32 77.249 213.986 76.984 C 214.239 76.886 216.188 76.699 216.465 76.652 C 219.762 76.122 221.429 74.79 223.892 72.95 C 224.481 72.51 225.681 71.575 226.075 70.994 C 226.998 69.626 228.639 67.26 228.148 64.127 C 227.684 61.169 225.529 59.782 223.85 58.243 C 223.156 57.619 222.419 57.031 221.617 56.458 C 219.816 55.176 217.466 55.339 215.763 55.842 L 215.763 55.842 Z " fill-rule="evenodd" fill="rgb(252,208,164)"/></g><g id="Group"><path d=" M 226.375 91.052 C 230.194 91.122 235.853 86.364 241.839 79.758 C 249.976 70.783 257.867 68.96 263.577 61.703 C 266.055 58.55 268.799 54.599 277.17 48.098 L 269.52 44.178 C 266.601 46.567 244.493 63.585 242.01 64.521 C 230.938 69.875 224.691 74.357 220.42 79.186 L 226.375 91.052 L 226.375 91.052 Z " fill-rule="evenodd" fill="none" vector-effect="non-scaling-stroke" stroke-width="0.838" stroke="rgb(0,0,0)" stroke-linejoin="miter" stroke-linecap="butt" stroke-miterlimit="22.9256"/><path d=" M 226.375 91.052 C 230.194 91.122 235.853 86.364 241.839 79.758 C 249.976 70.783 257.867 68.96 263.577 61.703 C 266.055 58.55 268.799 54.599 277.17 48.098 L 269.52 44.178 C 266.601 46.567 244.493 63.585 242.01 64.521 C 230.938 69.875 224.691 74.357 220.42 79.186 L 226.375 91.052 L 226.375 91.052 Z " fill-rule="evenodd" fill="rgb(252,208,164)"/></g><g id="Group"><path d=" M 197.077 59.326 C 200.896 59.4 209.656 55.803 215.642 49.197 C 223.779 40.222 229.122 39.178 234.828 31.925 C 237.31 28.769 240.837 27.37 249.208 20.869 L 246.854 13.812 C 245.853 14.63 240.182 18.445 235.132 20.495 C 229.956 22.596 225.892 25.207 222.875 27.576 C 215.724 33.188 216.492 33.434 208.039 38.192 C 204.89 39.965 202.221 41.672 199.956 43.363 C 197.583 45.133 188.004 51.902 186.418 53.695 L 197.626 61.274 L 197.077 59.326 L 197.077 59.326 Z " fill-rule="evenodd" fill="none" vector-effect="non-scaling-stroke" stroke-width="0.838" stroke="rgb(0,0,0)" stroke-linejoin="miter" stroke-linecap="butt" stroke-miterlimit="22.9256"/><path d=" M 197.077 59.326 C 200.896 59.4 209.656 55.803 215.642 49.197 C 223.779 40.222 229.122 39.178 234.828 31.925 C 237.31 28.769 240.837 27.37 249.208 20.869 L 246.854 13.812 C 245.853 14.63 240.182 18.445 235.132 20.495 C 229.956 22.596 225.892 25.207 222.875 27.576 C 215.724 33.188 216.492 33.434 208.039 38.192 C 204.89 39.965 202.221 41.672 199.956 43.363 C 197.583 45.133 188.004 51.902 186.418 53.695 L 197.626 61.274 L 197.077 59.326 L 197.077 59.326 Z " fill-rule="evenodd" fill="rgb(252,208,164)"/></g><g id="Group"><path d=" M 277.17 48.098 C 281.344 45.304 283.814 39.716 285.112 32.214 C 285.591 27.494 284.831 23.399 282.17 20.25 C 276.254 15.199 274.091 16.076 273.148 18.878 C 273.308 24.026 273.912 30.008 271.874 31.037 C 270.829 31.922 268.015 27.9 266.086 26.329 C 263.756 24.938 261.913 27.113 263.358 29.661 C 266.328 34.914 266.059 44.182 269.52 44.178 L 277.17 48.098 L 277.17 48.098 Z " fill-rule="evenodd" fill="none" vector-effect="non-scaling-stroke" stroke-width="0.838" stroke="rgb(0,0,0)" stroke-linejoin="miter" stroke-linecap="butt" stroke-miterlimit="22.9256"/><path d=" M 277.17 48.098 C 281.344 45.304 283.814 39.716 285.112 32.214 C 285.591 27.494 284.831 23.399 282.17 20.25 C 276.254 15.199 274.091 16.076 273.148 18.878 C 273.308 24.026 273.912 30.008 271.874 31.037 C 270.829 31.922 268.015 27.9 266.086 26.329 C 263.756 24.938 261.913 27.113 263.358 29.661 C 266.328 34.914 266.059 44.182 269.52 44.178 L 277.17 48.098 L 277.17 48.098 Z " fill-rule="evenodd" fill="rgb(26,26,26)"/></g><g id="Group"><path d=" M 245.182 14.205 C 247.334 10.137 252.193 7.358 258.908 5.464 C 263.164 4.579 266.971 4.887 270.093 7.015 C 275.256 11.929 274.66 13.983 272.197 15.106 C 267.489 15.448 261.979 15.464 261.234 17.417 C 260.529 18.457 264.457 20.639 266.071 22.249 C 267.559 24.244 265.685 26.279 263.292 25.051 C 258.717 22.705 253.97 22.845 249.481 20.807 L 245.182 14.205 Z " fill-rule="evenodd" fill="none" vector-effect="non-scaling-stroke" stroke-width="0.838" stroke="rgb(0,0,0)" stroke-linejoin="miter" stroke-linecap="butt" stroke-miterlimit="22.9256"/><path d=" M 245.182 14.205 C 247.334 10.137 252.193 7.358 258.908 5.464 C 263.164 4.579 266.971 4.887 270.093 7.015 C 275.256 11.929 274.66 13.983 272.197 15.106 C 267.489 15.448 261.979 15.464 261.234 17.417 C 260.529 18.457 264.457 20.639 266.071 22.249 C 267.559 24.244 265.685 26.279 263.292 25.051 C 258.717 22.705 253.97 22.845 249.481 20.807 L 245.182 14.205 Z " fill-rule="evenodd" fill="rgb(26,26,26)"/></g><g id="Group"><path d=" M 86.379 179.653 L 77.482 166.048 C 65.534 175.413 66.091 181.235 57.494 185.689 C 51.204 187.069 51.38 187.416 46.66 189.774 C 44.096 197.182 46.859 199.415 53.71 197.93 C 74.158 184.941 77.642 187.357 86.379 179.653 L 86.379 179.653 Z " fill-rule="evenodd" fill="none" vector-effect="non-scaling-stroke" stroke-width="0.838" stroke="rgb(0,0,0)" stroke-linejoin="miter" stroke-linecap="butt" stroke-miterlimit="22.9256"/><path d=" M 86.379 179.653 L 77.482 166.048 C 65.534 175.413 66.091 181.235 57.494 185.689 C 51.204 187.069 51.38 187.416 46.66 189.774 C 44.096 197.182 46.859 199.415 53.71 197.93 C 74.158 184.941 77.642 187.357 86.379 179.653 L 86.379 179.653 Z " fill-rule="evenodd" fill="rgb(0,100,42)"/></g><g id="Group"><path d=" M 86.414 179.828 C 80.331 176.972 76.796 172.739 77.513 166.223 C 78.168 165.709 78.827 165.011 79.559 164.474 L 79.559 164.474 C 84.992 160.514 84.637 160.701 88.803 155.654 C 97.455 145.171 110.308 134.361 100.955 146.185 L 110.553 157.272 C 109.193 158.453 103.593 163.059 97.868 168.32 C 93.924 171.94 90.312 176.387 86.414 179.828 Z " fill-rule="evenodd" fill="none" vector-effect="non-scaling-stroke" stroke-width="0.838" stroke="rgb(0,0,0)" stroke-linejoin="miter" stroke-linecap="butt" stroke-miterlimit="22.9256"/><path d=" M 86.414 179.828 C 80.331 176.972 76.796 172.739 77.513 166.223 C 78.168 165.709 78.827 165.011 79.559 164.474 L 79.559 164.474 C 84.992 160.514 84.637 160.701 88.803 155.654 C 97.455 145.171 110.308 134.361 100.955 146.185 L 110.553 157.272 C 109.193 158.453 103.593 163.059 97.868 168.32 C 93.924 171.94 90.312 176.387 86.414 179.828 Z " fill-rule="evenodd" fill="rgb(252,208,164)"/></g><g id="Group"><path d=" M 55.238 186.769 C 48.379 190.233 46.15 193.238 49.544 195.678 C 50.908 196.656 54.353 195.584 56.415 198.339 C 54.454 199.91 54.259 203.047 50.53 203.047 C 45.444 207.077 41.364 213.078 36.068 214.676 C 30.327 216.402 29.228 210.908 30.534 205.795 C 31.087 203.612 33.242 201.099 39.517 197.735 C 44.182 194.505 45.83 182.911 52.334 185.089 C 53.207 185.382 54.17 185.923 55.238 186.769 L 55.238 186.769 Z " fill-rule="evenodd" fill="none" vector-effect="non-scaling-stroke" stroke-width="0.838" stroke="rgb(0,0,0)" stroke-linejoin="miter" stroke-linecap="butt" stroke-miterlimit="22.9256"/><path d=" M 55.238 186.769 C 48.379 190.233 46.15 193.238 49.544 195.678 C 50.908 196.656 54.353 195.584 56.415 198.339 C 54.454 199.91 54.259 203.047 50.53 203.047 C 45.444 207.077 41.364 213.078 36.068 214.676 C 30.327 216.402 29.228 210.908 30.534 205.795 C 31.087 203.612 33.242 201.099 39.517 197.735 C 44.182 194.505 45.83 182.911 52.334 185.089 C 53.207 185.382 54.17 185.923 55.238 186.769 L 55.238 186.769 Z " fill-rule="evenodd" fill="rgb(0,0,0)"/></g><g id="Group"><path d=" M 39.061 141.948 C 33.328 147.065 29.716 148.043 28.687 143.99 C 28.27 142.365 30.526 139.548 28.718 136.625 C 26.539 137.876 23.546 136.913 22.186 140.382 C 16.575 143.644 9.497 145.249 6.076 149.598 C 2.373 154.306 7.085 157.338 12.323 157.993 C 14.556 158.273 17.685 157.186 23.106 152.576 C 27.818 149.411 39.213 152.116 39.56 145.265 C 39.606 144.345 39.454 143.25 39.061 141.948 L 39.061 141.948 Z " fill-rule="evenodd" fill="none" vector-effect="non-scaling-stroke" stroke-width="0.838" stroke="rgb(0,0,0)" stroke-linejoin="miter" stroke-linecap="butt" stroke-miterlimit="22.9256"/><path d=" M 39.061 141.948 C 33.328 147.065 29.716 148.043 28.687 143.99 C 28.27 142.365 30.526 139.548 28.718 136.625 C 26.539 137.876 23.546 136.913 22.186 140.382 C 16.575 143.644 9.497 145.249 6.076 149.598 C 2.373 154.306 7.085 157.338 12.323 157.993 C 14.556 158.273 17.685 157.186 23.106 152.576 C 27.818 149.411 39.213 152.116 39.56 145.265 C 39.606 144.345 39.454 143.25 39.061 141.948 L 39.061 141.948 Z " fill-rule="evenodd" fill="rgb(0,0,0)"/></g><g id="Group"><path d=" M 67.4 134.4 L 57.977 119.61 C 49.411 123.083 48.122 128.55 28.063 137.888 C 23.122 142.86 23.414 145.803 31.033 147.634 C 35.565 144.93 35.764 145.265 40.316 140.709 C 48.176 136.173 54.637 138.312 67.4 134.4 L 67.4 134.4 Z " fill-rule="evenodd" fill="none" vector-effect="non-scaling-stroke" stroke-width="0.838" stroke="rgb(0,0,0)" stroke-linejoin="miter" stroke-linecap="butt" stroke-miterlimit="22.9256"/><path d=" M 67.4 134.4 L 57.977 119.61 C 49.411 123.083 48.122 128.55 28.063 137.888 C 23.122 142.86 23.414 145.803 31.033 147.634 C 35.565 144.93 35.764 145.265 40.316 140.709 C 48.176 136.173 54.637 138.312 67.4 134.4 L 67.4 134.4 Z " fill-rule="evenodd" fill="rgb(0,100,42)"/></g><g id="Group"><path d=" M 67.4 134.4 C 57.003 131.512 55.604 126.091 57.977 119.61 C 59.528 118.983 61.321 118.418 63.503 117.907 C 67.884 116.89 68.367 118.141 72.576 116.372 C 91.013 108.628 95.226 109.68 92.849 111.337 L 97.015 125.393 C 112.014 123.889 97.782 128.651 84.291 130.288 C 77.794 131.079 78.784 130.175 72.521 132.615 C 70.705 133.324 69.002 133.909 67.4 134.4 L 67.4 134.4 Z " fill-rule="evenodd" fill="none" vector-effect="non-scaling-stroke" stroke-width="0.838" stroke="rgb(0,0,0)" stroke-linejoin="miter" stroke-linecap="butt" stroke-miterlimit="22.9256"/><path d=" M 67.4 134.4 C 57.003 131.512 55.604 126.091 57.977 119.61 C 59.528 118.983 61.321 118.418 63.503 117.907 C 67.884 116.89 68.367 118.141 72.576 116.372 C 91.013 108.628 95.226 109.68 92.849 111.337 L 97.015 125.393 C 112.014 123.889 97.782 128.651 84.291 130.288 C 77.794 131.079 78.784 130.175 72.521 132.615 C 70.705 133.324 69.002 133.909 67.4 134.4 L 67.4 134.4 Z " fill-rule="evenodd" fill="rgb(252,208,164)"/></g><g id="Group"><path d=" M 134.976 93.207 C 127.689 91.072 118.219 94.236 107.322 100.074 C 94.458 106.329 88.686 105.487 85.538 105.569 C 84.633 105.592 82.841 112.319 81.828 112.33 C 81.64 114.291 84.735 111.095 84.419 112.151 C 82.361 118.959 87.299 122.997 90.58 127.977 C 90.853 128.39 91.114 128.811 91.36 129.24 C 91.765 129.949 88.757 128.827 89.049 129.595 C 89.895 129.372 94.033 131.044 94.758 130.884 C 98.636 130.023 101.126 129.879 106.344 128.519 C 114.372 126.422 116.991 126.091 114.322 127.747 C 98.472 137.572 106.11 135.994 96.73 144.988 C 94.392 150.736 99.318 151.874 103.967 162.307 C 104.435 163.363 102.159 163.488 102.615 164.746 C 103.69 163.476 107.346 163.336 108.316 162.467 C 116.866 154.801 123.756 155.214 131.668 150.331 C 143.351 143.117 146.434 138.632 151.578 133.125 L 134.976 93.207 L 134.976 93.207 Z " fill-rule="evenodd" fill="none" vector-effect="non-scaling-stroke" stroke-width="0.838" stroke="rgb(0,0,0)" stroke-linejoin="miter" stroke-linecap="butt" stroke-miterlimit="22.9256"/><path d=" M 134.976 93.207 C 127.689 91.072 118.219 94.236 107.322 100.074 C 94.458 106.329 88.686 105.487 85.538 105.569 C 84.633 105.592 82.841 112.319 81.828 112.33 C 81.64 114.291 84.735 111.095 84.419 112.151 C 82.361 118.959 87.299 122.997 90.58 127.977 C 90.853 128.39 91.114 128.811 91.36 129.24 C 91.765 129.949 88.757 128.827 89.049 129.595 C 89.895 129.372 94.033 131.044 94.758 130.884 C 98.636 130.023 101.126 129.879 106.344 128.519 C 114.372 126.422 116.991 126.091 114.322 127.747 C 98.472 137.572 106.11 135.994 96.73 144.988 C 94.392 150.736 99.318 151.874 103.967 162.307 C 104.435 163.363 102.159 163.488 102.615 164.746 C 103.69 163.476 107.346 163.336 108.316 162.467 C 116.866 154.801 123.756 155.214 131.668 150.331 C 143.351 143.117 146.434 138.632 151.578 133.125 L 134.976 93.207 L 134.976 93.207 Z " fill-rule="evenodd" fill="rgb(0,0,0)"/></g><g id="Group"><path d=" M 214.029 78.628 C 211.909 79.221 212.653 78.617 210.9 78.971 C 200.21 81.142 202.384 75.924 201.087 70.928 C 201.02 70.659 201.34 69.412 201.129 69.213 C 200.366 68.5 200.26 67.915 199.473 67.888 C 198.405 67.849 201.141 66.36 201.714 65.487 C 206.391 58.437 206.683 57.389 208.444 55.137 C 200.381 56.672 200.72 51.493 195.335 46.731 C 192.965 47.915 186.258 51.446 180.194 57.307 C 179.844 57.646 179.407 57.872 179.033 58.157 C 163.086 70.288 167.54 84.034 137.915 91.068 C 136.648 91.372 134.162 91.177 132.12 91.224 C 131.161 91.247 128.289 92.728 127.669 92.72 C 128.378 93.843 131.04 93.426 131.648 94.419 C 133.265 97.046 134.555 99.224 135.588 101.044 C 138.043 105.386 140.662 121.843 143.643 126.22 C 146.243 130.027 144.672 136.173 142.926 142.042 C 143.994 141.987 146.866 139.774 148.164 138.745 C 150.759 136.699 153.402 133.577 154.434 132.817 C 162.194 127.112 166.722 123.461 169.894 122.147 C 172.868 120.92 199.571 113.913 205.958 111.099 C 210.693 109.018 212.774 107.541 217.392 103.503 C 220.042 101.192 220.424 99.353 224.82 96.243 C 227.049 94.669 228.144 93.558 228.818 92.892 C 231.402 90.327 230.412 89.836 230.545 90.168 C 228.514 85.265 224.115 88.375 224.247 75.429 C 220.81 76.208 213.85 83.118 214.029 78.628 L 214.029 78.628 Z " fill-rule="evenodd" fill="none" vector-effect="non-scaling-stroke" stroke-width="0.838" stroke="rgb(0,0,0)" stroke-linejoin="miter" stroke-linecap="butt" stroke-miterlimit="22.9256"/><path d=" M 214.029 78.628 C 211.909 79.221 212.653 78.617 210.9 78.971 C 200.21 81.142 202.384 75.924 201.087 70.928 C 201.02 70.659 201.34 69.412 201.129 69.213 C 200.366 68.5 200.26 67.915 199.473 67.888 C 198.405 67.849 201.141 66.36 201.714 65.487 C 206.391 58.437 206.683 57.389 208.444 55.137 C 200.381 56.672 200.72 51.493 195.335 46.731 C 192.965 47.915 186.258 51.446 180.194 57.307 C 179.844 57.646 179.407 57.872 179.033 58.157 C 163.086 70.288 167.54 84.034 137.915 91.068 C 136.648 91.372 134.162 91.177 132.12 91.224 C 131.161 91.247 128.289 92.728 127.669 92.72 C 128.378 93.843 131.04 93.426 131.648 94.419 C 133.265 97.046 134.555 99.224 135.588 101.044 C 138.043 105.386 140.662 121.843 143.643 126.22 C 146.243 130.027 144.672 136.173 142.926 142.042 C 143.994 141.987 146.866 139.774 148.164 138.745 C 150.759 136.699 153.402 133.577 154.434 132.817 C 162.194 127.112 166.722 123.461 169.894 122.147 C 172.868 120.92 199.571 113.913 205.958 111.099 C 210.693 109.018 212.774 107.541 217.392 103.503 C 220.042 101.192 220.424 99.353 224.82 96.243 C 227.049 94.669 228.144 93.558 228.818 92.892 C 231.402 90.327 230.412 89.836 230.545 90.168 C 228.514 85.265 224.115 88.375 224.247 75.429 C 220.81 76.208 213.85 83.118 214.029 78.628 L 214.029 78.628 Z " fill-rule="evenodd" fill="rgb(0,100,42)"/></g></g></g></svg>