<?xml version="1.0" standalone="no"?><!-- Generator: Gravit.io --><svg xmlns="http://www.w3.org/2000/svg" xmlns:xlink="http://www.w3.org/1999/xlink" style="isolation:isolate" viewBox="0 0 130 100" width="130" height="100"><defs><clipPath id="_clipPath_Vt5ccxt1BHxvSdFeujxNIOUHVB3KHAft"><rect width="130" height="100"/></clipPath></defs><g clip-path="url(#_clipPath_Vt5ccxt1BHxvSdFeujxNIOUHVB3KHAft)"><path d=" M 40.735 82.256 C 40.735 75.223 43.881 69.512 47.756 69.512 C 51.631 69.512 54.776 75.223 54.776 82.256 C 54.776 89.29 51.631 95 47.756 95 C 43.881 95 40.735 89.29 40.735 82.256 Z " fill="rgb(0,0,0)" fill-opacity="0.9921568627450981"/><path d=" M 75.839 82.256 C 75.839 75.223 78.985 69.512 82.86 69.512 C 86.734 69.512 89.88 75.223 89.88 82.256 C 89.88 89.29 86.734 95 82.86 95 C 78.985 95 75.839 89.29 75.839 82.256 Z " fill="rgb(0,0,0)" fill-opacity="0.9921568627450981"/><path d=" M 51.266 71.21 C 51.266 62.777 56.771 55.931 63.552 55.931 C 70.333 55.931 75.839 62.777 75.839 71.21 C 75.839 79.643 70.333 86.489 63.552 86.489 C 56.771 86.489 51.266 79.643 51.266 71.21 Z " fill="rgb(128,128,128)"/><path d=" M 65.308 86.489 C 76.811 86.768 82.197 84.424 89.88 79.699 Q 98.141 74.618 107.432 59.326 L 121.474 59.326 Q 125.236 48.282 124.984 45.745 C 124.732 43.207 124.946 40.445 121.474 35.558 C 118.001 30.672 113.36 30.389 107.432 27.75 Q 101.504 25.111 86.37 21.977" fill="rgb(128,128,128)" vector-effect="non-scaling-stroke" stroke-width="0.69" stroke="rgb(0,0,0)" stroke-linejoin="miter" stroke-linecap="square" stroke-miterlimit="3"/><path d=" M 64.692 86.489 C 53.189 86.768 47.803 84.424 40.12 79.699 Q 31.859 74.618 22.568 59.326 L 8.526 59.326 Q 4.764 48.282 5.016 45.745 C 5.268 43.207 5.054 40.445 8.526 35.558 C 11.999 30.672 16.64 30.389 22.568 27.75 Q 28.496 25.111 43.63 21.977" fill="rgb(128,128,128)" vector-effect="non-scaling-stroke" stroke-width="0.69" stroke="rgb(0,0,0)" stroke-linejoin="miter" stroke-linecap="square" stroke-miterlimit="3"/><path d=" M 38.98 35.558 C 38.98 18.693 50.777 5 65.308 5 C 79.838 5 91.636 18.693 91.636 35.558 C 91.636 52.424 79.838 66.117 65.308 66.117 C 50.777 66.117 38.98 52.424 38.98 35.558 Z " fill="rgb(180,126,50)" vector-effect="non-scaling-stroke" stroke-width="0.69" stroke="rgb(0,0,0)" stroke-linejoin="miter" stroke-linecap="square" stroke-miterlimit="3"/><path d=" M 85.05 55.72 C 80.242 62.102 73.176 66.117 65.308 66.117 C 56.731 66.117 49.108 61.347 44.335 53.941 L 85.05 55.72 Z " fill="rgb(237,202,166)" vector-effect="non-scaling-stroke" stroke-width="0.69" stroke="rgb(0,0,0)" stroke-linejoin="miter" stroke-linecap="square" stroke-miterlimit="3"/><path d=" M 8.692 59.869 Q 10.806 68.471 12.652 72.908 C 14.198 76.624 15.279 79.97 17.917 83.094 C 20.434 86.074 22.611 89.265 26.693 89.885 C 27.917 90.07 29.013 90.269 30.204 89.885 C 31.919 89.332 32.92 88.025 33.714 86.489 C 35.652 82.741 31.742 79.775 30.204 76.303 C 29.117 73.85 27.799 71.958 26.693 69.512 Q 25.226 66.267 23.183 60.029" fill="rgb(236,199,163)" vector-effect="non-scaling-stroke" stroke-width="0.69" stroke="rgb(0,0,0)" stroke-linejoin="miter" stroke-linecap="square" stroke-miterlimit="3"/><path d=" M 121.474 59.326 Q 119.36 67.929 117.514 72.365 C 115.968 76.082 114.887 79.427 112.248 82.551 C 109.731 85.531 107.554 88.723 103.472 89.342 C 102.249 89.528 101.153 89.726 99.962 89.342 C 98.246 88.789 97.245 87.482 96.452 85.947 C 94.514 82.199 98.424 79.232 99.962 75.761 C 101.049 73.307 102.367 71.415 103.472 68.97 Q 104.939 65.725 106.983 59.487" fill="rgb(236,199,163)" vector-effect="non-scaling-stroke" stroke-width="0.69" stroke="rgb(0,0,0)" stroke-linejoin="miter" stroke-linecap="square" stroke-miterlimit="3"/><path d=" M 23.197 88.615 L 20.269 85.913 L 17.421 82.753 L 13.939 76.303 L 27.945 71.697 L 32.062 79.205 L 33.961 82.855 C 34.257 84.185 34.315 85.408 33.714 86.489 C 33.162 87.673 31.725 89.32 30.204 89.885 C 28.894 90.371 27.631 90.2 26.693 89.885 L 23.197 88.615 Z " fill="rgb(0,0,0)" fill-opacity="0.9921568627450981"/><path d=" M 106.905 88.615 L 109.833 85.913 L 112.681 82.753 L 116.162 76.303 L 102.157 71.697 L 98.04 79.205 L 96.141 82.855 C 95.845 84.185 95.786 85.408 96.388 86.489 C 96.94 87.673 98.377 89.32 99.898 89.885 C 101.207 90.371 102.471 90.2 103.408 89.885 L 106.905 88.615 Z " fill="rgb(0,0,0)" fill-opacity="0.9921568627450981"/></g></svg>