<?xml version="1.0" encoding="UTF-8" standalone="no"?>
<!-- Generator: Adobe Illustrator 19.0.0, SVG Export Plug-In . SVG Version: 6.00 Build 0)  -->

<svg
   xmlns:dc="http://purl.org/dc/elements/1.1/"
   xmlns:cc="http://creativecommons.org/ns#"
   xmlns:rdf="http://www.w3.org/1999/02/22-rdf-syntax-ns#"
   xmlns:svg="http://www.w3.org/2000/svg"
   xmlns="http://www.w3.org/2000/svg"
   xmlns:sodipodi="http://sodipodi.sourceforge.net/DTD/sodipodi-0.dtd"
   xmlns:inkscape="http://www.inkscape.org/namespaces/inkscape"
   version="1.1"
   id="Capa_1"
   x="0px"
   y="0px"
   viewBox="0 0 64 64"
   style="enable-background:new 0 0 64 64;"
   xml:space="preserve"
   sodipodi:docname="field.svg"
   inkscape:version="0.92.2 (5c3e80d, 2017-08-06)"><metadata
     id="metadata121"><rdf:RDF><cc:Work
         rdf:about=""><dc:format>image/svg+xml</dc:format><dc:type
           rdf:resource="http://purl.org/dc/dcmitype/StillImage" /></cc:Work></rdf:RDF></metadata><defs
     id="defs119" /><sodipodi:namedview
     pagecolor="#ffffff"
     bordercolor="#666666"
     borderopacity="1"
     objecttolerance="10"
     gridtolerance="10"
     guidetolerance="10"
     inkscape:pageopacity="0"
     inkscape:pageshadow="2"
     inkscape:window-width="640"
     inkscape:window-height="480"
     id="namedview117"
     showgrid="false"
     inkscape:zoom="3.6875"
     inkscape:cx="32"
     inkscape:cy="32"
     inkscape:window-x="0"
     inkscape:window-y="0"
     inkscape:window-maximized="0"
     inkscape:current-layer="Capa_1" /><g
     id="Soccer-field_1_"
     style="fill:#ffffff"><path
       id="Soccer-field"
       d="M55,0H9C8.448,0,8,0.448,8,1v62c0,0.552,0.448,1,1,1h46c0.553,0,1-0.448,1-1V1C56,0.448,55.553,0,55,0z    M34.5,9.917c0,1.286-1.121,2.333-2.5,2.333c-1.379,0-2.5-1.046-2.5-2.333c0-0.226,0.035-0.451,0.104-0.667h4.791   C34.465,9.466,34.5,9.691,34.5,9.917z M25.439,7.03v-5h13.122v5H25.439z M23.439,2v6.03c0,0.552,0.447,1,1,1h3.166   C27.542,9.322,27.5,9.618,27.5,9.917c0,2.389,2.018,4.333,4.5,4.333c2.481,0,4.5-1.943,4.5-4.333c0-0.3-0.042-0.596-0.105-0.887   h3.167c0.553,0,1-0.448,1-1V2H54v28.244H41.949c-0.503-5.046-4.773-9-9.949-9c-5.176,0-9.446,3.954-9.949,9H10V2H23.439z    M24.069,30.244c0.495-3.94,3.859-7,7.931-7s7.436,3.06,7.931,7H24.069z M39.931,32.244c-0.495,3.94-3.859,7-7.931,7   s-7.436-3.06-7.931-7H39.931z M29.5,53.833c0-1.286,1.121-2.333,2.5-2.333c1.379,0,2.5,1.046,2.5,2.333   c0,0.226-0.035,0.451-0.104,0.667h-4.791C29.535,54.284,29.5,54.059,29.5,53.833z M38.562,56.72v5H25.439v-5H38.562z M40.562,62   v-6.28c0-0.552-0.447-1-1-1h-3.167c0.063-0.292,0.105-0.587,0.105-0.887c0-2.389-2.019-4.333-4.5-4.333   c-2.482,0-4.5,1.943-4.5,4.333c0,0.3,0.042,0.596,0.105,0.887h-3.166c-0.553,0-1,0.448-1,1V62H10V32.244h12.051   c0.503,5.046,4.773,9,9.949,9c5.176,0,9.446-3.954,9.949-9H54V62H40.562z"
       style="fill:#ffffff" /></g><g
     id="g86" /><g
     id="g88" /><g
     id="g90" /><g
     id="g92" /><g
     id="g94" /><g
     id="g96" /><g
     id="g98" /><g
     id="g100" /><g
     id="g102" /><g
     id="g104" /><g
     id="g106" /><g
     id="g108" /><g
     id="g110" /><g
     id="g112" /><g
     id="g114" /></svg>