<?xml version="1.0" standalone="no"?><!-- Generator: Gravit.io --><svg xmlns="http://www.w3.org/2000/svg" xmlns:xlink="http://www.w3.org/1999/xlink" style="isolation:isolate" viewBox="0 0 50 50" width="50" height="50"><defs><clipPath id="_clipPath_sHX9JC8vBRXqPQE0GVD9Nf7kjV58YUjt"><rect width="50" height="50"/></clipPath></defs><g clip-path="url(#_clipPath_sHX9JC8vBRXqPQE0GVD9Nf7kjV58YUjt)"><path d=" M 25 0 C 38.798 0 50 11.202 50 25 C 50 38.798 38.798 50 25 50 C 11.202 50 0 38.798 0 25 C 0 11.202 11.202 0 25 0 Z " fill="rgb(247,186,89)"/><path d=" M 42.789 7.157 C 42.843 11.725 41.102 16.294 37.62 19.776 C 30.655 26.741 19.345 26.741 12.38 19.776 C 8.898 16.294 7.157 11.725 7.211 7.157" fill="none" vector-effect="non-scaling-stroke" stroke-width="0.5" stroke="rgb(255,255,255)" stroke-linejoin="miter" stroke-linecap="square" stroke-miterlimit="3"/><path d=" M 25.488 7.938 C 25.758 8.208 25.758 8.645 25.488 8.915 C 25.219 9.184 24.781 9.184 24.512 8.915 C 24.242 8.645 24.242 8.208 24.512 7.938 C 24.781 7.669 25.219 7.669 25.488 7.938 Z " fill="rgb(255,255,255)"/></g></svg>