<?xml version="1.0" standalone="no"?><!-- Generator: Gravit.io --><svg xmlns="http://www.w3.org/2000/svg" xmlns:xlink="http://www.w3.org/1999/xlink" style="isolation:isolate" viewBox="0 0 370 145" width="370" height="145"><defs><clipPath id="_clipPath_pqiwBpaN43kw3ItsHlWJM4OmrlCciivT"><rect width="370" height="145"/></clipPath></defs><g clip-path="url(#_clipPath_pqiwBpaN43kw3ItsHlWJM4OmrlCciivT)"><path d=" M 17.737 5 L 352.263 5 L 355.076 50 L 15.466 50 L 17.737 5 Z " fill="rgb(255,255,255)" fill-opacity="0.3"/><path d=" M 5.71 140 L 364.29 140 L 355.076 50 L 15.466 50 L 5.71 140 Z " fill="rgb(255,255,255)" fill-opacity="0.3"/><line x1="5.71" y1="140" x2="17.737" y2="5" vector-effect="non-scaling-stroke" stroke-width="3.75" stroke="rgb(0,0,0)" stroke-linejoin="miter" stroke-linecap="square" stroke-miterlimit="3"/><line x1="364.29" y1="140" x2="352.263" y2="5" vector-effect="non-scaling-stroke" stroke-width="3.75" stroke="rgb(0,0,0)" stroke-linejoin="miter" stroke-linecap="square" stroke-miterlimit="3"/><line x1="17.737" y1="5" x2="352.263" y2="5" vector-effect="non-scaling-stroke" stroke-width="3.75" stroke="rgb(0,0,0)" stroke-linejoin="miter" stroke-linecap="square" stroke-miterlimit="3"/><line x1="5.71" y1="140" x2="364.29" y2="140" vector-effect="non-scaling-stroke" stroke-width="3.75" stroke="rgb(0,0,0)" stroke-linejoin="miter" stroke-linecap="square" stroke-miterlimit="3"/><line x1="15.466" y1="50" x2="355.076" y2="50" vector-effect="non-scaling-stroke" stroke-width="3.75" stroke="rgb(0,0,0)" stroke-linejoin="miter" stroke-linecap="square" stroke-miterlimit="3"/><line x1="17.737" y1="5" x2="17.737" y2="95" vector-effect="non-scaling-stroke" stroke-width="3.75" stroke="rgb(0,0,0)" stroke-linejoin="miter" stroke-linecap="square" stroke-miterlimit="3"/><line x1="352.263" y1="5" x2="352.263" y2="95" vector-effect="non-scaling-stroke" stroke-width="3.75" stroke="rgb(0,0,0)" stroke-linejoin="miter" stroke-linecap="square" stroke-miterlimit="3"/><line x1="17.737" y1="95" x2="5.71" y2="140" vector-effect="non-scaling-stroke" stroke-width="3.75" stroke="rgb(0,0,0)" stroke-linejoin="miter" stroke-linecap="square" stroke-miterlimit="3"/><line x1="352.263" y1="95" x2="364.29" y2="140" vector-effect="non-scaling-stroke" stroke-width="3.75" stroke="rgb(0,0,0)" stroke-linejoin="miter" stroke-linecap="square" stroke-miterlimit="3"/></g></svg>