<?xml version="1.0" standalone="no"?><!-- Generator: Gravit.io --><svg xmlns="http://www.w3.org/2000/svg" xmlns:xlink="http://www.w3.org/1999/xlink" style="isolation:isolate" viewBox="0 0 35 35" width="35" height="35"><defs><clipPath id="_clipPath_5Te3GvSMHBLmb2jHY2JBUxVaONdCfGPq"><rect width="35" height="35"/></clipPath></defs><g clip-path="url(#_clipPath_5Te3GvSMHBLmb2jHY2JBUxVaONdCfGPq)"><path d=" M 2.501 17.5 C 2.501 9.221 9.222 2.5 17.501 2.5 C 25.78 2.5 32.501 9.221 32.501 17.5 C 32.501 25.779 25.78 32.5 17.501 32.5 C 9.222 32.5 2.501 25.779 2.501 17.5 Z " fill="rgb(52,152,219)"/><g id="53283"><g id="Group"><g id="Group"><path d=" M 28.105 6.892 C 26.728 5.515 25.124 4.435 23.337 3.678 C 21.487 2.897 19.524 2.5 17.498 2.5 C 15.475 2.503 13.511 2.897 11.662 3.682 C 9.875 4.438 8.271 5.519 6.894 6.896 C 5.517 8.273 4.436 9.876 3.679 11.663 C 2.898 13.512 2.501 15.476 2.501 17.502 C 2.501 19.525 2.898 21.491 3.679 23.34 C 4.436 25.127 5.517 26.731 6.894 28.108 C 8.271 29.485 9.875 30.565 11.662 31.322 C 13.511 32.103 15.475 32.5 17.501 32.5 C 19.524 32.5 21.49 32.103 23.34 31.322 C 25.127 30.565 26.731 29.485 28.108 28.108 C 29.485 26.731 30.566 25.127 31.322 23.34 C 32.104 21.491 32.501 19.528 32.501 17.502 C 32.501 15.479 32.104 13.512 31.322 11.663 C 30.563 9.873 29.482 8.273 28.105 6.892 Z  M 9.197 5.887 C 9.333 5.783 9.465 5.673 9.604 5.575 C 10.332 5.065 11.138 4.652 11.958 4.309 C 13.704 3.578 15.601 3.193 17.498 3.193 C 18.761 3.193 20.056 3.363 21.276 3.697 C 20.794 3.893 20.205 4.265 19.215 5.109 C 18.393 5.021 17.561 5.018 16.726 5.096 C 15.635 5.2 14.539 5.443 13.467 5.821 C 12.5 6.161 11.734 6.549 11.217 6.845 C 10.426 6.562 9.405 6.228 8.901 6.064 C 8.98 6.089 9.144 5.928 9.197 5.887 Z  M 22.861 9.637 L 20.296 16.638 L 14.142 17.82 L 9.055 12.567 C 9.399 10.185 11.031 8.074 11.031 8.074 C 11.041 8.068 12.106 7.299 13.814 6.703 C 14.81 6.354 15.824 6.13 16.836 6.035 C 17.662 5.96 18.484 5.972 19.297 6.07 L 22.861 9.637 Z  M 3.739 17.001 C 3.582 18.018 3.547 19.074 3.629 20.136 C 3.506 19.89 3.408 19.682 3.336 19.515 C 3.241 18.857 3.194 18.182 3.194 17.495 C 3.194 15.384 3.651 13.377 4.473 11.572 C 4.382 12.517 4.426 13.497 4.492 14.24 C 4.139 15.126 3.887 16.049 3.739 17.001 Z  M 4.984 22.455 C 4.839 21.922 4.669 21.147 4.584 20.218 C 4.489 19.168 4.518 18.125 4.675 17.127 C 4.795 16.361 4.987 15.617 5.252 14.902 C 6.289 14.026 7.663 13.512 8.422 13.276 L 13.414 18.431 L 12.89 24.081 L 8.012 25.71 C 6.771 24.796 5.756 23.586 4.984 22.455 Z  M 19.808 30.635 C 18.72 31.347 15.972 31.517 14.857 31.558 C 13.628 31.328 12.434 30.934 11.309 30.392 C 10.325 29.919 9.393 29.333 8.542 28.646 C 8.557 28.618 8.409 27.115 8.416 26.567 L 13.344 24.922 L 19.032 27.383 L 19.817 30.625 C 19.811 30.632 19.808 30.635 19.808 30.635 Z  M 29.258 25.647 C 28.41 26.869 27.396 28.007 26.176 28.87 C 25.032 29.677 23.501 29.954 22.139 30.178 C 22.035 30.194 20.734 30.408 20.725 30.364 L 19.94 27.118 L 23.945 22.95 L 29.249 22.461 C 29.331 23.306 29.438 24.538 29.501 25.291 C 29.419 25.41 29.34 25.53 29.258 25.647 Z  M 29.34 21.406 C 29.321 21.437 29.302 21.472 29.283 21.51 L 24.002 21.995 L 21.159 17.023 L 23.731 10.006 L 27.361 10.236 C 28.133 10.881 28.817 11.6 29.397 12.375 C 30.122 13.349 30.686 14.417 31.07 15.548 C 30.667 19.052 29.737 20.797 29.34 21.406 Z  M 31.234 13.522 C 30.922 12.92 30.556 12.34 30.144 11.789 C 29.491 10.916 28.716 10.113 27.837 9.397 C 27.676 8.6 27.235 7.346 26.05 6.029 C 26.072 6.045 26.094 6.064 26.116 6.079 C 26.189 6.133 26.258 6.19 26.331 6.243 C 27.147 6.886 27.891 7.614 28.549 8.414 C 29.772 9.905 30.695 11.635 31.237 13.49 C 31.234 13.503 31.234 13.512 31.234 13.522 Z " fill="rgb(0,0,0)"/></g></g></g></g></svg>