<?xml version="1.0" standalone="no"?><!-- Generator: Gravit.io --><svg xmlns="http://www.w3.org/2000/svg" xmlns:xlink="http://www.w3.org/1999/xlink" style="isolation:isolate" viewBox="0 0 228 55" width="228" height="55"><defs><clipPath id="_clipPath_Vh6KZvYsYMEeXh6hsy9jviebYL2IcW7k"><rect width="228" height="55"/></clipPath></defs><g clip-path="url(#_clipPath_Vh6KZvYsYMEeXh6hsy9jviebYL2IcW7k)"><rect x="14" y="7.5" width="40" height="40" transform="matrix(1,0,0,1,0,0)" fill="none" vector-effect="non-scaling-stroke" stroke-width="4.444" stroke="rgb(231,76,60)" stroke-linejoin="miter" stroke-linecap="square" stroke-miterlimit="3"/><rect x="54" y="7.5" width="40" height="40" transform="matrix(1,0,0,1,0,0)" fill="none" vector-effect="non-scaling-stroke" stroke-width="4.444" stroke="rgb(231,76,60)" stroke-linejoin="miter" stroke-linecap="square" stroke-miterlimit="3"/><rect x="94" y="7.5" width="40" height="40" transform="matrix(1,0,0,1,0,0)" fill="none" vector-effect="non-scaling-stroke" stroke-width="4.444" stroke="rgb(231,76,60)" stroke-linejoin="miter" stroke-linecap="square" stroke-miterlimit="3"/><rect x="134" y="7.5" width="40" height="40" transform="matrix(1,0,0,1,0,0)" fill="none" vector-effect="non-scaling-stroke" stroke-width="4.444" stroke="rgb(231,76,60)" stroke-linejoin="miter" stroke-linecap="square" stroke-miterlimit="3"/><rect x="174" y="7.5" width="40" height="40" transform="matrix(1,0,0,1,0,0)" fill="none" vector-effect="non-scaling-stroke" stroke-width="4.444" stroke="rgb(231,76,60)" stroke-linejoin="miter" stroke-linecap="square" stroke-miterlimit="3"/><line x1="7.333" y1="7.5" x2="220.667" y2="7.5" vector-effect="non-scaling-stroke" stroke-width="4.444" stroke="rgb(0,0,0)" stroke-linejoin="miter" stroke-linecap="square" stroke-miterlimit="3"/><line x1="7.333" y1="47.5" x2="220.667" y2="47.5" vector-effect="non-scaling-stroke" stroke-width="4.444" stroke="rgb(0,0,0)" stroke-linejoin="miter" stroke-linecap="square" stroke-miterlimit="3"/><line x1="11.778" y1="9.722" x2="11.778" y2="45.278" vector-effect="non-scaling-stroke" stroke-width="0.5" stroke="rgb(0,0,0)" stroke-linejoin="miter" stroke-linecap="square" stroke-miterlimit="3"/><line x1="16.222" y1="9.722" x2="16.222" y2="45.278" vector-effect="non-scaling-stroke" stroke-width="0.5" stroke="rgb(0,0,0)" stroke-linejoin="miter" stroke-linecap="square" stroke-miterlimit="3"/><line x1="51.778" y1="9.722" x2="51.778" y2="45.278" vector-effect="non-scaling-stroke" stroke-width="0.5" stroke="rgb(0,0,0)" stroke-linejoin="miter" stroke-linecap="square" stroke-miterlimit="3"/><line x1="56.222" y1="9.722" x2="56.222" y2="45.278" vector-effect="non-scaling-stroke" stroke-width="0.5" stroke="rgb(0,0,0)" stroke-linejoin="miter" stroke-linecap="square" stroke-miterlimit="3"/><line x1="91.778" y1="9.722" x2="91.778" y2="45.278" vector-effect="non-scaling-stroke" stroke-width="0.5" stroke="rgb(0,0,0)" stroke-linejoin="miter" stroke-linecap="square" stroke-miterlimit="3"/><line x1="96.222" y1="9.722" x2="96.222" y2="45.278" vector-effect="non-scaling-stroke" stroke-width="0.5" stroke="rgb(0,0,0)" stroke-linejoin="miter" stroke-linecap="square" stroke-miterlimit="3"/><line x1="136.222" y1="9.722" x2="136.222" y2="45.278" vector-effect="non-scaling-stroke" stroke-width="0.5" stroke="rgb(0,0,0)" stroke-linejoin="miter" stroke-linecap="square" stroke-miterlimit="3"/><line x1="131.778" y1="9.722" x2="131.778" y2="45.278" vector-effect="non-scaling-stroke" stroke-width="0.5" stroke="rgb(0,0,0)" stroke-linejoin="miter" stroke-linecap="square" stroke-miterlimit="3"/><line x1="171.778" y1="9.722" x2="171.778" y2="45.278" vector-effect="non-scaling-stroke" stroke-width="0.5" stroke="rgb(0,0,0)" stroke-linejoin="miter" stroke-linecap="square" stroke-miterlimit="3"/><line x1="176.222" y1="9.722" x2="176.222" y2="45.278" vector-effect="non-scaling-stroke" stroke-width="0.5" stroke="rgb(0,0,0)" stroke-linejoin="miter" stroke-linecap="square" stroke-miterlimit="3"/><line x1="211.778" y1="9.722" x2="211.778" y2="45.278" vector-effect="non-scaling-stroke" stroke-width="0.5" stroke="rgb(0,0,0)" stroke-linejoin="miter" stroke-linecap="square" stroke-miterlimit="3"/><line x1="216.222" y1="9.722" x2="216.222" y2="45.278" vector-effect="non-scaling-stroke" stroke-width="0.5" stroke="rgb(0,0,0)" stroke-linejoin="miter" stroke-linecap="square" stroke-miterlimit="3"/></g></svg>