<?xml version="1.0" standalone="no"?><!-- Generator: Gravit.io --><svg xmlns="http://www.w3.org/2000/svg" xmlns:xlink="http://www.w3.org/1999/xlink" style="isolation:isolate" viewBox="0 0 67 25" width="67" height="25"><defs><clipPath id="_clipPath_vtaE7YaJNx1VHrUrhgLAkQOf6N0afGa4"><rect width="67" height="25"/></clipPath></defs><g clip-path="url(#_clipPath_vtaE7YaJNx1VHrUrhgLAkQOf6N0afGa4)"><rect x="2.5" y="2.5" width="8.68" height="20" transform="matrix(1,0,0,1,0,0)" fill="rgb(46,204,113)"/><rect x="55.82" y="2.5" width="8.68" height="20" transform="matrix(1,0,0,1,0,0)" fill="rgb(46,204,113)"/><rect x="29.125" y="-15.445" width="8.75" height="44.64" transform="matrix(0,1,-1,0,40.375,-26.625)" fill="rgb(46,204,113)"/><line x1="2.5" y1="2.5" x2="64.5" y2="2.5" vector-effect="non-scaling-stroke" stroke-width="0.5" stroke="rgb(0,0,0)" stroke-linejoin="miter" stroke-linecap="square" stroke-miterlimit="3"/><line x1="64.5" y1="2.5" x2="64.5" y2="22.5" vector-effect="non-scaling-stroke" stroke-width="0.5" stroke="rgb(0,0,0)" stroke-linejoin="miter" stroke-linecap="square" stroke-miterlimit="3"/><line x1="64.5" y1="22.5" x2="55.82" y2="22.5" vector-effect="non-scaling-stroke" stroke-width="0.5" stroke="rgb(0,0,0)" stroke-linejoin="miter" stroke-linecap="square" stroke-miterlimit="3"/><line x1="55.82" y1="22.5" x2="55.82" y2="11.25" vector-effect="non-scaling-stroke" stroke-width="0.5" stroke="rgb(0,0,0)" stroke-linejoin="miter" stroke-linecap="square" stroke-miterlimit="3"/><line x1="55.82" y1="11.25" x2="11.18" y2="11.25" vector-effect="non-scaling-stroke" stroke-width="0.5" stroke="rgb(0,0,0)" stroke-linejoin="miter" stroke-linecap="square" stroke-miterlimit="3"/><line x1="2.5" y1="2.5" x2="2.5" y2="22.5" vector-effect="non-scaling-stroke" stroke-width="0.5" stroke="rgb(0,0,0)" stroke-linejoin="miter" stroke-linecap="square" stroke-miterlimit="3"/><line x1="2.5" y1="22.5" x2="11.18" y2="22.5" vector-effect="non-scaling-stroke" stroke-width="0.5" stroke="rgb(0,0,0)" stroke-linejoin="miter" stroke-linecap="square" stroke-miterlimit="3"/><line x1="11.18" y1="22.5" x2="11.18" y2="11.25" vector-effect="non-scaling-stroke" stroke-width="0.5" stroke="rgb(0,0,0)" stroke-linejoin="miter" stroke-linecap="square" stroke-miterlimit="3"/></g></svg>