<?xml version="1.0" standalone="no"?><!-- Generator: Gravit.io --><svg xmlns="http://www.w3.org/2000/svg" xmlns:xlink="http://www.w3.org/1999/xlink" style="isolation:isolate" viewBox="0 0 35 33" width="35" height="33"><defs><clipPath id="_clipPath_buXV5rdwS0CZIiMRVOMNLgUUuOhOHbbz"><rect width="35" height="33"/></clipPath></defs><g clip-path="url(#_clipPath_buXV5rdwS0CZIiMRVOMNLgUUuOhOHbbz)"><path d=" M 2.5 16.5 C 2.5 8.718 9.221 2.4 17.5 2.4 C 25.779 2.4 32.5 8.718 32.5 16.5 C 32.5 24.282 25.779 30.6 17.5 30.6 C 9.221 30.6 2.5 24.282 2.5 16.5 Z " fill="rgb(255,255,255)" vector-effect="non-scaling-stroke" stroke-width="0.5" stroke="rgb(0,0,0)" stroke-linejoin="miter" stroke-linecap="square" stroke-miterlimit="3"/><path d="M 8.198 11.4 L 26.802 11.4 C 29.947 11.4 32.5 13.685 32.5 16.5 L 32.5 16.5 C 32.5 19.315 29.947 21.6 26.802 21.6 L 8.198 21.6 C 5.053 21.6 2.5 19.315 2.5 16.5 L 2.5 16.5 C 2.5 13.685 5.053 11.4 8.198 11.4 Z" style="stroke:none;fill:#000000;stroke-miterlimit:10;"/><g transform="matrix(0.6,0,0,0.6,13.3,12.415)"><text transform="matrix(1,0,0,1,0,10.688)" style="font-family:&quot;Open Sans&quot;;font-weight:700;font-size:10px;font-style:normal;fill:#ffffff;stroke:none;">KG</text></g></g></svg>