<?xml version="1.0" standalone="no"?><!-- Generator: Gravit.io --><svg xmlns="http://www.w3.org/2000/svg" xmlns:xlink="http://www.w3.org/1999/xlink" style="isolation:isolate" viewBox="0 0 35 33" width="35" height="33"><defs><clipPath id="_clipPath_fDIzd6Cppq96jKFPLvFD7NwCFKTbNiGK"><rect width="35" height="33"/></clipPath></defs><g clip-path="url(#_clipPath_fDIzd6Cppq96jKFPLvFD7NwCFKTbNiGK)"><path d=" M 2.5 16.5 C 2.5 8.773 9.221 2.5 17.5 2.5 C 25.779 2.5 32.5 8.773 32.5 16.5 C 32.5 24.227 25.779 30.5 17.5 30.5 C 9.221 30.5 2.5 24.227 2.5 16.5 Z " fill="rgb(46,204,113)" vector-effect="non-scaling-stroke" stroke-width="0.5" stroke="rgb(0,0,0)" stroke-linejoin="miter" stroke-linecap="square" stroke-miterlimit="3"/><path d="M 8.178 11.436 L 26.822 11.436 C 29.956 11.436 32.5 13.705 32.5 16.5 L 32.5 16.5 C 32.5 19.295 29.956 21.564 26.822 21.564 L 8.178 21.564 C 5.044 21.564 2.5 19.295 2.5 16.5 L 2.5 16.5 C 2.5 13.705 5.044 11.436 8.178 11.436 Z" style="stroke:none;fill:#000000;stroke-miterlimit:10;"/><g transform="matrix(2,0,0,2,12.7,12.444)"><text transform="matrix(1,0,0,1,0,3.207)" style="font-family:&quot;Open Sans&quot;;font-weight:700;font-size:3px;font-style:normal;fill:#ffffff;stroke:none;">KG</text></g></g></svg>