<?xml version="1.0" standalone="no"?><!-- Generator: Gravit.io --><svg xmlns="http://www.w3.org/2000/svg" xmlns:xlink="http://www.w3.org/1999/xlink" style="isolation:isolate" viewBox="0 0 90 35" width="90" height="35"><defs><clipPath id="_clipPath_Zie2vccnPq2PJIZJLqZft2DdLxP2VM9i"><rect width="90" height="35"/></clipPath></defs><g clip-path="url(#_clipPath_Zie2vccnPq2PJIZJLqZft2DdLxP2VM9i)"><line x1="4.565" y1="12.935" x2="85.435" y2="12.935" vector-effect="non-scaling-stroke" stroke-width="1.304" stroke="rgb(255,255,255)" stroke-linejoin="miter" stroke-linecap="square" stroke-miterlimit="3"/><line x1="4.565" y1="28.587" x2="85.435" y2="28.587" vector-effect="non-scaling-stroke" stroke-width="1.304" stroke="rgb(255,255,255)" stroke-linejoin="miter" stroke-linecap="square" stroke-miterlimit="3"/><line x1="4.565" y1="20.761" x2="85.435" y2="20.761" vector-effect="non-scaling-stroke" stroke-width="1.304" stroke="rgb(255,255,255)" stroke-linejoin="miter" stroke-linecap="square" stroke-miterlimit="3"/><line x1="4.565" y1="12.935" x2="85.435" y2="12.935" vector-effect="non-scaling-stroke" stroke-width="1.304" stroke="rgb(255,255,255)" stroke-linejoin="miter" stroke-linecap="square" stroke-miterlimit="3"/><line x1="13.696" y1="4.457" x2="13.696" y2="28.587" vector-effect="non-scaling-stroke" stroke-width="1.304" stroke="rgb(255,255,255)" stroke-linejoin="miter" stroke-linecap="square" stroke-miterlimit="3"/><line x1="21.522" y1="4.457" x2="21.522" y2="28.587" vector-effect="non-scaling-stroke" stroke-width="1.304" stroke="rgb(255,255,255)" stroke-linejoin="miter" stroke-linecap="square" stroke-miterlimit="3"/><line x1="29.348" y1="4.457" x2="29.348" y2="28.587" vector-effect="non-scaling-stroke" stroke-width="1.304" stroke="rgb(255,255,255)" stroke-linejoin="miter" stroke-linecap="square" stroke-miterlimit="3"/><line x1="37.174" y1="4.457" x2="37.174" y2="28.587" vector-effect="non-scaling-stroke" stroke-width="1.304" stroke="rgb(255,255,255)" stroke-linejoin="miter" stroke-linecap="square" stroke-miterlimit="3"/><line x1="45" y1="4.457" x2="45" y2="28.587" vector-effect="non-scaling-stroke" stroke-width="1.304" stroke="rgb(255,255,255)" stroke-linejoin="miter" stroke-linecap="square" stroke-miterlimit="3"/><line x1="52.826" y1="4.457" x2="52.826" y2="28.587" vector-effect="non-scaling-stroke" stroke-width="1.304" stroke="rgb(255,255,255)" stroke-linejoin="miter" stroke-linecap="square" stroke-miterlimit="3"/><line x1="60.652" y1="4.457" x2="60.652" y2="28.587" vector-effect="non-scaling-stroke" stroke-width="1.304" stroke="rgb(255,255,255)" stroke-linejoin="miter" stroke-linecap="square" stroke-miterlimit="3"/><line x1="68.478" y1="4.457" x2="68.478" y2="28.587" vector-effect="non-scaling-stroke" stroke-width="1.304" stroke="rgb(255,255,255)" stroke-linejoin="miter" stroke-linecap="square" stroke-miterlimit="3"/><line x1="76.304" y1="4.457" x2="76.304" y2="28.587" vector-effect="non-scaling-stroke" stroke-width="1.304" stroke="rgb(255,255,255)" stroke-linejoin="miter" stroke-linecap="square" stroke-miterlimit="3"/><rect x="2.609" y="2.5" width="3.913" height="30" transform="matrix(1,0,0,1,0,0)" fill="rgb(0,0,0)"/><rect x="83.478" y="2.5" width="3.913" height="30" transform="matrix(1,0,0,1,0,0)" fill="rgb(0,0,0)"/><rect x="42.391" y="-36.63" width="3.913" height="82.174" transform="matrix(0,1,-1,0,48.804,-39.891)" fill="rgb(0,0,0)"/></g></svg>