<?xml version="1.0" standalone="no"?><!-- Generator: Gravit.io --><svg xmlns="http://www.w3.org/2000/svg" xmlns:xlink="http://www.w3.org/1999/xlink" style="isolation:isolate" viewBox="0 0 55 55" width="55" height="55"><defs><clipPath id="_clipPath_aPHxrzU3BUp0AEw2xcPmvYhbD4MYhksS"><rect width="55" height="55"/></clipPath></defs><g clip-path="url(#_clipPath_aPHxrzU3BUp0AEw2xcPmvYhbD4MYhksS)"><path d=" M 5.051 27.5 C 5.051 15.11 15.11 5.051 27.5 5.051 C 39.89 5.051 49.949 15.11 49.949 27.5 C 49.949 39.89 39.89 49.949 27.5 49.949 C 15.11 49.949 5.051 39.89 5.051 27.5 Z " fill="none" vector-effect="non-scaling-stroke" stroke-width="5.102" stroke="rgb(46,204,113)" stroke-linejoin="miter" stroke-linecap="square" stroke-miterlimit="3"/><path d=" M 2.5 27.5 C 2.5 13.702 13.702 2.5 27.5 2.5 C 41.298 2.5 52.5 13.702 52.5 27.5 C 52.5 41.298 41.298 52.5 27.5 52.5 C 13.702 52.5 2.5 41.298 2.5 27.5 Z " fill="none" vector-effect="non-scaling-stroke" stroke-width="0.5" stroke="rgb(0,0,0)" stroke-linejoin="miter" stroke-linecap="square" stroke-miterlimit="3"/><path d=" M 7.602 27.5 C 7.602 16.518 16.518 7.602 27.5 7.602 C 38.482 7.602 47.398 16.518 47.398 27.5 C 47.398 38.482 38.482 47.398 27.5 47.398 C 16.518 47.398 7.602 38.482 7.602 27.5 Z " fill="none" vector-effect="non-scaling-stroke" stroke-width="0.5" stroke="rgb(0,0,0)" stroke-linejoin="miter" stroke-linecap="square" stroke-miterlimit="3"/></g></svg>