<?xml version="1.0" standalone="no"?><!-- Generator: Gravit.io --><svg xmlns="http://www.w3.org/2000/svg" xmlns:xlink="http://www.w3.org/1999/xlink" style="isolation:isolate" viewBox="0 0 290 245" width="290" height="245"><defs><clipPath id="_clipPath_ePCW7DsZeeg0IAb1KrSLg5S8dF9Th9JQ"><rect width="290" height="245"/></clipPath></defs><g clip-path="url(#_clipPath_ePCW7DsZeeg0IAb1KrSLg5S8dF9Th9JQ)"><path d=" M 47.164 7.5 L 265.856 116.846 L 225.571 145.621 L 6.879 36.275 L 47.164 7.5 Z " fill="rgb(52,152,219)" fill-opacity="0.3"/><path d=" M 47.164 7.5 L 64.429 76.561 L 6.879 122.601 L 6.879 36.275 L 47.164 7.5 Z " fill="rgb(52,152,219)" fill-opacity="0.3"/><path d=" M 283.121 185.907 L 64.429 76.561 L 47.164 7.5 L 265.856 116.846 L 283.121 185.907 Z " fill="rgb(52,152,219)" fill-opacity="0.3"/><path d=" M 283.121 185.907 L 225.571 236.743 L 225.571 145.621 L 265.856 116.846 L 283.121 185.907 Z " fill="rgb(52,152,219)" fill-opacity="0.3"/><line x1="8.227" y1="37.624" x2="225.571" y2="145.621" vector-effect="non-scaling-stroke" stroke-width="2.878" stroke="rgb(0,0,0)" stroke-linejoin="miter" stroke-linecap="square" stroke-miterlimit="3"/><line x1="47.636" y1="7.972" x2="265.856" y2="116.846" vector-effect="non-scaling-stroke" stroke-width="2.878" stroke="rgb(0,0,0)" stroke-linejoin="miter" stroke-linecap="square" stroke-miterlimit="3"/><line x1="7.486" y1="36.028" x2="46.827" y2="7.837" vector-effect="non-scaling-stroke" stroke-width="2.878" stroke="rgb(0,0,0)" stroke-linejoin="miter" stroke-linecap="square" stroke-miterlimit="3"/><line x1="225.571" y1="145.621" x2="265.301" y2="117.401" vector-effect="non-scaling-stroke" stroke-width="2.878" stroke="rgb(0,0,0)" stroke-linejoin="miter" stroke-linecap="square" stroke-miterlimit="3"/><line x1="6.879" y1="122.601" x2="6.879" y2="36.275" vector-effect="non-scaling-stroke" stroke-width="2.878" stroke="rgb(0,0,0)" stroke-linejoin="miter" stroke-linecap="square" stroke-miterlimit="3"/><line x1="225.571" y1="236.743" x2="225.571" y2="145.621" vector-effect="non-scaling-stroke" stroke-width="2.878" stroke="rgb(0,0,0)" stroke-linejoin="miter" stroke-linecap="square" stroke-miterlimit="3"/><line x1="64.429" y1="76.561" x2="47.164" y2="7.5" vector-effect="non-scaling-stroke" stroke-width="2.878" stroke="rgb(0,0,0)" stroke-linejoin="miter" stroke-linecap="square" stroke-miterlimit="3"/><line x1="283.121" y1="185.907" x2="265.856" y2="116.846" vector-effect="non-scaling-stroke" stroke-width="2.878" stroke="rgb(0,0,0)" stroke-linejoin="miter" stroke-linecap="square" stroke-miterlimit="3"/><line x1="64.429" y1="76.561" x2="282.381" y2="185.591" vector-effect="non-scaling-stroke" stroke-width="2.878" stroke="rgb(0,0,0)" stroke-linejoin="miter" stroke-linecap="square" stroke-miterlimit="3"/><line x1="7.418" y1="122.062" x2="64.429" y2="76.561" vector-effect="non-scaling-stroke" stroke-width="2.878" stroke="rgb(0,0,0)" stroke-linejoin="miter" stroke-linecap="square" stroke-miterlimit="3"/><line x1="225.526" y1="237.5" x2="282.799" y2="186.229" vector-effect="non-scaling-stroke" stroke-width="2.878" stroke="rgb(0,0,0)" stroke-linejoin="miter" stroke-linecap="square" stroke-miterlimit="3"/></g></svg>