<?xml version="1.0" standalone="no"?><!-- Generator: Gravit.io --><svg xmlns="http://www.w3.org/2000/svg" xmlns:xlink="http://www.w3.org/1999/xlink" style="isolation:isolate" viewBox="0 0 25 25" width="25" height="25"><defs><clipPath id="_clipPath_Q02HkYuFkh9n7qteDcQyIjHpLSbo7UPA"><rect width="25" height="25"/></clipPath></defs><g clip-path="url(#_clipPath_Q02HkYuFkh9n7qteDcQyIjHpLSbo7UPA)"><polygon points="20.444,6.184,18.931,1.234,23.974,2.399" fill="rgb(0,0,0)"/><path d=" M 1.026 23.127 C 1.821 20.567 2.403 18.716 3.33 16.218 C 4.118 14.422 4.761 12.867 5.921 11.282 C 7.082 9.698 8.302 8.547 9.838 7.334 C 11.421 6.083 12.901 5.208 14.733 4.373 C 16.065 3.766 17.243 3.372 18.65 2.973 Q 19.476 2.739 21.026 2.399" fill="none" vector-effect="non-scaling-stroke" stroke-width="0.5" stroke="rgb(0,0,0)" stroke-linejoin="miter" stroke-linecap="square" stroke-miterlimit="3"/><path d=" M 3.146 23.766 C 3.879 21.565 4.441 19.655 5.026 18.127 C 5.591 16.583 6.043 14.719 7.026 13.222 C 8.014 11.577 9.026 10.592 10.397 9.289 C 11.901 8.043 13.308 7.171 15.048 6.339 C 16.313 5.734 17.432 5.343 18.768 4.945 Q 19.554 4.711 21.026 4.373" fill="none" vector-effect="non-scaling-stroke" stroke-width="0.5" stroke="rgb(0,0,0)" stroke-linejoin="miter" stroke-linecap="square" stroke-miterlimit="3"/></g></svg>