<?xml version="1.0" standalone="no"?><!-- Generator: Gravit.io --><svg xmlns="http://www.w3.org/2000/svg" xmlns:xlink="http://www.w3.org/1999/xlink" style="isolation:isolate" viewBox="0 0 25 25" width="25" height="25"><defs><clipPath id="_clipPath_wUx3dS7VZTSosdenMLwLoiJ2a4dVG4np"><rect width="25" height="25"/></clipPath></defs><g clip-path="url(#_clipPath_wUx3dS7VZTSosdenMLwLoiJ2a4dVG4np)"><path d=" M 20.757 3.06 C 19.632 3.56 19.311 5.216 18 5.585 C 16.541 5.996 15.414 3.895 14 4.585 C 12.138 5.493 14.656 8.481 13 9.585 C 11.344 10.689 9.496 7.089 8 8.585 C 6.504 10.081 10.593 12.137 9 13.585 C 7.859 14.622 6.123 12.515 5 13.585 C 3.243 15.258 8.315 16.757 7 18.585 C 6.08 19.864 3.931 18.319 3 19.585 C 2.147 20.745 3.782 22.224 3 23.415 Q 2.725 23.833 2 24.415" fill="none" vector-effect="non-scaling-stroke" stroke-width="1" stroke="rgb(0,0,0)" stroke-linejoin="miter" stroke-linecap="square" stroke-miterlimit="3"/><polygon points="21.965,5.683,18,2.355,22.864,0.585" fill="rgb(0,0,0)"/></g></svg>