<?xml version="1.0" standalone="no"?><!-- Generator: Gravit.io --><svg xmlns="http://www.w3.org/2000/svg" xmlns:xlink="http://www.w3.org/1999/xlink" style="isolation:isolate" viewBox="0 0 50 50" width="50" height="50"><defs><clipPath id="_clipPath_DWQVw8dXR9P9luXSGhc4RGxvujin4zQo"><rect width="50" height="50"/></clipPath></defs><g clip-path="url(#_clipPath_DWQVw8dXR9P9luXSGhc4RGxvujin4zQo)"><path d=" M 25 50 C 11.202 50 0 38.798 0 25 C 0 11.202 11.202 0 25 0 C 38.798 0 50 11.202 50 25 C 50 38.798 38.798 50 25 50 Z " fill="rgb(85,113,50)"/><path d=" M 17.774 33.527 C 17.751 31.671 18.459 29.815 19.873 28.401 C 22.703 25.571 27.297 25.571 30.127 28.401 C 31.541 29.815 32.249 31.671 32.226 33.527" fill="none" vector-effect="non-scaling-stroke" stroke-width="0.5" stroke="rgb(255,255,255)" stroke-linejoin="miter" stroke-linecap="square" stroke-miterlimit="3"/><path d=" M 24.512 42.218 C 24.242 41.949 24.242 41.511 24.512 41.242 C 24.781 40.973 25.219 40.973 25.488 41.242 C 25.758 41.511 25.758 41.949 25.488 42.218 C 25.219 42.488 24.781 42.488 24.512 42.218 Z " fill="rgb(255,255,255)"/><line x1="7.218" y1="33.527" x2="42.782" y2="33.527" vector-effect="non-scaling-stroke" stroke-width="0.5" stroke="rgb(255,255,255)" stroke-linejoin="miter" stroke-linecap="square" stroke-miterlimit="3"/><line x1="7.218" y1="33.527" x2="7.218" y2="46" vector-effect="non-scaling-stroke" stroke-width="0.5" stroke="rgb(255,255,255)" stroke-linejoin="miter" stroke-linecap="square" stroke-miterlimit="3"/><line x1="42.782" y1="33.527" x2="42.782" y2="47" vector-effect="non-scaling-stroke" stroke-width="0.5" stroke="rgb(255,255,255)" stroke-linejoin="miter" stroke-linecap="square" stroke-miterlimit="3"/><path d=" M 19.871 -0.375 C 17.041 2.454 17.041 7.049 19.871 9.878 C 22.7 12.707 27.294 12.707 30.124 9.878 C 32.953 7.049 32.953 2.454 30.124 -0.375 C 27.294 -3.205 22.7 -3.205 19.871 -0.375 Z " fill="none" vector-effect="non-scaling-stroke" stroke-width="0.5" stroke="rgb(255,255,255)" stroke-linejoin="miter" stroke-linecap="square" stroke-miterlimit="3"/><path d=" M 24.509 4.263 C 24.239 4.533 24.239 4.97 24.509 5.24 C 24.778 5.509 25.216 5.509 25.485 5.24 C 25.755 4.97 25.755 4.533 25.485 4.263 C 25.216 3.994 24.778 3.994 24.509 4.263 Z " fill="rgb(255,255,255)"/><line x1="0.26" y1="4.751" x2="49.74" y2="4.751" vector-effect="non-scaling-stroke" stroke-width="0.5" stroke="rgb(255,255,255)" stroke-linejoin="miter" stroke-linecap="square" stroke-miterlimit="3"/></g></svg>