<?xml version="1.0" standalone="no"?><!-- Generator: Gravit.io --><svg xmlns="http://www.w3.org/2000/svg" xmlns:xlink="http://www.w3.org/1999/xlink" style="isolation:isolate" viewBox="0 0 50 50" width="50" height="50"><defs><clipPath id="_clipPath_a1WmBEWK7PmqssL3H8xsuRMWNjjZfQh6"><rect width="50" height="50"/></clipPath></defs><g clip-path="url(#_clipPath_a1WmBEWK7PmqssL3H8xsuRMWNjjZfQh6)"><path d=" M 25 50 C 11.202 50 0 38.798 0 25 C 0 11.202 11.202 0 25 0 C 38.798 0 50 11.202 50 25 C 50 38.798 38.798 50 25 50 Z " fill="rgb(85,113,50)"/><path d=" M 17.774 33.527 C 17.751 31.671 18.459 29.815 19.873 28.401 C 22.703 25.571 27.297 25.571 30.127 28.401 C 31.541 29.815 32.249 31.671 32.226 33.527" fill="none" vector-effect="non-scaling-stroke" stroke-width="0.5" stroke="rgb(255,255,255)" stroke-linejoin="miter" stroke-linecap="square" stroke-miterlimit="3"/><path d=" M 24.512 42.218 C 24.242 41.949 24.242 41.511 24.512 41.242 C 24.781 40.973 25.219 40.973 25.488 41.242 C 25.758 41.511 25.758 41.949 25.488 42.218 C 25.219 42.488 24.781 42.488 24.512 42.218 Z " fill="rgb(255,255,255)"/><line x1="7.218" y1="33.527" x2="42.782" y2="33.527" vector-effect="non-scaling-stroke" stroke-width="0.5" stroke="rgb(255,255,255)" stroke-linejoin="miter" stroke-linecap="square" stroke-miterlimit="3"/><line x1="7.218" y1="33.527" x2="7.218" y2="46" vector-effect="non-scaling-stroke" stroke-width="0.5" stroke="rgb(255,255,255)" stroke-linejoin="miter" stroke-linecap="square" stroke-miterlimit="3"/><line x1="42.782" y1="33.527" x2="42.782" y2="47" vector-effect="non-scaling-stroke" stroke-width="0.5" stroke="rgb(255,255,255)" stroke-linejoin="miter" stroke-linecap="square" stroke-miterlimit="3"/></g></svg>