<?xml version="1.0" standalone="no"?><!-- Generator: Gravit.io --><svg xmlns="http://www.w3.org/2000/svg" xmlns:xlink="http://www.w3.org/1999/xlink" style="isolation:isolate" viewBox="0 0 50 50" width="50" height="50"><defs><clipPath id="_clipPath_MiDHh8PPkAnxC6FmO4rpMXAFXbnuOHgl"><rect width="50" height="50"/></clipPath></defs><g clip-path="url(#_clipPath_MiDHh8PPkAnxC6FmO4rpMXAFXbnuOHgl)"><path d=" M 50 25 C 50 11.202 38.798 0 25 0 C 11.202 0 0 11.202 0 25 C 0 38.798 11.202 50 25 50 C 38.798 50 50 38.798 50 25 Z " fill="rgb(85,113,50)"/><path d=" M 33.527 17.774 C 31.671 17.751 29.815 18.459 28.401 19.873 C 25.571 22.703 25.571 27.297 28.401 30.127 C 29.815 31.541 31.671 32.249 33.527 32.226" fill="none" vector-effect="non-scaling-stroke" stroke-width="0.5" stroke="rgb(255,255,255)" stroke-linejoin="miter" stroke-linecap="square" stroke-miterlimit="3"/><path d=" M 42.218 24.512 C 41.949 24.242 41.511 24.242 41.242 24.512 C 40.973 24.781 40.973 25.219 41.242 25.488 C 41.511 25.758 41.949 25.758 42.218 25.488 C 42.488 25.219 42.488 24.781 42.218 24.512 Z " fill="rgb(255,255,255)"/><line x1="33.527" y1="7.218" x2="33.527" y2="42.782" vector-effect="non-scaling-stroke" stroke-width="0.5" stroke="rgb(255,255,255)" stroke-linejoin="miter" stroke-linecap="square" stroke-miterlimit="3"/><line x1="33.527" y1="7.218" x2="46" y2="7.218" vector-effect="non-scaling-stroke" stroke-width="0.5" stroke="rgb(255,255,255)" stroke-linejoin="miter" stroke-linecap="square" stroke-miterlimit="3"/><line x1="33.527" y1="42.782" x2="47" y2="42.782" vector-effect="non-scaling-stroke" stroke-width="0.5" stroke="rgb(255,255,255)" stroke-linejoin="miter" stroke-linecap="square" stroke-miterlimit="3"/></g></svg>