<?xml version="1.0" standalone="no"?><!-- Generator: Gravit.io --><svg xmlns="http://www.w3.org/2000/svg" xmlns:xlink="http://www.w3.org/1999/xlink" style="isolation:isolate" viewBox="0 0 50 50" width="50" height="50"><defs><clipPath id="_clipPath_uNEZ7dExcp4RUId2wOCG2jbPEmvx8oVd"><rect width="50" height="50"/></clipPath></defs><g clip-path="url(#_clipPath_uNEZ7dExcp4RUId2wOCG2jbPEmvx8oVd)"><path d=" M 0 25 C 0 38.798 11.202 50 25 50 C 38.798 50 50 38.798 50 25 C 50 11.202 38.798 0 25 0 C 11.202 0 0 11.202 0 25 Z " fill="rgb(85,113,50)"/><path d=" M 16.473 32.226 C 18.329 32.249 20.185 31.541 21.599 30.127 C 24.429 27.297 24.429 22.703 21.599 19.873 C 20.185 18.459 18.329 17.751 16.473 17.774" fill="none" vector-effect="non-scaling-stroke" stroke-width="0.5" stroke="rgb(255,255,255)" stroke-linejoin="miter" stroke-linecap="square" stroke-miterlimit="3"/><path d=" M 7.782 25.488 C 8.051 25.758 8.489 25.758 8.758 25.488 C 9.027 25.219 9.027 24.781 8.758 24.512 C 8.489 24.242 8.051 24.242 7.782 24.512 C 7.512 24.781 7.512 25.219 7.782 25.488 Z " fill="rgb(255,255,255)"/><line x1="16.473" y1="42.782" x2="16.473" y2="7.218" vector-effect="non-scaling-stroke" stroke-width="0.5" stroke="rgb(255,255,255)" stroke-linejoin="miter" stroke-linecap="square" stroke-miterlimit="3"/><line x1="16.473" y1="42.782" x2="4" y2="42.782" vector-effect="non-scaling-stroke" stroke-width="0.5" stroke="rgb(255,255,255)" stroke-linejoin="miter" stroke-linecap="square" stroke-miterlimit="3"/><line x1="16.473" y1="7.218" x2="3" y2="7.218" vector-effect="non-scaling-stroke" stroke-width="0.5" stroke="rgb(255,255,255)" stroke-linejoin="miter" stroke-linecap="square" stroke-miterlimit="3"/><path d=" M 50.375 30.129 C 47.546 32.959 42.951 32.959 40.122 30.129 C 37.293 27.3 37.293 22.706 40.122 19.876 C 42.951 17.047 47.546 17.047 50.375 19.876 C 53.205 22.706 53.205 27.3 50.375 30.129 Z " fill="none" vector-effect="non-scaling-stroke" stroke-width="0.5" stroke="rgb(255,255,255)" stroke-linejoin="miter" stroke-linecap="square" stroke-miterlimit="3"/><path d=" M 45.737 25.491 C 45.467 25.761 45.03 25.761 44.76 25.491 C 44.491 25.222 44.491 24.784 44.76 24.515 C 45.03 24.245 45.467 24.245 45.737 24.515 C 46.006 24.784 46.006 25.222 45.737 25.491 Z " fill="rgb(255,255,255)"/><line x1="45.249" y1="49.74" x2="45.249" y2="0.26" vector-effect="non-scaling-stroke" stroke-width="0.5" stroke="rgb(255,255,255)" stroke-linejoin="miter" stroke-linecap="square" stroke-miterlimit="3"/></g></svg>