<?xml version="1.0" standalone="no"?><!-- Generator: Gravit.io --><svg xmlns="http://www.w3.org/2000/svg" xmlns:xlink="http://www.w3.org/1999/xlink" style="isolation:isolate" viewBox="0 0 50 50" width="50" height="50"><defs><clipPath id="_clipPath_xxQ37yTBLkDQNdsp9DsKRfAp2zMqq1AR"><rect width="50" height="50"/></clipPath></defs><g clip-path="url(#_clipPath_xxQ37yTBLkDQNdsp9DsKRfAp2zMqq1AR)"><path d=" M 50 25 C 50 38.798 38.798 50 25 50 C 11.202 50 0 38.798 0 25 C 0 11.202 11.202 0 25 0 C 38.798 0 50 11.202 50 25 Z " fill="rgb(85,113,50)"/><path d=" M 33.527 32.226 C 31.671 32.249 29.815 31.541 28.401 30.127 C 25.571 27.297 25.571 22.703 28.401 19.873 C 29.815 18.459 31.671 17.751 33.527 17.774" fill="none" vector-effect="non-scaling-stroke" stroke-width="0.5" stroke="rgb(255,255,255)" stroke-linejoin="miter" stroke-linecap="square" stroke-miterlimit="3"/><path d=" M 42.218 25.488 C 41.949 25.758 41.511 25.758 41.242 25.488 C 40.973 25.219 40.973 24.781 41.242 24.512 C 41.511 24.242 41.949 24.242 42.218 24.512 C 42.488 24.781 42.488 25.219 42.218 25.488 Z " fill="rgb(255,255,255)"/><line x1="33.527" y1="42.782" x2="33.527" y2="7.218" vector-effect="non-scaling-stroke" stroke-width="0.5" stroke="rgb(255,255,255)" stroke-linejoin="miter" stroke-linecap="square" stroke-miterlimit="3"/><line x1="33.527" y1="42.782" x2="46" y2="42.782" vector-effect="non-scaling-stroke" stroke-width="0.5" stroke="rgb(255,255,255)" stroke-linejoin="miter" stroke-linecap="square" stroke-miterlimit="3"/><line x1="33.527" y1="7.218" x2="47" y2="7.218" vector-effect="non-scaling-stroke" stroke-width="0.5" stroke="rgb(255,255,255)" stroke-linejoin="miter" stroke-linecap="square" stroke-miterlimit="3"/><path d=" M -0.375 30.129 C 2.454 32.959 7.049 32.959 9.878 30.129 C 12.707 27.3 12.707 22.706 9.878 19.876 C 7.049 17.047 2.454 17.047 -0.375 19.876 C -3.205 22.706 -3.205 27.3 -0.375 30.129 Z " fill="none" vector-effect="non-scaling-stroke" stroke-width="0.5" stroke="rgb(255,255,255)" stroke-linejoin="miter" stroke-linecap="square" stroke-miterlimit="3"/><path d=" M 4.263 25.491 C 4.533 25.761 4.97 25.761 5.24 25.491 C 5.509 25.222 5.509 24.784 5.24 24.515 C 4.97 24.245 4.533 24.245 4.263 24.515 C 3.994 24.784 3.994 25.222 4.263 25.491 Z " fill="rgb(255,255,255)"/><line x1="4.751" y1="49.74" x2="4.751" y2="0.26" vector-effect="non-scaling-stroke" stroke-width="0.5" stroke="rgb(255,255,255)" stroke-linejoin="miter" stroke-linecap="square" stroke-miterlimit="3"/></g></svg>