<?xml version="1.0" standalone="no"?><!-- Generator: Gravit.io --><svg xmlns="http://www.w3.org/2000/svg" xmlns:xlink="http://www.w3.org/1999/xlink" style="isolation:isolate" viewBox="0 0 50 50" width="50" height="50"><defs><clipPath id="_clipPath_2G20X3GfIWpavOBGgI120m5n0RZVL910"><rect width="50" height="50"/></clipPath></defs><g clip-path="url(#_clipPath_2G20X3GfIWpavOBGgI120m5n0RZVL910)"><path d=" M 25 0 C 11.202 0 0 11.202 0 25 C 0 38.798 11.202 50 25 50 C 38.798 50 50 38.798 50 25 C 50 11.202 38.798 0 25 0 Z " fill="rgb(85,113,50)"/><path d=" M 17.774 16.473 C 17.751 18.329 18.459 20.185 19.873 21.599 C 22.703 24.429 27.297 24.429 30.127 21.599 C 31.541 20.185 32.249 18.329 32.226 16.473" fill="none" vector-effect="non-scaling-stroke" stroke-width="0.5" stroke="rgb(255,255,255)" stroke-linejoin="miter" stroke-linecap="square" stroke-miterlimit="3"/><path d=" M 24.512 7.782 C 24.242 8.051 24.242 8.489 24.512 8.758 C 24.781 9.027 25.219 9.027 25.488 8.758 C 25.758 8.489 25.758 8.051 25.488 7.782 C 25.219 7.512 24.781 7.512 24.512 7.782 Z " fill="rgb(255,255,255)"/><line x1="7.218" y1="16.473" x2="42.782" y2="16.473" vector-effect="non-scaling-stroke" stroke-width="0.5" stroke="rgb(255,255,255)" stroke-linejoin="miter" stroke-linecap="square" stroke-miterlimit="3"/><line x1="7.218" y1="16.473" x2="7.218" y2="4" vector-effect="non-scaling-stroke" stroke-width="0.5" stroke="rgb(255,255,255)" stroke-linejoin="miter" stroke-linecap="square" stroke-miterlimit="3"/><line x1="42.782" y1="16.473" x2="42.782" y2="3" vector-effect="non-scaling-stroke" stroke-width="0.5" stroke="rgb(255,255,255)" stroke-linejoin="miter" stroke-linecap="square" stroke-miterlimit="3"/></g></svg>