<?xml version="1.0" standalone="no"?><!-- Generator: Gravit.io --><svg xmlns="http://www.w3.org/2000/svg" xmlns:xlink="http://www.w3.org/1999/xlink" style="isolation:isolate" viewBox="0 0 50 50" width="50" height="50"><defs><clipPath id="_clipPath_mAtgxJTVhnWtKb6Y7M6tgxIx5JsLReGX"><rect width="50" height="50"/></clipPath></defs><g clip-path="url(#_clipPath_mAtgxJTVhnWtKb6Y7M6tgxIx5JsLReGX)"><path d=" M 25 50 C 11.202 50 0 38.798 0 25 C 0 11.202 11.202 0 25 0 C 38.798 0 50 11.202 50 25 C 50 38.798 38.798 50 25 50 Z " fill="rgb(1,133,189)"/><path d=" M 30.129 -0.375 C 32.959 2.454 32.959 7.049 30.129 9.878 C 27.3 12.707 22.706 12.707 19.876 9.878 C 17.047 7.049 17.047 2.454 19.876 -0.375 C 22.706 -3.205 27.3 -3.205 30.129 -0.375 Z " fill="none" vector-effect="non-scaling-stroke" stroke-width="0.5" stroke="rgb(255,255,255)" stroke-linejoin="miter" stroke-linecap="square" stroke-miterlimit="3"/><path d=" M 25.491 4.263 C 25.76 4.533 25.76 4.97 25.491 5.24 C 25.222 5.509 24.784 5.509 24.515 5.24 C 24.245 4.97 24.245 4.533 24.515 4.263 C 24.784 3.994 25.222 3.994 25.491 4.263 Z " fill="rgb(255,255,255)"/><line x1="49.74" y1="4.751" x2="0.26" y2="4.751" vector-effect="non-scaling-stroke" stroke-width="0.5" stroke="rgb(255,255,255)" stroke-linejoin="miter" stroke-linecap="square" stroke-miterlimit="3"/><path d=" M 24.512 42.062 C 24.242 41.792 24.242 41.355 24.512 41.085 C 24.781 40.816 25.219 40.816 25.488 41.085 C 25.758 41.355 25.758 41.792 25.488 42.062 C 25.219 42.331 24.781 42.331 24.512 42.062 Z " fill="rgb(255,255,255)"/><path d=" M 43.947 41.573 C 43.977 39.032 43.009 36.491 41.072 34.554 C 39.135 32.617 36.594 31.649 34.052 31.679 M 6.053 41.573 C 6.023 39.032 6.991 36.491 8.928 34.554 C 10.865 32.617 13.406 31.649 15.948 31.679 M 34 31.678 L 15.895 31.678" fill-rule="evenodd" fill="none" vector-effect="non-scaling-stroke" stroke-width="0.5" stroke="rgb(255,255,255)" stroke-linejoin="miter" stroke-linecap="square" stroke-miterlimit="3"/></g></svg>