<?xml version="1.0" standalone="no"?><!-- Generator: Gravit.io --><svg xmlns="http://www.w3.org/2000/svg" xmlns:xlink="http://www.w3.org/1999/xlink" style="isolation:isolate" viewBox="0 0 50 50" width="50" height="50"><defs><clipPath id="_clipPath_cPUshfAw8RVb9iYaTNVxT9p3u2QwisZl"><rect width="50" height="50"/></clipPath></defs><g clip-path="url(#_clipPath_cPUshfAw8RVb9iYaTNVxT9p3u2QwisZl)"><path d=" M 50 25 C 50 11.202 38.798 0 25 0 C 11.202 0 0 11.202 0 25 C 0 38.798 11.202 50 25 50 C 38.798 50 50 38.798 50 25 Z " fill="rgb(1,133,189)"/><path d=" M 42.062 24.512 C 41.792 24.242 41.355 24.242 41.085 24.512 C 40.816 24.781 40.816 25.219 41.085 25.488 C 41.355 25.758 41.792 25.758 42.062 25.488 C 42.331 25.219 42.331 24.781 42.062 24.512 Z " fill="rgb(255,255,255)"/><path d=" M 41.573 6.053 C 39.032 6.023 36.491 6.991 34.554 8.928 C 32.617 10.865 31.649 13.406 31.679 15.948 M 41.573 43.947 C 39.032 43.977 36.491 43.009 34.554 41.072 C 32.617 39.135 31.649 36.594 31.679 34.052 M 31.678 16 L 31.678 34.105" fill-rule="evenodd" fill="none" vector-effect="non-scaling-stroke" stroke-width="0.5" stroke="rgb(255,255,255)" stroke-linejoin="miter" stroke-linecap="square" stroke-miterlimit="3"/></g></svg>