<?xml version="1.0" standalone="no"?><!-- Generator: Gravit.io --><svg xmlns="http://www.w3.org/2000/svg" xmlns:xlink="http://www.w3.org/1999/xlink" style="isolation:isolate" viewBox="0 0 50 50" width="50" height="50"><defs><clipPath id="_clipPath_AFFPCTLUde8dQa5ZmZXMVgQpkc07LN5r"><rect width="50" height="50"/></clipPath></defs><g clip-path="url(#_clipPath_AFFPCTLUde8dQa5ZmZXMVgQpkc07LN5r)"><path d=" M 0 25 C 0 11.202 11.202 0 25 0 C 38.798 0 50 11.202 50 25 C 50 38.798 38.798 50 25 50 C 11.202 50 0 38.798 0 25 Z " fill="rgb(85,113,50)"/><path d=" M 17.75 25 C 17.75 20.999 20.999 17.75 25 17.75 C 29.001 17.75 32.25 20.999 32.25 25 C 32.25 29.001 29.001 32.25 25 32.25 C 20.999 32.25 17.75 29.001 17.75 25 Z " fill="none" vector-effect="non-scaling-stroke" stroke-width="0.5" stroke="rgb(255,255,255)" stroke-linejoin="miter" stroke-linecap="square" stroke-miterlimit="3"/><path d=" M 24.31 25 C 24.31 24.619 24.619 24.31 25 24.31 C 25.381 24.31 25.69 24.619 25.69 25 C 25.69 25.381 25.381 25.69 25 25.69 C 24.619 25.69 24.31 25.381 24.31 25 Z " fill="rgb(255,255,255)"/><line x1="7.508" y1="7.508" x2="42.496" y2="42.496" vector-effect="non-scaling-stroke" stroke-width="0.5" stroke="rgb(255,255,255)" stroke-linejoin="miter" stroke-linecap="square" stroke-miterlimit="3"/></g></svg>