<?xml version="1.0" standalone="no"?><!-- Generator: Gravit.io --><svg xmlns="http://www.w3.org/2000/svg" xmlns:xlink="http://www.w3.org/1999/xlink" style="isolation:isolate" viewBox="0 0 50 50" width="50" height="50"><defs><clipPath id="_clipPath_bKpjFq9nM7fvcJagM8Hz0nrUttDqWCzd"><rect width="50" height="50"/></clipPath></defs><g clip-path="url(#_clipPath_bKpjFq9nM7fvcJagM8Hz0nrUttDqWCzd)"><path d=" M 0 25 C 0 11.202 11.202 0 25 0 C 38.798 0 50 11.202 50 25 C 50 38.798 38.798 50 25 50 C 11.202 50 0 38.798 0 25 Z " fill="rgb(85,113,50)"/><path d=" M 16.473 17.774 C 18.329 17.751 20.185 18.459 21.599 19.873 C 24.429 22.703 24.429 27.297 21.599 30.127 C 20.185 31.541 18.329 32.249 16.473 32.226" fill="none" vector-effect="non-scaling-stroke" stroke-width="0.5" stroke="rgb(255,255,255)" stroke-linejoin="miter" stroke-linecap="square" stroke-miterlimit="3"/><path d=" M 7.782 24.512 C 8.051 24.242 8.489 24.242 8.758 24.512 C 9.027 24.781 9.027 25.219 8.758 25.488 C 8.489 25.758 8.051 25.758 7.782 25.488 C 7.512 25.219 7.512 24.781 7.782 24.512 Z " fill="rgb(255,255,255)"/><line x1="16.473" y1="7.218" x2="16.473" y2="42.782" vector-effect="non-scaling-stroke" stroke-width="0.5" stroke="rgb(255,255,255)" stroke-linejoin="miter" stroke-linecap="square" stroke-miterlimit="3"/><line x1="16.473" y1="7.218" x2="4" y2="7.218" vector-effect="non-scaling-stroke" stroke-width="0.5" stroke="rgb(255,255,255)" stroke-linejoin="miter" stroke-linecap="square" stroke-miterlimit="3"/><line x1="16.473" y1="42.782" x2="3" y2="42.782" vector-effect="non-scaling-stroke" stroke-width="0.5" stroke="rgb(255,255,255)" stroke-linejoin="miter" stroke-linecap="square" stroke-miterlimit="3"/></g></svg>